<svg class="logo" xmlns="http://www.w3.org/2000/svg" version="1.1" height="27px" width="192px" x="0" y="0" viewBox="32 0 107.9 38.5" enable-background="new 0 0 107.9 38.5" xml:space="preserve"><path fill="#FFFFFF" d="M3.6 7.8L3.5 19.6 2.8 38.1H0L1.5 0.3h3.7L8.4 22l1.5 10.9L11.5 22l3.3-21.7h3.5l1.5 37.9H17l-0.8-18.5 0.1-11.9h-0.1l-1.8 11.6 -3 18.2h-3l-3-18.2L3.7 7.8H3.6zM34 30.7V7.8c0-4 2.5-7.8 7.5-7.8 4.5 0 7.2 3.7 7.2 7.9v22.7c0 4-2.4 7.9-7.2 7.9C36.8 38.5 34 34.9 34 30.7zM36.8 7.8v22.8c0 2.8 1.5 5.2 4.6 5.2 3 0 4.4-2.4 4.4-5.3V7.9c0-2.6-1.4-5.3-4.4-5.3C38.3 2.5 36.8 4.9 36.8 7.8zM63.5 30.7V7.8C63.5 3.8 66 0 71 0c4.5 0 7.2 3.7 7.2 7.9v22.7c0 4-2.4 7.9-7.2 7.9C66.3 38.5 63.5 34.9 63.5 30.7zM66.3 7.8v22.8c0 2.8 1.5 5.2 4.6 5.2 3 0 4.4-2.4 4.4-5.3V7.9c0-2.6-1.4-5.3-4.4-5.3C67.8 2.5 66.3 4.9 66.3 7.8zM108.1 30.7c0 7.6-5.9 7.5-7.6 7.5h-7V0.3h7c3.8 0 7.6 0.5 7.6 7.6V30.7zM105.4 7.9c0-4.8-2.2-5.1-4.9-5.1h-4.2v32.6h4.2c2.2 0 4.9-0.4 4.9-4.8V7.9zM137.2 0.3v37.8h-1.5v-10H125v10h-1.5V0.3h1.5v26.4h10.7V0.3H137.2zM176.5 0.3l-5.2 37.9H169l-5.1-34.3 -5.2 34.3h-2.2l-5.2-37.9h1.5l4.8 35.4 5.5-35.4h1.5l5.5 35.4 4.9-35.4H176.5zM203.8 32.7c0 3.9-2.5 5.5-5 5.5h-8.2V0.3h6.2c3.9 0 7 2.8 7 7.2l-0.1 11.2c0 2.4-1.3 4.8-3.5 6.2 0.8 0.2 1.5 0.6 2 1.1 0.9 0.9 1.5 2.3 1.5 3.9V32.7zM192.2 1.8v22.8h4.8c2.3 0 5.5-2.3 5.5-5.9V7.5c0-3.3-2.1-5.7-5.6-5.7C196.1 1.8 192.7 1.8 192.2 1.8zM202.4 29.9c0-1.2-0.4-2.2-1.1-2.9 -0.8-0.7-1.8-1.1-3.3-1.1 -0.8 0-5.5 0-5.9 0v10.7h6.7c3.2 0 3.6-2.9 3.6-4V29.9z"/></svg>