<svg width="50" height="49" viewBox="0 0 50 49" fill="none" xmlns="http://www.w3.org/2000/svg">
<path d="M49.9008 25.0856H0V48.5H49.9008V25.0856Z" fill="#D73648"/>
<path d="M45.504 32.4872C45.2352 32.6504 44.1888 32.66 43.5648 32.66C43.5648 31.9016 43.5648 31.0664 43.5648 30.2888C43.5648 29.8664 43.5648 29.4152 43.6032 28.9736C43.6032 28.7528 43.5456 28.6376 43.1424 28.6376H42.6624C42.7008 29.2136 42.72 29.7608 42.72 30.308V31.5368C42.72 31.9688 42.72 32.4008 42.6816 32.852C42.6816 33.0248 42.6816 33.188 43.104 33.188H45.2064C45.3696 33.1592 45.4944 33.0248 45.5136 32.8616C45.5136 32.852 45.504 32.7368 45.504 32.4872ZM34.6944 30.9416H34.1952C34.2528 31.268 34.272 31.604 34.2528 31.94C34.2528 32.1608 34.2528 32.3912 34.2528 32.612C33.9456 32.7176 33.6096 32.7752 33.2832 32.7656C32.3616 32.8136 31.5744 32.1032 31.5264 31.1816C31.5264 31.1048 31.5264 31.028 31.5264 30.9512C31.5264 29.9048 32.1216 29.0888 33.2256 29.0888C33.7824 29.1272 34.3104 29.348 34.7232 29.7224L34.8672 29.3192C34.9344 29.1656 34.8672 28.9928 34.7136 28.916C34.2432 28.7048 33.7344 28.5992 33.216 28.6088C31.7184 28.6088 30.5856 29.3192 30.5856 30.9416C30.5856 32.5544 31.728 33.2648 33.1872 33.2648C33.8304 33.236 34.464 33.1304 35.0784 32.9384V32.3432C35.0784 31.9784 35.0784 31.652 35.0784 31.2776C35.0784 31.0952 34.9344 30.9416 34.7424 30.9416C34.7232 30.932 34.704 30.9416 34.6944 30.9416ZM39.1392 36.5H38.3904C38.4 36.6248 38.3808 36.7592 38.3328 36.8744C38.1792 37.1912 37.9968 37.5176 37.8336 37.8344C37.6704 38.1512 37.2672 38.7944 37.0848 39.0824C36.6336 38.3432 36.24 37.5848 35.8368 36.8264C35.7216 36.6152 35.4912 36.4808 35.2512 36.5096H34.32C35.1072 37.6328 35.712 38.6504 36.3648 39.764C36.3648 40.4072 36.3648 41.2616 36.3168 41.924C36.3072 42.0872 36.432 42.2408 36.6048 42.2504C36.6336 42.2504 36.6624 42.2504 36.6912 42.2408H37.5264C37.4304 41.4248 37.4304 40.484 37.4304 39.6968C37.968 38.7272 38.592 37.8248 39.2544 36.8456C39.3024 36.788 39.3216 36.7208 39.312 36.644C39.312 36.5576 39.2352 36.4904 39.1488 36.4904H39.1392V36.5ZM27.1968 29.6744C27.216 29.3 27.5424 29.012 27.9168 29.0312C27.9264 29.0312 27.936 29.0312 27.936 29.0312C28.3392 29.0312 28.7232 29.252 28.9344 29.5976C29.0592 29.4344 29.1456 29.2424 29.1744 29.0312C29.1744 28.6472 28.3008 28.532 28.0032 28.532C27.216 28.532 26.448 28.964 26.448 29.8184C26.448 31.316 28.5792 30.9128 28.5792 31.9112C28.5984 32.324 28.272 32.6696 27.8592 32.6888C27.8304 32.6888 27.792 32.6888 27.7632 32.6888C27.2448 32.6984 26.7552 32.4584 26.4384 32.036C26.3808 32.2184 26.3424 32.4008 26.3232 32.5832C26.304 32.756 26.4096 32.9192 26.5632 32.996C26.8608 33.14 27.1872 33.2168 27.5232 33.2168C28.4256 33.2168 29.2896 32.7176 29.2896 31.7192C29.3184 30.2984 27.1968 30.7304 27.1968 29.6744ZM25.3632 28.6184H24.7584C24.6432 28.9928 24.48 29.3384 24.2592 29.6648C24 30.0776 23.76 30.4808 23.6256 30.6632C23.2608 30.0776 22.9152 29.4824 22.56 28.8968C22.464 28.7144 22.2624 28.6184 22.0608 28.6376H21.312C21.9456 29.5016 22.5312 30.3944 23.0976 31.3064V31.8056C23.0976 32.228 23.0592 32.6792 23.0592 32.9288C23.0688 33.0728 23.184 33.1784 23.328 33.1688C23.3376 33.1688 23.3472 33.1688 23.3664 33.1688H23.9808C23.9232 32.516 23.8944 31.8632 23.9136 31.2008C24.24 30.644 24.6048 30.0968 24.9888 29.5784C25.1424 29.348 25.3152 29.1176 25.488 28.8968C25.5168 28.8488 25.5456 28.8008 25.5456 28.7432C25.536 28.6664 25.4688 28.6088 25.392 28.6184C25.3824 28.6088 25.3728 28.6088 25.3632 28.6184ZM20.1696 28.6376H17.5872C17.5872 28.8776 17.6256 29.108 17.6448 29.348C17.6448 29.78 17.6448 30.692 17.6448 31.028C17.6448 31.8152 17.6064 32.228 17.6064 32.8424C17.5872 33.0056 17.7024 33.1592 17.8656 33.1784C17.8944 33.1784 17.9232 33.1784 17.952 33.1784H18.5184C18.5088 32.6504 18.4608 32.1416 18.4608 31.6136V31.0184C19.0656 31.0088 19.6704 31.0472 20.2656 31.1336C20.2656 30.9224 20.3232 30.5288 20.0064 30.5288C19.6896 30.5288 19.0848 30.596 18.4608 30.596V29.6456C18.4608 29.4728 18.4608 29.3 18.4608 29.1176C19.1136 29.0888 19.7568 29.1368 20.3904 29.2808C20.4384 29.0408 20.5056 28.6472 20.1696 28.6376ZM15.3984 30.6728C15.3984 29.7704 15.4464 29.5592 15.4464 29.0024C15.4848 28.8296 15.3696 28.6568 15.1968 28.6184C15.1584 28.6088 15.12 28.6088 15.072 28.6184H14.5344C14.592 29.3192 14.6208 30.02 14.6016 30.7208C14.6016 31.844 14.5536 32.0936 14.5536 32.7848C14.5248 32.9672 14.6496 33.1304 14.832 33.1592C14.8512 33.1592 14.88 33.1592 14.8992 33.1592H15.4656C15.4272 32.6504 15.3984 31.892 15.3984 30.6728ZM18.96 40.0904C18.3936 40.292 17.7888 40.3784 17.1936 40.3208C17.0208 40.3208 16.992 40.2152 16.9824 40.004V38.372C17.5584 38.3432 18.144 38.4008 18.7008 38.5352V38.1704C18.7008 37.9304 18.5664 37.8344 18.2304 37.8344C17.8944 37.8344 17.424 37.892 16.944 37.892C16.944 37.6136 16.944 37.2488 16.944 36.9704C16.944 36.692 16.944 36.3848 16.944 36.1544C18.3072 36.1544 18.6528 36.2696 18.8544 36.356V36.0872C18.864 35.8568 18.6912 35.6552 18.4608 35.6264H15.8688C15.9744 35.8664 16.0128 36.1256 16.0032 36.3944C16.0032 37.0856 16.0032 38.0744 16.0032 38.8904C16.0032 39.38 15.9936 39.8792 15.9648 40.388C15.9648 40.6472 16.0128 40.8008 16.2816 40.8008H18.5088C18.7104 40.8488 18.9024 40.724 18.9504 40.532C18.9504 40.5128 18.96 40.4936 18.96 40.4744V40.0904ZM11.1552 35.5784C10.2912 35.156 9.3504 34.9352 8.3904 34.9352C5.2512 34.9352 3.168 37.4696 3.168 40.5512C3.168 43.5464 5.4528 45.4952 8.3712 45.4952C9.456 45.5144 10.512 45.2072 11.424 44.6216L11.3088 43.6232C10.6656 44.2184 9.84 44.5736 8.9664 44.6216C6.384 44.6216 4.656 42.4808 4.656 39.9848C4.656 37.8536 5.8752 35.7512 8.2176 35.7512C9.0048 35.732 9.7728 36.0008 10.3872 36.5096C10.7232 36.7976 10.9632 37.1816 11.0688 37.6136C11.376 37.22 11.5776 36.7592 11.664 36.2696C11.6352 35.9528 11.4336 35.6936 11.1552 35.5784ZM38.88 28.5896C37.3824 28.5896 36.384 29.3864 36.384 30.9224C36.384 32.3624 37.5072 33.236 38.88 33.236C40.2528 33.236 41.4144 32.372 41.4144 30.9416C41.4144 29.5112 40.2816 28.5896 38.88 28.5896ZM38.88 32.7656C37.824 32.7656 37.296 31.8728 37.296 30.9128C37.296 29.9528 37.824 29.0504 38.88 29.0504C39.936 29.0504 40.464 29.9432 40.464 30.932C40.4736 31.9976 40.0896 32.7752 38.88 32.7656ZM43.3728 35.636C42.5376 35.636 41.6736 35.636 40.8288 35.636C40.944 35.8184 41.0016 36.02 41.0112 36.2312C41.0688 37.0088 41.1072 37.7576 41.1072 38.5352C40.3104 38.5352 39.4656 38.5352 38.6688 38.5352C38.7744 38.7176 38.8416 38.9192 38.8608 39.1304C38.928 39.9656 38.9568 40.7432 38.9568 41.5784C38.9568 42.644 38.9568 43.7192 38.8896 44.7848C38.8896 44.948 39.024 45.0728 39.1872 45.0632C39.1968 45.0632 39.2064 45.0632 39.2064 45.0632H41.1072C43.152 45.0632 44.6784 43.9592 44.784 41.9048C46.1376 41.4728 47.0304 40.1864 46.944 38.7656C46.9632 36.5288 45.504 35.636 43.4208 35.636H43.3728ZM44.7648 41.2232C44.6016 39.6296 43.6032 38.852 42.1632 38.6216C42.1632 37.748 42.2016 36.98 42.2304 36.1736C42.4608 36.1352 42.6912 36.116 42.9216 36.116C44.6112 36.116 45.7728 37.1144 45.7728 38.852C45.8496 39.7544 45.4848 40.6472 44.784 41.2232H44.7648ZM43.3536 41.6264H42.5568C42.4032 41.6456 42.2592 41.54 42.24 41.3864C42.24 41.3768 42.24 41.3672 42.24 41.3576C42.192 40.6568 42.1536 39.956 42.1536 39.3224C43.0656 39.716 43.6512 40.6184 43.6512 41.6168L43.3536 41.6264ZM41.2128 44.5352H40.4256C40.272 44.564 40.128 44.4584 40.0992 44.3048C40.0992 44.2952 40.0992 44.2856 40.0992 44.276C40.0512 43.4984 40.032 42.7784 40.032 42.02C40.032 41.0504 40.032 40.0232 40.1088 39.092C40.3392 39.0536 40.5696 39.044 40.8 39.044C40.9152 39.0344 41.0304 39.0344 41.136 39.044C41.136 39.9944 41.1168 40.9448 41.0688 41.8856C41.0784 42.0392 41.2128 42.164 41.3664 42.1544C41.376 42.1544 41.376 42.1544 41.3856 42.1544H43.2864C43.4016 42.1544 43.5264 42.1544 43.6512 42.1544C43.5456 43.5272 42.7968 44.5352 41.2416 44.5352H41.2128ZM29.9424 35.6744C28.896 35.6744 27.7632 35.6744 26.8608 35.6744C27.0336 35.9144 27.1008 36.3848 27.1584 37.3352C27.1968 38.0264 27.216 38.7272 27.216 39.428C27.216 40.2824 27.2064 41.1368 27.1776 41.9912C27.1776 42.4616 27.12 42.9128 27.12 43.3832C27.12 43.5752 27.2832 43.7288 27.4752 43.7288C27.4848 43.7288 27.4944 43.7288 27.504 43.7288H29.8464C32.448 43.7288 34.3872 42.2888 34.3872 39.5624C34.3872 36.836 32.5536 35.6744 29.9424 35.6744ZM29.9424 43.0568H28.944C28.752 43.0856 28.5792 42.9608 28.5504 42.7688C28.5504 42.7592 28.5504 42.7496 28.5504 42.74C28.512 42.5096 28.5024 42.164 28.4928 41.924C28.4928 41.396 28.4544 40.6088 28.4544 39.956C28.4544 38.7464 28.512 37.5464 28.56 36.356C28.8576 36.308 29.1552 36.2792 29.4528 36.2792C31.536 36.2792 32.976 37.46 32.976 39.6488C32.9952 41.5784 32.0544 43.0568 29.9904 43.0568H29.9424ZM23.6544 40.5896C24.8832 40.292 25.7568 39.1976 25.776 37.9304C25.776 36.2408 24.2784 35.6264 22.7808 35.6264C21.8304 35.6264 20.8704 35.6264 19.9104 35.6648C20.0256 35.9624 20.0832 36.2696 20.0736 36.5864C20.0736 37.748 20.0736 38.7944 20.0736 39.6008C20.0736 41.8376 19.968 43.124 19.968 43.5464C19.968 43.7192 20.0352 43.748 20.1888 43.748H21.6864C21.6 43.6136 21.5424 43.46 21.5328 43.3064C21.4272 42.5 21.3792 41.6744 21.3792 40.8584C21.696 40.8584 22.0608 40.8584 22.3776 40.8584C22.7904 41.5112 23.3088 42.2792 23.8752 43.0472C24.7584 44.2088 25.9584 45.5432 27.3696 45.5432C27.7248 45.5144 28.0896 45.476 28.4448 45.4088C26.8032 44.8424 24.672 42.0584 23.6928 40.58L23.6544 40.5896ZM22.1952 40.2536H21.3792V38.852C21.3792 38.0072 21.3792 37.0472 21.4464 36.2312C21.6864 36.2312 21.9744 36.1832 22.2432 36.1832C23.4336 36.1832 24.3936 36.8168 24.3936 38.1032C24.432 39.2552 23.52 40.2248 22.368 40.2536C22.32 40.2536 22.272 40.2536 22.224 40.2536H22.1952ZM11.5968 31.2296C12.24 31.1048 12.7008 30.548 12.7296 29.8952C12.7296 28.9256 11.8752 28.6472 11.0688 28.6472H9.9744H9.4368C9.4944 28.7432 9.5328 28.8392 9.5424 28.9544C9.5808 29.4536 9.5424 30.2312 9.5424 30.8648C9.5424 31.3064 9.5424 31.7672 9.5424 32.2088C9.5424 32.4296 9.5424 32.6408 9.5424 32.8616C9.5328 33.0152 9.6384 33.1496 9.792 33.1592C9.8208 33.1592 9.8496 33.1592 9.8784 33.1592C10.08 33.1592 10.2816 33.1592 10.4736 33.1592C10.4064 32.5736 10.3776 31.9784 10.3872 31.3928H10.8864C11.1936 31.9496 11.5392 32.4488 11.9424 33.0056C12.2304 33.4472 12.7296 33.6968 13.2576 33.6584H13.4784C12.7584 32.9192 12.1344 32.1032 11.5968 31.2296ZM10.5984 30.98H10.3392V30.5288C10.3392 30.1928 10.3392 29.3768 10.3392 29.0312H10.7424C11.3184 28.964 11.8272 29.3768 11.8944 29.9528C11.8944 29.9816 11.8944 30.0008 11.904 30.0296C11.9232 30.7784 11.2416 30.9992 10.5984 30.98ZM6.6048 28.6568H4.9536C5.0304 28.9256 5.0688 29.1944 5.0592 29.4728C5.0592 30.1256 5.0592 30.7976 5.0592 31.4408C5.0592 31.9016 5.0592 32.3432 5.0592 32.7944C5.0304 32.9672 5.1456 33.1304 5.3184 33.1688C5.3376 33.1688 5.3664 33.1784 5.3856 33.1688H5.952C5.904 32.6216 5.8944 31.988 5.8944 31.4024C6.0384 31.4024 6.1728 31.4024 6.3168 31.4024C7.2384 31.4024 8.2464 30.9608 8.2464 29.9048C8.2176 28.9448 7.4112 28.676 6.6048 28.6568ZM6.2304 31.0376C6.1152 31.0376 5.9616 31.0376 5.8656 31.0376V29.0696H6.3168C6.912 29.0696 7.3728 29.3 7.3728 29.972C7.392 30.548 6.9408 31.028 6.3648 31.0376C6.3168 31.0376 6.2784 31.0376 6.2304 31.0376ZM15.8592 42.4136L13.4304 36.8648C13.4016 36.6632 13.2288 36.5192 13.0272 36.5192H12.8736L10.0704 42.5C10.0224 42.5864 10.0032 42.6824 10.0032 42.7784C10.0224 42.884 10.128 42.9416 10.2336 42.9224C10.2336 42.9224 10.2336 42.9224 10.2432 42.9224H10.8576C10.848 42.8744 10.848 42.8264 10.8576 42.7784C10.8576 42.6632 10.8864 42.5384 10.9248 42.4328L11.52 40.9832H13.92L14.5728 42.6056C14.6112 42.788 14.7744 42.9224 14.9664 42.9128H16.1568C16.032 42.7688 15.9264 42.6056 15.8592 42.4136ZM11.76 40.4168L12.7584 38.0552L13.7088 40.4168H11.76Z" fill="white"/>
<path d="M49.9008 0.5H0V23.9144H49.9008V0.5Z" fill="#D73648"/>
<path d="M46.5696 3.4184H41.7504C41.9136 4.964 41.9712 6.5192 41.9232 8.0744C41.9232 9.6776 41.7888 12.3944 41.7888 12.8744C41.76 13.1144 41.9328 13.3256 42.1728 13.3448C42.2112 13.3448 42.2496 13.3448 42.288 13.3448H43.5168C43.44 13.124 43.392 12.8936 43.3824 12.6632C43.2768 11.2232 43.2384 9.7544 43.2384 8.324L43.9776 8.276C44.7456 8.228 45.5232 8.324 46.2624 8.5448C46.3392 8.3912 46.3872 8.2184 46.4064 8.0456C46.3584 7.748 46.0704 7.5464 45.7728 7.5944C45.7632 7.5944 45.744 7.5944 45.7344 7.604H43.2384C43.2384 6.4328 43.2864 5.2616 43.3344 4.1096H44.112C44.8032 4.1096 46.608 4.1096 47.1552 4.4456C47.2032 4.2728 47.2128 4.0904 47.2032 3.908C47.1744 3.6104 46.9152 3.38 46.608 3.4088C46.5888 3.4088 46.5792 3.4088 46.5696 3.4184ZM40.416 3.9272H36.2304C36.4608 4.34 36.4512 7.2392 36.4512 7.844C36.4512 9.092 36.336 10.8872 36.336 11.5976C36.2976 11.8088 36.4416 12.02 36.6624 12.0488C36.6816 12.0488 36.7008 12.0488 36.7104 12.0584H37.9488C37.8048 11.5304 37.7376 10.9832 37.7472 10.4456C37.7472 9.7928 37.7472 8.9864 37.7472 8.0744C37.92 8.0744 38.2464 8.036 38.4768 8.036C39.12 7.9976 39.7728 8.084 40.3872 8.3048C40.3872 8.132 40.4352 7.9592 40.4352 7.7768C40.4256 7.5464 40.2336 7.3736 40.0032 7.3832C39.984 7.3832 39.9648 7.3832 39.936 7.3928H37.7376C37.7376 6.4712 37.7856 5.5592 37.8144 4.628H38.6208C39.4752 4.58 40.3392 4.6952 41.1552 4.964V4.916C41.1552 4.388 41.0112 3.9272 40.416 3.9272ZM34.5504 8.1224C34.5504 7.4504 34.5504 6.788 34.5888 6.1256C34.5888 5.78 34.6368 5.4152 34.6368 5.06C34.6176 4.8968 34.4736 4.772 34.3104 4.7912H33.168C33.3024 5.8184 33.3504 6.8552 33.3216 7.892C33.3216 8.5352 33.3216 9.188 33.2832 9.8504C33.2832 10.148 33.2832 10.4552 33.2832 10.7528C33.2736 10.9544 33.4176 11.1272 33.6192 11.1368C33.6288 11.1368 33.6384 11.1368 33.648 11.1368C34.0128 11.1368 34.3584 11.1368 34.7232 11.1368C34.5792 10.1384 34.5216 9.1304 34.5312 8.1224H34.5504ZM45.6288 15.8216H45.0336C44.9184 16.196 44.7552 16.5416 44.5344 16.868C44.2944 17.2808 44.0352 17.684 43.92 17.8376C43.5456 17.2616 43.2096 16.6664 42.8448 16.0808C42.7488 15.8984 42.5472 15.7928 42.3456 15.8216H41.5968C42.24 16.6856 42.8256 17.5784 43.392 18.4904V18.9896C43.392 19.4216 43.344 19.8536 43.344 20.1032C43.3536 20.2472 43.488 20.3528 43.632 20.3432C43.6416 20.3432 43.6512 20.3432 43.6608 20.3336H44.2656C44.208 19.6904 44.1984 19.0472 44.1984 18.3944C44.5248 17.828 44.8992 17.2904 45.2736 16.772C45.4368 16.5416 45.6 16.3112 45.7728 16.0904C45.792 16.052 45.8016 16.0136 45.8016 15.9656C45.8016 15.8888 45.744 15.8216 45.6672 15.8216C45.648 15.8216 45.6384 15.8216 45.6288 15.8216ZM41.2128 15.8216H37.9008C37.6608 15.7928 37.4304 15.9656 37.4016 16.2056C37.4016 16.2152 37.4016 16.2248 37.4016 16.2344V16.4648C37.9008 16.3976 38.4 16.3784 38.8992 16.388C38.928 16.964 38.928 17.4632 38.928 18.0104C38.928 18.932 38.88 19.364 38.88 20.0456C38.8704 20.2088 38.9952 20.3432 39.1584 20.3624C39.1872 20.3624 39.216 20.3624 39.2448 20.3528H39.8112C39.744 19.5848 39.7248 18.8168 39.744 18.0488C39.744 17.5112 39.744 16.8104 39.744 16.4168C40.1856 16.4168 40.6176 16.4744 40.9344 16.4744C41.1168 16.4456 41.2512 16.2728 41.2224 16.0904C41.2224 16.0808 41.2224 16.0712 41.2224 16.0712V15.8408V15.8216H41.2128ZM36.6528 17.8568C36.6528 16.9544 36.7008 16.7432 36.7008 16.1864C36.7392 16.0136 36.624 15.8408 36.4512 15.8024C36.4128 15.7928 36.3744 15.7928 36.3264 15.8024H35.7888C35.8464 16.5032 35.8752 17.204 35.856 17.9048C35.856 19.028 35.808 19.2872 35.808 19.9688C35.7792 20.1512 35.904 20.3144 36.0864 20.3432C36.1056 20.3432 36.1344 20.3432 36.1536 20.3432H36.72C36.672 19.8344 36.6432 19.076 36.6432 17.8664L36.6528 17.8568ZM32.544 16.8584C32.5632 16.484 32.88 16.2056 33.2544 16.2248C33.264 16.2248 33.2832 16.2248 33.2928 16.2248C33.696 16.2248 34.0704 16.436 34.2912 16.772C34.416 16.6088 34.5024 16.4168 34.5312 16.2056C34.5312 15.8216 33.6576 15.7352 33.3696 15.7352C32.5728 15.7352 31.8048 16.1576 31.8048 17.012C31.8048 18.5096 33.936 18.116 33.936 19.1048C33.9552 19.5272 33.6192 19.8728 33.2064 19.892C33.1776 19.892 33.1488 19.892 33.12 19.892C32.6016 19.8824 32.1216 19.6328 31.824 19.2104C31.7664 19.3928 31.728 19.5752 31.7088 19.7576C31.6896 19.9304 31.7952 20.0936 31.9488 20.1704C32.2464 20.324 32.5728 20.4008 32.9088 20.4008C33.8112 20.4008 34.6752 19.9016 34.6752 18.9032C34.656 17.4632 32.544 17.924 32.544 16.8584ZM26.016 19.6808C25.5744 19.8344 25.1136 19.892 24.6528 19.8728H24.336C24.1632 19.8728 24.1632 19.7768 24.1632 19.6328C24.1632 19.4888 24.1632 18.6824 24.1632 18.5672V18.2216C24.72 18.2024 25.2672 18.2504 25.8144 18.3656C25.8144 18.2504 25.8144 18.1256 25.8144 18.0008C25.8144 17.8472 25.6896 17.7224 25.5456 17.7224C25.5264 17.7224 25.4976 17.7224 25.4784 17.732C25.0464 17.732 24.576 17.78 24.144 17.78V16.9832C24.144 16.7624 24.144 16.5224 24.1824 16.292C24.7872 16.2632 25.392 16.3208 25.9872 16.4552C25.9872 16.1864 25.9872 15.8408 25.5936 15.8408H23.2224C23.2704 15.9176 23.3088 16.004 23.3184 16.1C23.3568 16.6472 23.3568 17.204 23.3568 17.7512C23.3568 18.5192 23.3184 19.2488 23.3184 20.036C23.2896 20.1704 23.3664 20.3048 23.5008 20.3336C23.5296 20.3432 23.5584 20.3432 23.5872 20.3432H25.68C25.8528 20.3624 26.0064 20.2472 26.0256 20.0744C26.0256 20.0552 26.0256 20.0456 26.0256 20.0264V19.6808H26.016ZM22.272 15.812H21.6384C21.648 16.0616 21.6 16.3112 21.4848 16.532C21.1296 17.396 20.6592 18.4808 20.304 19.22C20.0736 18.7208 19.7088 17.8472 19.4112 17.1464C19.2576 16.7912 19.1424 16.484 18.9888 16.148C18.8928 15.9176 18.6624 15.7832 18.4128 15.8216H17.8272C18.528 17.3192 19.2288 18.8168 19.8528 20.3816H20.448C21.0432 18.932 21.7248 17.5304 22.3872 16.0904C22.3968 16.0616 22.3968 16.0328 22.3872 16.0136C22.416 15.9272 22.368 15.8408 22.2816 15.812C22.2912 15.812 22.2816 15.812 22.272 15.812ZM11.1744 3.86C10.32 3.4376 9.37919 3.2168 8.42879 3.2168C5.28959 3.2168 3.20639 5.7512 3.20639 8.8328C3.20639 11.828 5.49119 13.7768 8.40959 13.7768C9.49439 13.796 10.5696 13.4888 11.4816 12.9032L11.3664 11.9048C10.7232 12.5096 9.88799 12.8648 9.01439 12.9032C6.44159 12.9032 4.71359 10.7624 4.71359 8.2664C4.71359 6.1352 5.93279 4.0424 8.27519 4.0424C9.06239 4.0232 9.83039 4.292 10.4448 4.8008C10.7808 5.0888 11.0208 5.4728 11.1264 5.9048C11.424 5.5016 11.6352 5.0408 11.7216 4.5512C11.6736 4.2248 11.472 3.9656 11.1744 3.86ZM16.8768 17.8664C16.8768 16.964 16.9248 16.7528 16.9248 16.196C16.9632 16.0232 16.8576 15.8504 16.6848 15.812C16.6464 15.8024 16.608 15.8024 16.56 15.812H16.0128C16.0704 16.5128 16.0992 17.2136 16.08 17.9144C16.08 19.0376 16.032 19.2968 16.032 19.9784C16.0032 20.1608 16.128 20.324 16.3104 20.3528C16.3392 20.3528 16.368 20.3528 16.3968 20.3528H16.9632C16.9056 19.8344 16.8768 19.076 16.8768 17.8664ZM14.4192 15.8312H13.968C14.0064 16.5896 14.016 17.3288 14.016 18.116V18.9032C12.9216 17.9048 11.8944 16.8392 10.8192 15.7928H10.4736C10.4736 16.004 10.4736 16.2248 10.4736 16.4456C10.4736 17.3192 10.4736 18.5192 10.4352 19.076C10.3968 19.6328 10.3584 19.8248 10.3584 20.1512C10.3488 20.2568 10.416 20.3432 10.5216 20.3528C10.5504 20.3528 10.5696 20.3528 10.5984 20.3432H11.0976C11.04 19.8632 11.0112 19.3736 11.0208 18.8936C11.0208 18.3368 11.0208 17.8088 11.0208 17.2424C12.1056 18.308 13.1904 19.3064 14.2176 20.4296H14.5728C14.5728 19.6616 14.5344 18.932 14.5344 18.1544C14.5344 17.732 14.5728 17.348 14.5824 16.964C14.592 16.58 14.64 16.2728 14.64 16.0712C14.6592 15.956 14.592 15.8504 14.4768 15.8312C14.4576 15.8312 14.4384 15.8312 14.4192 15.8312ZM8.81279 15.8312H8.39039C8.45759 16.244 8.48639 16.6568 8.47679 17.0696C8.47679 17.3384 8.47679 17.828 8.47679 18.2216C8.47679 19.1432 8.19839 19.8728 7.12319 19.8728C5.88479 19.8728 5.75999 19.124 5.75999 18.068C5.75999 17.3864 5.82719 16.5704 5.82719 16.0232C5.83679 15.908 5.74079 15.812 5.63519 15.812C5.61599 15.812 5.60639 15.812 5.58719 15.812H4.90559C4.94399 16.3112 4.95359 16.6472 4.95359 17.4248C4.95359 17.7512 4.95359 18.2024 4.95359 18.5384C4.95359 19.8824 5.71199 20.42 6.99839 20.42C8.28479 20.42 8.99519 19.7672 9.05279 18.5096C9.11039 17.2616 9.15839 16.4456 9.15839 16.052C9.16799 15.9176 9.07199 15.7928 8.93759 15.7832C8.89919 15.7832 8.86079 15.7832 8.82239 15.7928V15.8312H8.81279ZM27.5712 3.9656L24.4896 3.9944C24.6528 4.2536 24.72 4.724 24.768 5.6648C24.816 6.356 24.8256 7.0568 24.8256 7.7576C24.8256 8.612 24.8256 9.4568 24.7872 10.3112C24.7872 10.7816 24.7392 11.252 24.7392 11.7128C24.7488 11.9144 24.9216 12.0584 25.1136 12.0488C25.1136 12.0488 25.1136 12.0488 25.1232 12.0488H27.4464C30.0576 12.0488 32.0064 10.6088 32.0064 7.8824C32.0064 5.156 30.1728 3.9656 27.5712 3.9656ZM27.5712 11.348H26.5728C26.3904 11.3864 26.2176 11.2616 26.1792 11.0888C26.1792 11.0696 26.1696 11.0408 26.1696 11.0216C26.1312 10.7528 26.112 10.484 26.112 10.2152C26.112 9.6872 26.0736 8.9 26.0736 8.2472C26.0736 7.0376 26.1216 5.8376 26.1696 4.628C26.4576 4.5896 26.7552 4.5608 27.0432 4.5704C29.1264 4.5704 30.5376 5.7512 30.5376 7.94C30.5856 9.8696 29.664 11.3576 27.5808 11.3576L27.5712 11.348ZM29.376 18.4136C30.0192 18.2984 30.4896 17.7416 30.5184 17.0888C30.5184 16.1192 29.6736 15.8408 28.8576 15.8408H27.7632C27.5904 15.8408 27.4176 15.8408 27.2256 15.8408C27.2928 15.9272 27.3216 16.0328 27.3312 16.148C27.3696 16.6472 27.3312 17.4152 27.3312 18.0488C27.3312 18.5096 27.3312 18.9608 27.3312 19.4024C27.3312 19.6136 27.3312 19.8344 27.3312 20.0456C27.312 20.1896 27.4176 20.324 27.5712 20.3432C27.6 20.3432 27.6384 20.3432 27.6672 20.3336H28.2624C28.1952 19.748 28.1664 19.1528 28.1856 18.5672H28.6848C29.0304 19.1336 29.376 19.652 29.7792 20.1992C30.0672 20.6408 30.5664 20.8904 31.0944 20.852H31.3344C30.6144 20.1032 29.9712 19.2872 29.4144 18.404H29.376V18.4136ZM28.3776 18.1736H28.1472V17.7224C28.1472 17.3864 28.1472 16.5608 28.1856 16.2248H28.5792C29.1552 16.1576 29.664 16.5704 29.7312 17.1464C29.7312 17.1752 29.7312 17.1944 29.7408 17.2232C29.7312 17.9624 29.0592 18.1736 28.416 18.1736H28.3776ZM16.32 10.6856L13.9104 5.1368C13.8816 4.9352 13.7088 4.7912 13.5072 4.7912H13.3536L10.5504 10.7528C10.5024 10.8392 10.4736 10.9448 10.4832 11.0504C10.4832 11.156 10.6176 11.1848 10.7136 11.1848H11.328C11.3184 11.1368 11.3184 11.0888 11.328 11.0408C11.328 10.9256 11.3568 10.8008 11.3952 10.6952L11.9712 9.236H14.3712L15.0432 10.868C15.0912 11.0504 15.264 11.1752 15.456 11.1656H16.6464C16.512 11.0408 16.416 10.8776 16.3392 10.7144L16.32 10.6856ZM12.192 8.6888L13.2288 6.3272L14.1696 8.6888H12.2208H12.192ZM21.0528 8.8712C22.272 8.5544 23.136 7.46 23.1456 6.2024C23.1456 4.5128 21.648 3.8984 20.1504 3.8984C19.2 3.8984 18.24 3.8984 17.28 3.9368C17.3952 4.2344 17.4528 4.5416 17.4432 4.8584C17.4432 6.02 17.4432 7.0664 17.4432 7.8728C17.4432 10.1096 17.3376 11.396 17.3376 11.8184C17.3376 11.9912 17.4048 12.02 17.5584 12.02H19.056C18.9888 11.8856 18.9504 11.7416 18.9504 11.588C18.8448 10.7816 18.7968 9.956 18.7968 9.14C19.1136 9.14 19.4784 9.14 19.7952 9.14C20.208 9.7928 20.7264 10.5608 21.2928 11.3288C22.176 12.4904 23.376 13.8248 24.7872 13.8248C25.1328 13.8152 25.4784 13.796 25.824 13.7576C24.1824 13.1528 22.0512 10.3688 21.072 8.9L21.0528 8.8712ZM19.5936 8.5448H18.7776V7.1624C18.7776 6.3176 18.7776 5.3576 18.8448 4.5416C19.1136 4.5128 19.392 4.4936 19.6608 4.4936C20.8512 4.4936 21.8208 5.1272 21.8208 6.4136C21.8592 7.5656 20.9568 8.5352 19.7952 8.5736C19.7376 8.5736 19.68 8.5736 19.6128 8.5736L19.5936 8.5448Z" fill="white"/>
<path d="M49.9008 23.9144H0V25.0856H49.9008V23.9144Z" fill="white"/>
</svg>
