<svg width="237" height="49" viewBox="0 0 237 49" fill="none" xmlns="http://www.w3.org/2000/svg">
<g clip-path="url(#clip0_4485_9075)">
<path d="M18.9272 22.0172V38.2734L6.31469 22.0172H0.900818V48.3817H6.73114V31.6527L19.7006 48.3817H24.7576V22.0172H18.9272Z" fill="#193E72"/>
<path d="M35.3473 22.0172H29.4575V48.3817H35.3473V22.0172Z" fill="#193E72"/>
<path d="M56.8839 22.0172V32.6576H45.9966V22.0172H40.0473V48.3817H45.9966V38.2734H56.8839V48.3817H62.7737V22.0172H56.8839Z" fill="#193E72"/>
<path d="M83.8937 37.3276C87.2848 36.6182 89.7836 34.0172 89.7836 29.7611C89.7836 25.032 86.4519 22.1946 82.2874 22.0172H67.4736V48.3817H73.3635V38.2734H77.7065L84.0127 48.3817H90.7355L83.8937 37.3276ZM80.8596 32.6576H80.5621H73.3635V29.9975V27.2783H80.5621H80.8596C82.1089 27.3374 83.9532 27.8103 83.9532 29.9384C83.9532 32.1256 82.1684 32.5985 80.8596 32.6576Z" fill="#193E72"/>
<path d="M112.688 22.0172C112.748 22.0172 112.807 22.0172 112.867 22.0763C112.926 22.0763 112.986 22.1354 112.986 22.1946C113.045 22.2537 113.105 22.3128 113.105 22.3719L118.519 29.3473C118.519 29.1699 118.459 28.9926 118.459 28.8744C118.459 28.697 118.459 28.5788 118.459 28.4014V22.0172H120.125V32.4803H119.114C118.935 32.4803 118.816 32.4803 118.757 32.4211C118.638 32.362 118.578 32.3029 118.459 32.1847L113.105 25.2093C113.105 25.3867 113.105 25.5049 113.164 25.6822C113.164 25.8596 113.164 25.9778 113.164 26.096V32.4803H111.499V22.0172H112.51C112.569 22.0172 112.629 22.0172 112.688 22.0172Z" fill="#193E72"/>
<path d="M127.859 32.4803H127.026C126.848 32.4803 126.729 32.4803 126.61 32.4212C126.491 32.3621 126.431 32.2439 126.372 32.1256L126.193 31.5936C126.015 31.771 125.836 31.8892 125.658 32.0665C125.479 32.1848 125.301 32.303 125.122 32.3621C124.944 32.4212 124.706 32.5394 124.528 32.5394C124.29 32.5985 124.052 32.5985 123.814 32.5985C123.516 32.5985 123.219 32.5394 122.981 32.4803C122.743 32.4212 122.505 32.2439 122.326 32.1256C122.148 31.9483 121.969 31.771 121.91 31.4754C121.791 31.2389 121.731 30.9434 121.731 30.5887C121.731 30.2931 121.791 30.0567 121.969 29.7611C122.088 29.4655 122.326 29.2291 122.683 28.9926C123.04 28.7562 123.457 28.5788 124.052 28.4606C124.587 28.3424 125.301 28.2242 126.134 28.2242V27.8104C126.134 27.3375 126.015 26.9237 125.836 26.6872C125.658 26.4508 125.301 26.3325 124.944 26.3325C124.647 26.3325 124.409 26.3917 124.23 26.4508C124.052 26.5099 123.873 26.569 123.754 26.6872C123.635 26.7463 123.457 26.8646 123.338 26.9237C123.219 26.9828 123.1 27.0419 122.921 27.0419C122.802 27.0419 122.683 26.9828 122.624 26.9237C122.564 26.8646 122.445 26.8054 122.445 26.6872L122.148 26.0961C122.981 25.3276 123.992 24.9138 125.182 24.9138C125.598 24.9138 126.015 24.9729 126.312 25.1503C126.669 25.2685 126.907 25.505 127.145 25.7414C127.383 25.9779 127.562 26.2734 127.681 26.6281C127.8 26.9828 127.859 27.3375 127.859 27.8104V32.4803V32.4803ZM124.409 31.3572C124.587 31.3572 124.766 31.3572 124.885 31.2981C125.063 31.2389 125.182 31.2389 125.301 31.1207C125.42 31.0616 125.539 31.0025 125.717 30.8843C125.836 30.766 125.955 30.6478 126.074 30.5296V29.2882C125.539 29.2882 125.122 29.3473 124.766 29.4064C124.409 29.4655 124.171 29.5838 123.933 29.6429C123.695 29.7611 123.576 29.8793 123.516 29.9976C123.457 30.1158 123.397 30.2931 123.397 30.4114C123.397 30.7069 123.516 30.9434 123.695 31.0616C123.873 31.2981 124.111 31.3572 124.409 31.3572Z" fill="#193E72"/>
<path d="M131.964 32.5985C131.31 32.5985 130.834 32.4212 130.477 32.0665C130.12 31.7118 129.941 31.1798 129.941 30.5887V26.4508H129.228C129.109 26.4508 129.049 26.3916 128.99 26.3325C128.93 26.2734 128.871 26.1552 128.871 26.037V25.3276L130.06 25.1503L130.417 23.1404C130.417 23.0222 130.477 22.9631 130.536 22.904C130.596 22.8448 130.715 22.8448 130.774 22.8448H131.667V25.1503H133.571V26.3916H131.786V30.4114C131.786 30.6478 131.845 30.8251 131.964 30.9434C132.083 31.0616 132.202 31.1207 132.44 31.1207C132.559 31.1207 132.619 31.1207 132.738 31.0616C132.797 31.0616 132.857 31.0025 132.916 31.0025C132.976 31.0025 133.035 30.9434 133.035 30.9434C133.095 30.9434 133.095 30.8843 133.154 30.8843C133.214 30.8843 133.273 30.8843 133.273 30.9434C133.333 30.9434 133.333 31.0025 133.392 31.0616L133.927 31.9483C133.69 32.1848 133.392 32.303 133.035 32.4212C132.678 32.5394 132.321 32.5985 131.964 32.5985Z" fill="#193E72"/>
<path d="M137.2 22.9039C137.2 23.0813 137.14 23.1995 137.081 23.3177C137.021 23.436 136.962 23.5542 136.843 23.6724C136.724 23.7906 136.605 23.8498 136.486 23.9089C136.367 23.968 136.188 24.0271 136.069 24.0271C135.891 24.0271 135.772 23.968 135.653 23.9089C135.534 23.8498 135.415 23.7906 135.296 23.6724C135.177 23.5542 135.117 23.436 135.058 23.3177C134.998 23.1995 134.939 23.0222 134.939 22.9039C134.939 22.7266 134.998 22.6084 135.058 22.431C135.117 22.3128 135.177 22.1946 135.296 22.0764C135.415 21.9581 135.534 21.899 135.653 21.8399C135.772 21.7808 135.95 21.7217 136.069 21.7217C136.248 21.7217 136.367 21.7808 136.486 21.8399C136.605 21.899 136.724 21.9581 136.843 22.0764C136.962 22.1946 137.021 22.3128 137.081 22.431C137.2 22.6084 137.2 22.7266 137.2 22.9039ZM136.962 32.4803H135.177V25.032H136.962V32.4803Z" fill="#193E72"/>
<path d="M142.078 24.9138C142.613 24.9138 143.089 25.032 143.565 25.2094C143.982 25.3867 144.398 25.6232 144.696 25.9779C144.993 26.3325 145.231 26.6872 145.41 27.1601C145.588 27.633 145.648 28.1651 145.648 28.7562C145.648 29.3473 145.588 29.8793 145.41 30.3522C145.231 30.8251 144.993 31.2389 144.696 31.5345C144.398 31.8892 143.982 32.1256 143.565 32.303C143.149 32.4803 142.613 32.5985 142.078 32.5985C141.543 32.5985 141.007 32.4803 140.591 32.303C140.174 32.1256 139.758 31.8892 139.46 31.5345C139.163 31.1798 138.925 30.8251 138.746 30.3522C138.568 29.8793 138.508 29.3473 138.508 28.7562C138.508 28.1651 138.568 27.633 138.746 27.1601C138.925 26.6872 139.163 26.2734 139.46 25.9779C139.758 25.6232 140.174 25.3867 140.591 25.2094C141.007 25.032 141.543 24.9138 142.078 24.9138ZM142.078 31.1798C142.673 31.1798 143.149 31.0025 143.446 30.5887C143.744 30.1749 143.863 29.5838 143.863 28.7562C143.863 27.9286 143.744 27.3375 143.446 26.9237C143.149 26.5099 142.732 26.2734 142.078 26.2734C141.483 26.2734 141.007 26.5099 140.71 26.9237C140.412 27.3375 140.293 27.9286 140.293 28.7562C140.293 29.5247 140.412 30.1749 140.71 30.5887C141.007 31.0025 141.424 31.1798 142.078 31.1798Z" fill="#193E72"/>
<path d="M147.075 32.4803V25.032H148.146C148.384 25.032 148.503 25.1502 148.622 25.3276L148.741 25.9187C148.86 25.7414 149.039 25.6231 149.217 25.5049C149.396 25.3867 149.574 25.2685 149.753 25.1502C149.931 25.032 150.11 24.9729 150.348 24.9138C150.586 24.8547 150.764 24.8547 151.002 24.8547C151.418 24.8547 151.775 24.9138 152.073 25.032C152.37 25.1502 152.668 25.3867 152.846 25.6231C153.025 25.8596 153.203 26.1552 153.322 26.5098C153.441 26.8645 153.501 27.2192 153.501 27.633V32.3621H151.716V27.633C151.716 27.1601 151.597 26.8054 151.418 26.569C151.24 26.3325 150.883 26.2143 150.467 26.2143C150.169 26.2143 149.872 26.2734 149.634 26.4507C149.396 26.569 149.098 26.8054 148.86 27.0419V32.4212H147.075V32.4803Z" fill="#193E72"/>
<path d="M160.878 32.4803H160.104C159.926 32.4803 159.807 32.4803 159.688 32.4212C159.569 32.3621 159.51 32.2439 159.45 32.1256L159.272 31.5936C159.093 31.771 158.915 31.8892 158.736 32.0665C158.558 32.1848 158.379 32.303 158.201 32.3621C158.022 32.4212 157.784 32.5394 157.606 32.5394C157.368 32.5985 157.13 32.5985 156.892 32.5985C156.594 32.5985 156.297 32.5394 156.059 32.4803C155.821 32.4212 155.583 32.2439 155.405 32.1256C155.226 31.9483 155.048 31.771 154.988 31.4754C154.869 31.2389 154.81 30.9434 154.81 30.5887C154.81 30.2931 154.869 30.0567 155.048 29.7611C155.167 29.4655 155.404 29.2291 155.761 28.9926C156.118 28.7562 156.535 28.5788 157.13 28.4606C157.665 28.3424 158.379 28.2242 159.212 28.2242V27.8104C159.212 27.3375 159.093 26.9237 158.915 26.6872C158.736 26.4508 158.379 26.3325 158.022 26.3325C157.725 26.3325 157.487 26.3917 157.308 26.4508C157.13 26.5099 156.951 26.569 156.832 26.6872C156.713 26.7463 156.535 26.8646 156.416 26.9237C156.297 26.9828 156.178 27.0419 155.999 27.0419C155.88 27.0419 155.761 26.9828 155.702 26.9237C155.642 26.8646 155.523 26.8054 155.523 26.6872L155.226 26.0961C156.059 25.3276 157.07 24.9138 158.26 24.9138C158.677 24.9138 159.093 24.9729 159.391 25.1503C159.747 25.2685 159.985 25.505 160.223 25.7414C160.461 25.9779 160.64 26.2734 160.759 26.6281C160.878 26.9828 160.937 27.3375 160.937 27.8104V32.4803H160.878ZM157.427 31.3572C157.606 31.3572 157.784 31.3572 157.903 31.2981C158.082 31.2389 158.201 31.2389 158.32 31.1207C158.439 31.0616 158.558 31.0025 158.736 30.8843C158.855 30.766 158.974 30.6478 159.093 30.5296V29.2882C158.558 29.2882 158.141 29.3473 157.784 29.4064C157.427 29.4655 157.189 29.5838 156.951 29.6429C156.713 29.7611 156.594 29.8793 156.535 29.9976C156.475 30.1158 156.416 30.2931 156.416 30.4114C156.416 30.7069 156.535 30.9434 156.713 31.0616C156.892 31.2981 157.13 31.3572 157.427 31.3572Z" fill="#193E72"/>
<path d="M164.507 21.7217H162.722V32.4212H164.507V21.7217Z" fill="#193E72"/>
<path d="M171.468 22.0172H169.564V32.4803H171.468V22.0172Z" fill="#193E72"/>
<path d="M173.669 32.4803V25.032H174.74C174.978 25.032 175.097 25.1502 175.216 25.3276L175.335 25.9187C175.454 25.7414 175.632 25.6231 175.811 25.5049C175.989 25.3867 176.168 25.2685 176.346 25.1502C176.525 25.032 176.703 24.9729 176.941 24.9138C177.179 24.8547 177.357 24.8547 177.595 24.8547C178.012 24.8547 178.369 24.9138 178.666 25.032C178.964 25.1502 179.261 25.3867 179.44 25.6231C179.618 25.8596 179.797 26.1552 179.916 26.5098C180.035 26.8645 180.094 27.2192 180.094 27.633V32.3621H178.309V27.633C178.309 27.1601 178.19 26.8054 178.012 26.569C177.833 26.3325 177.476 26.2143 177.06 26.2143C176.763 26.2143 176.465 26.2734 176.227 26.4507C175.989 26.569 175.692 26.8054 175.454 27.0419V32.4212H173.669V32.4803Z" fill="#193E72"/>
<path d="M186.103 26.5099C186.043 26.569 185.984 26.6281 185.924 26.6872C185.865 26.7463 185.805 26.7463 185.746 26.7463C185.687 26.7463 185.568 26.7463 185.449 26.6872C185.33 26.6281 185.211 26.569 185.092 26.5099C184.973 26.4508 184.794 26.3917 184.675 26.3325C184.497 26.2734 184.318 26.2734 184.08 26.2734C183.723 26.2734 183.485 26.3325 183.247 26.5099C183.069 26.6872 182.95 26.8646 182.95 27.101C182.95 27.2783 183.009 27.3966 183.128 27.5148C183.247 27.633 183.366 27.6921 183.545 27.8104C183.723 27.8695 183.902 27.9877 184.14 28.0468C184.378 28.1059 184.556 28.165 184.794 28.2833C185.032 28.3424 185.211 28.4606 185.449 28.5197C185.687 28.638 185.865 28.7562 186.043 28.8744C186.222 29.0517 186.341 29.2291 186.46 29.4064C186.579 29.6429 186.638 29.8793 186.638 30.1749C186.638 30.5296 186.579 30.8843 186.46 31.1798C186.341 31.4754 186.162 31.7118 185.924 31.9483C185.686 32.1848 185.389 32.3621 185.032 32.4803C184.675 32.5985 184.259 32.6577 183.783 32.6577C183.545 32.6577 183.307 32.6577 183.069 32.5985C182.831 32.5394 182.593 32.4803 182.355 32.4212C182.117 32.3621 181.938 32.2439 181.76 32.1256C181.581 32.0074 181.403 31.8892 181.284 31.771L181.7 31.1207C181.76 31.0616 181.819 31.0025 181.879 30.9434C181.938 30.8843 182.057 30.8843 182.176 30.8843C182.295 30.8843 182.414 30.9434 182.474 31.0025C182.593 31.0616 182.712 31.1207 182.831 31.1798C182.95 31.2389 183.128 31.2981 183.307 31.3572C183.485 31.4163 183.723 31.4754 183.961 31.4754C184.199 31.4754 184.378 31.4754 184.497 31.4163C184.675 31.3572 184.794 31.2981 184.854 31.2389C184.973 31.1798 185.032 31.0616 185.092 30.9434C185.151 30.8251 185.151 30.7069 185.151 30.5887C185.151 30.4114 185.092 30.2931 184.973 30.1749C184.854 30.0567 184.735 29.9384 184.556 29.8793C184.378 29.8202 184.199 29.702 183.961 29.6429C183.723 29.5838 183.545 29.5247 183.307 29.4064C183.069 29.3473 182.89 29.2291 182.652 29.1109C182.414 28.9926 182.236 28.8744 182.057 28.6971C181.879 28.5197 181.76 28.3424 181.641 28.1059C181.522 27.8695 181.462 27.5739 181.462 27.2783C181.462 26.9828 181.522 26.6872 181.641 26.3916C181.76 26.0961 181.938 25.8596 182.176 25.6823C182.414 25.5049 182.712 25.3276 183.009 25.2094C183.366 25.0912 183.723 25.032 184.199 25.032C184.675 25.032 185.151 25.0912 185.568 25.2685C185.984 25.4458 186.341 25.6823 186.579 25.9187L186.103 26.5099Z" fill="#193E72"/>
<path d="M190.386 32.5985C189.732 32.5985 189.256 32.4212 188.899 32.0665C188.542 31.7118 188.364 31.1798 188.364 30.5887V26.4508H187.709C187.59 26.4508 187.531 26.3916 187.471 26.3325C187.412 26.2734 187.352 26.1552 187.352 26.037V25.3276L188.542 25.1503L188.899 23.1404C188.899 23.0222 188.959 22.9631 189.018 22.904C189.078 22.8448 189.197 22.8448 189.256 22.8448H190.148V25.1503H192.052V26.3916H190.148V30.4114C190.148 30.6478 190.208 30.8251 190.327 30.9434C190.446 31.0616 190.565 31.1207 190.803 31.1207C190.922 31.1207 190.981 31.1207 191.1 31.0616C191.16 31.0616 191.219 31.0025 191.279 31.0025C191.338 31.0025 191.398 30.9434 191.398 30.9434C191.457 30.9434 191.457 30.8843 191.517 30.8843C191.576 30.8843 191.636 30.8843 191.636 30.9434C191.695 30.9434 191.695 31.0025 191.755 31.0616L192.29 31.9483C192.052 32.1848 191.755 32.303 191.398 32.4212C191.1 32.5394 190.743 32.5985 190.386 32.5985Z" fill="#193E72"/>
<path d="M195.622 22.9039C195.622 23.0813 195.562 23.1995 195.503 23.3177C195.443 23.436 195.384 23.5542 195.265 23.6724C195.146 23.7906 195.027 23.8498 194.908 23.9089C194.789 23.968 194.61 24.0271 194.491 24.0271C194.313 24.0271 194.194 23.968 194.075 23.9089C193.956 23.8498 193.837 23.7906 193.718 23.6724C193.599 23.5542 193.54 23.436 193.48 23.3177C193.421 23.1995 193.361 23.0222 193.361 22.9039C193.361 22.7266 193.421 22.6084 193.48 22.431C193.54 22.3128 193.599 22.1946 193.718 22.0764C193.837 21.9581 193.956 21.899 194.075 21.8399C194.194 21.7808 194.373 21.7217 194.491 21.7217C194.67 21.7217 194.789 21.7808 194.908 21.8399C195.027 21.899 195.146 21.9581 195.265 22.0764C195.384 22.1946 195.443 22.3128 195.503 22.431C195.622 22.6084 195.622 22.7266 195.622 22.9039ZM195.384 32.4803H193.599V25.032H195.384V32.4803Z" fill="#193E72"/>
<path d="M199.786 32.5985C199.132 32.5985 198.656 32.4212 198.299 32.0665C197.942 31.7118 197.764 31.1798 197.764 30.5887V26.4508H197.05C196.931 26.4508 196.871 26.3916 196.812 26.3325C196.752 26.2734 196.693 26.1552 196.693 26.037V25.3276L197.883 25.1503L198.24 23.1404C198.24 23.0222 198.299 22.9631 198.359 22.904C198.418 22.8448 198.537 22.8448 198.596 22.8448H199.489V25.1503H201.393V26.3916H199.489V30.4114C199.489 30.6478 199.548 30.8251 199.667 30.9434C199.786 31.0616 199.905 31.1207 200.143 31.1207C200.262 31.1207 200.322 31.1207 200.441 31.0616C200.5 31.0616 200.56 31.0025 200.619 31.0025C200.679 31.0025 200.738 30.9434 200.738 30.9434C200.798 30.9434 200.798 30.8843 200.857 30.8843C200.917 30.8843 200.976 30.8843 200.976 30.9434C201.036 30.9434 201.036 31.0025 201.095 31.0616L201.631 31.9483C201.393 32.1848 201.095 32.303 200.738 32.4212C200.5 32.5394 200.143 32.5985 199.786 32.5985Z" fill="#193E72"/>
<path d="M204.486 25.032V29.7611C204.486 30.234 204.605 30.5887 204.784 30.8251C204.962 31.0616 205.319 31.1798 205.736 31.1798C206.033 31.1798 206.331 31.1207 206.569 31.0025C206.807 30.8842 207.104 30.6478 207.342 30.4113V25.032H209.127V32.4212H208.056C207.818 32.4212 207.699 32.3029 207.58 32.0665L207.461 31.4754C207.283 31.6527 207.164 31.7709 206.985 31.8891C206.807 32.0074 206.628 32.1256 206.45 32.1847C206.271 32.3029 206.093 32.3621 205.855 32.4212C205.617 32.4803 205.438 32.4803 205.2 32.4803C204.784 32.4803 204.427 32.4212 204.129 32.3029C203.832 32.1847 203.594 31.9483 203.356 31.7118C203.118 31.4754 202.999 31.1798 202.88 30.8251C202.761 30.4704 202.702 30.1158 202.702 29.702V24.9729H204.486V25.032Z" fill="#193E72"/>
<path d="M213.41 32.5985C212.756 32.5985 212.28 32.4212 211.923 32.0665C211.566 31.7118 211.388 31.1798 211.388 30.5887V26.4508H210.674C210.555 26.4508 210.495 26.3916 210.436 26.3325C210.376 26.2734 210.317 26.1552 210.317 26.037V25.3276L211.507 25.1503L211.863 23.1404C211.863 23.0222 211.923 22.9631 211.982 22.904C212.042 22.8448 212.161 22.8448 212.22 22.8448H213.113V25.1503H215.017V26.3916H213.113V30.4114C213.113 30.6478 213.172 30.8251 213.291 30.9434C213.41 31.0616 213.529 31.1207 213.767 31.1207C213.886 31.1207 213.946 31.1207 214.065 31.0616C214.124 31.0616 214.184 31.0025 214.243 31.0025C214.303 31.0025 214.362 30.9434 214.362 30.9434C214.422 30.9434 214.422 30.8843 214.481 30.8843C214.541 30.8843 214.6 30.8843 214.6 30.9434C214.66 30.9434 214.66 31.0025 214.719 31.0616L215.255 31.9483C215.017 32.1848 214.719 32.303 214.362 32.4212C214.065 32.5394 213.767 32.5985 213.41 32.5985Z" fill="#193E72"/>
<path d="M219.538 24.9138C220.014 24.9138 220.431 24.9729 220.787 25.1503C221.204 25.3276 221.501 25.505 221.799 25.8005C222.096 26.0961 222.275 26.4508 222.453 26.8646C222.632 27.2784 222.691 27.7513 222.691 28.2833C222.691 28.4015 222.691 28.5197 222.691 28.638C222.691 28.7562 222.632 28.8153 222.632 28.8744C222.572 28.9335 222.572 28.9335 222.513 28.9926C222.453 28.9926 222.394 29.0518 222.334 29.0518H217.813C217.872 29.8202 218.051 30.3522 218.408 30.7069C218.765 31.0616 219.241 31.2389 219.776 31.2389C220.074 31.2389 220.312 31.1798 220.49 31.1207C220.668 31.0616 220.906 31.0025 221.025 30.8843C221.204 30.8252 221.323 30.7069 221.442 30.6478C221.561 30.5887 221.68 30.5296 221.799 30.5296C221.858 30.5296 221.918 30.5296 221.977 30.5887C222.037 30.6478 222.096 30.6478 222.096 30.7069L222.632 31.3572C222.453 31.5936 222.215 31.771 221.977 31.9483C221.739 32.1256 221.501 32.2439 221.204 32.303C220.966 32.4212 220.668 32.4803 220.371 32.4803C220.074 32.5394 219.836 32.5394 219.598 32.5394C219.062 32.5394 218.646 32.4803 218.17 32.303C217.753 32.1256 217.337 31.8892 217.039 31.5345C216.742 31.1798 216.444 30.766 216.266 30.2931C216.087 29.8202 215.968 29.2291 215.968 28.5788C215.968 28.0468 216.028 27.5739 216.206 27.1601C216.385 26.6872 216.623 26.3325 216.92 25.9779C217.218 25.6232 217.575 25.3867 218.051 25.2094C218.467 25.032 218.943 24.9138 219.538 24.9138ZM219.538 26.2143C219.003 26.2143 218.646 26.3325 218.348 26.6281C218.051 26.9237 217.872 27.3375 217.813 27.8695H221.144C221.144 27.633 221.085 27.3966 221.025 27.2192C220.966 27.0419 220.847 26.8646 220.728 26.6872C220.609 26.5099 220.431 26.3917 220.252 26.3325C220.014 26.2734 219.836 26.2143 219.538 26.2143Z" fill="#193E72"/>
<path d="M111.677 48.3818V42.2931L111.023 42.1749C110.904 42.1749 110.785 42.1158 110.666 42.0566C110.606 41.9975 110.547 41.8793 110.547 41.7611V41.0517H111.618V40.5197C111.618 40.1059 111.677 39.6921 111.796 39.3965C111.915 39.0419 112.093 38.7463 112.331 38.5098C112.569 38.2734 112.867 38.096 113.164 37.9778C113.521 37.8596 113.878 37.8005 114.295 37.8005C114.652 37.8005 114.949 37.8596 115.247 37.9187L115.187 38.8054C115.187 38.9236 115.128 39.0419 115.009 39.0419C114.89 39.101 114.771 39.101 114.592 39.101C114.414 39.101 114.176 39.101 114.057 39.1601C113.878 39.2192 113.759 39.2783 113.64 39.3965C113.521 39.5148 113.462 39.633 113.402 39.8694C113.343 40.0468 113.343 40.2832 113.343 40.5788V41.0517H115.247V42.2931H113.402V48.3818H111.677Z" fill="#193E72"/>
<path d="M119.471 40.8744C120.006 40.8744 120.482 40.9926 120.958 41.17C121.374 41.3473 121.791 41.5837 122.088 41.9384C122.386 42.2931 122.624 42.6478 122.802 43.1207C122.981 43.5936 123.04 44.1256 123.04 44.7168C123.04 45.3079 122.981 45.8399 122.802 46.3128C122.624 46.7857 122.386 47.1995 122.088 47.4951C121.791 47.8498 121.374 48.0862 120.958 48.2636C120.541 48.4409 120.006 48.5591 119.471 48.5591C118.935 48.5591 118.4 48.4409 117.983 48.2636C117.567 48.0862 117.15 47.8498 116.853 47.4951C116.555 47.1404 116.317 46.7857 116.139 46.3128C115.961 45.8399 115.901 45.3079 115.901 44.7168C115.901 44.1256 115.961 43.5936 116.139 43.1207C116.317 42.6478 116.555 42.234 116.853 41.9384C117.15 41.5837 117.567 41.3473 117.983 41.17C118.4 40.9926 118.935 40.8744 119.471 40.8744ZM119.471 47.1404C120.066 47.1404 120.541 46.9631 120.839 46.5493C121.136 46.1355 121.255 45.5443 121.255 44.7168C121.255 43.8892 121.136 43.298 120.839 42.8842C120.541 42.4704 120.125 42.234 119.471 42.234C118.876 42.234 118.4 42.4704 118.102 42.8842C117.805 43.298 117.686 43.8892 117.686 44.7168C117.686 45.4852 117.805 46.1355 118.102 46.5493C118.4 46.9039 118.876 47.1404 119.471 47.1404Z" fill="#193E72"/>
<path d="M124.468 48.3818V40.9926H125.479C125.658 40.9926 125.777 41.0517 125.836 41.1108C125.896 41.17 125.955 41.2882 125.955 41.4655L126.074 42.3522C126.312 41.8793 126.669 41.5246 126.967 41.2882C127.324 41.0517 127.74 40.8744 128.157 40.8744C128.514 40.8744 128.811 40.9335 129.049 41.1108L128.811 42.4704C128.811 42.5296 128.752 42.5887 128.692 42.6478C128.633 42.7069 128.573 42.7069 128.514 42.7069C128.454 42.7069 128.335 42.7069 128.216 42.6478C128.097 42.5887 127.919 42.5887 127.74 42.5887C127.383 42.5887 127.086 42.7069 126.788 42.8842C126.55 43.0616 126.312 43.4163 126.134 43.7709V48.3818H124.468Z" fill="#193E72"/>
<path d="M139.877 37.9187V42.4113H135.058V37.9187H133.095V48.3818H135.058V43.83H139.877V48.3818H141.781V37.9187H139.877Z" fill="#193E72"/>
<path d="M146.778 40.8744C147.254 40.8744 147.67 40.9335 148.027 41.1108C148.444 41.2882 148.741 41.4655 149.039 41.7611C149.336 42.0567 149.515 42.4113 149.693 42.8251C149.872 43.2389 149.931 43.7118 149.931 44.2438C149.931 44.3621 149.931 44.4803 149.931 44.5985C149.931 44.7168 149.872 44.7759 149.872 44.835C149.812 44.8941 149.812 44.8941 149.753 44.9532C149.693 44.9532 149.634 45.0123 149.574 45.0123H145.053C145.112 45.7808 145.291 46.3128 145.648 46.6675C146.005 47.0222 146.481 47.1995 147.016 47.1995C147.313 47.1995 147.551 47.1404 147.73 47.0813C147.908 47.0222 148.146 46.9631 148.265 46.8448C148.444 46.7857 148.563 46.6675 148.682 46.6084C148.801 46.5493 148.92 46.4902 149.039 46.4902C149.098 46.4902 149.158 46.4902 149.217 46.5493C149.277 46.6084 149.336 46.6084 149.336 46.6675L149.872 47.3177C149.693 47.5542 149.455 47.7315 149.217 47.9089C148.979 48.0862 148.741 48.2044 148.444 48.2636C148.206 48.3818 147.908 48.4409 147.611 48.4409C147.313 48.5 147.075 48.5 146.837 48.5C146.302 48.5 145.886 48.4409 145.41 48.2636C144.993 48.0862 144.577 47.8498 144.279 47.4951C143.982 47.1404 143.684 46.7266 143.506 46.2537C143.327 45.7808 143.208 45.1897 143.208 44.5394C143.208 44.0074 143.268 43.5345 143.446 43.1207C143.625 42.6478 143.863 42.2931 144.16 41.9384C144.458 41.5837 144.815 41.3473 145.291 41.17C145.767 40.9335 146.243 40.8744 146.778 40.8744ZM146.837 42.1158C146.302 42.1158 145.945 42.234 145.648 42.5296C145.35 42.8251 145.172 43.2389 145.112 43.7709H148.444C148.444 43.5345 148.384 43.298 148.325 43.1207C148.265 42.9434 148.146 42.766 148.027 42.5887C147.908 42.4113 147.73 42.2931 147.551 42.234C147.313 42.1749 147.075 42.1158 146.837 42.1158Z" fill="#193E72"/>
<path d="M157.13 48.3818H156.356C156.178 48.3818 156.059 48.3818 155.94 48.3226C155.821 48.2635 155.761 48.1453 155.702 48.0271L155.523 47.4951C155.345 47.6724 155.167 47.7906 154.988 47.968C154.81 48.0862 154.631 48.2044 154.453 48.2635C154.274 48.3226 154.036 48.4409 153.858 48.4409C153.62 48.5 153.382 48.5 153.144 48.5C152.846 48.5 152.549 48.4409 152.311 48.3818C152.073 48.3226 151.835 48.1453 151.656 48.0271C151.478 47.8497 151.299 47.6724 151.24 47.3768C151.121 47.1404 151.061 46.8448 151.061 46.4901C151.061 46.1946 151.121 45.9581 151.299 45.6625C151.418 45.367 151.656 45.1305 152.013 44.8941C152.37 44.6576 152.787 44.4803 153.382 44.362C153.917 44.2438 154.631 44.1256 155.464 44.1256V43.7118C155.464 43.2389 155.345 42.8251 155.167 42.5886C154.988 42.3522 154.631 42.234 154.274 42.234C153.977 42.234 153.739 42.2931 153.56 42.3522C153.382 42.4113 153.203 42.4704 153.084 42.5886C152.965 42.6478 152.787 42.766 152.668 42.8251C152.549 42.8842 152.43 42.9433 152.251 42.9433C152.132 42.9433 152.013 42.8842 151.954 42.8251C151.894 42.766 151.775 42.7069 151.775 42.5886L151.478 41.9975C152.311 41.229 153.322 40.8152 154.512 40.8152C154.929 40.8152 155.345 40.8744 155.642 41.0517C155.999 41.1699 156.237 41.4064 156.475 41.6428C156.713 41.8793 156.892 42.1749 157.011 42.5295C157.13 42.8842 157.189 43.2389 157.189 43.7118V48.3818H157.13ZM153.679 47.2586C153.858 47.2586 154.036 47.2586 154.155 47.1995C154.334 47.1404 154.453 47.1404 154.572 47.0221C154.691 46.963 154.81 46.9039 154.988 46.7857C155.107 46.6675 155.226 46.5492 155.345 46.431V45.1896C154.81 45.1896 154.393 45.2488 154.036 45.3079C153.679 45.367 153.441 45.4852 153.203 45.5443C152.965 45.6625 152.846 45.7808 152.787 45.899C152.727 46.0172 152.668 46.1946 152.668 46.3128C152.668 46.6084 152.787 46.8448 152.965 46.963C153.144 47.1995 153.382 47.2586 153.679 47.2586Z" fill="#193E72"/>
<path d="M160.759 37.6823H158.974V48.3818H160.759V37.6823Z" fill="#193E72"/>
<path d="M165.102 48.5C164.447 48.5 163.972 48.3227 163.615 47.968C163.258 47.6133 163.079 47.0813 163.079 46.4902V42.3523H162.365C162.246 42.3523 162.187 42.2931 162.127 42.234C162.068 42.1749 162.008 42.0567 162.008 41.9385V41.2291L163.198 41.0518L163.555 39.0419C163.555 38.9237 163.615 38.8646 163.674 38.8055C163.734 38.7463 163.853 38.7463 163.912 38.7463H164.804V41.0518H166.708V42.2931H164.804V46.3128C164.804 46.5493 164.864 46.7266 164.983 46.8449C165.102 46.9631 165.221 47.0222 165.459 47.0222C165.578 47.0222 165.637 47.0222 165.756 46.9631C165.816 46.9631 165.875 46.904 165.935 46.904C165.994 46.904 166.054 46.8449 166.054 46.8449C166.113 46.8449 166.113 46.7857 166.173 46.7857C166.232 46.7857 166.292 46.7857 166.292 46.8449C166.351 46.8449 166.351 46.904 166.411 46.9631L166.946 47.8498C166.708 48.0862 166.411 48.2045 166.054 48.3227C165.816 48.4409 165.459 48.5 165.102 48.5Z" fill="#193E72"/>
<path d="M168.195 48.3818V37.6823H169.98V41.8202C170.278 41.5246 170.575 41.3473 170.932 41.1699C171.289 40.9926 171.646 40.9335 172.122 40.9335C172.538 40.9335 172.895 40.9926 173.193 41.1108C173.49 41.229 173.788 41.4655 173.966 41.702C174.145 41.9384 174.323 42.234 174.442 42.5887C174.561 42.9433 174.621 43.298 174.621 43.7118V48.4409H172.836V43.7118C172.836 43.2389 172.717 42.8842 172.539 42.6478C172.36 42.4113 172.003 42.2931 171.587 42.2931C171.289 42.2931 170.992 42.3522 170.754 42.5295C170.516 42.6478 170.218 42.8842 169.98 43.1207V48.3818H168.195Z" fill="#193E72"/>
<path d="M181.165 44.3029V48.3818H179.261V37.9187H182.414C183.128 37.9187 183.723 37.9778 184.199 38.1552C184.675 38.2734 185.092 38.5098 185.449 38.7463C185.746 39.0419 185.984 39.3374 186.162 39.6921C186.281 40.0468 186.4 40.4606 186.4 40.9335C186.4 41.2882 186.341 41.6428 186.222 41.9384C186.103 42.234 185.984 42.5295 185.805 42.766C185.627 43.0024 185.389 43.2389 185.092 43.4162C184.794 43.5936 184.497 43.7709 184.14 43.8891C184.378 44.0074 184.616 44.2438 184.794 44.4803L187.352 48.3226H185.627C185.449 48.3226 185.33 48.2635 185.211 48.2044C185.092 48.1453 184.973 48.0271 184.913 47.9088L182.771 44.5394C182.712 44.4212 182.593 44.3029 182.533 44.2438C182.414 44.1847 182.295 44.1847 182.117 44.1847H181.165V44.3029ZM181.165 42.8842H182.355C182.712 42.8842 183.009 42.8251 183.307 42.766C183.604 42.6478 183.783 42.5295 183.961 42.4113C184.14 42.234 184.259 42.0566 184.378 41.8202C184.437 41.5837 184.497 41.3473 184.497 41.1108C184.497 40.5788 184.318 40.165 183.961 39.8694C183.604 39.5739 183.069 39.4556 182.414 39.4556H181.165V42.8842Z" fill="#193E72"/>
<path d="M191.398 40.8744C191.874 40.8744 192.29 40.9335 192.647 41.1108C193.064 41.2882 193.361 41.4655 193.659 41.7611C193.956 42.0567 194.135 42.4113 194.313 42.8251C194.491 43.2389 194.551 43.7118 194.551 44.2438C194.551 44.3621 194.551 44.4803 194.551 44.5985C194.551 44.7168 194.491 44.7759 194.491 44.835C194.432 44.8941 194.432 44.8941 194.372 44.9532C194.313 44.9532 194.253 45.0123 194.194 45.0123H189.673C189.732 45.7808 189.91 46.3128 190.267 46.6675C190.624 47.0222 191.1 47.1995 191.636 47.1995C191.933 47.1995 192.171 47.1404 192.35 47.0813C192.528 47.0222 192.766 46.9631 192.885 46.8448C193.064 46.7857 193.183 46.6675 193.302 46.6084C193.421 46.5493 193.54 46.4902 193.659 46.4902C193.718 46.4902 193.778 46.4902 193.837 46.5493C193.897 46.6084 193.956 46.6084 193.956 46.6675L194.491 47.3177C194.313 47.5542 194.075 47.7315 193.837 47.9089C193.599 48.0862 193.361 48.2044 193.064 48.2636C192.826 48.3818 192.528 48.4409 192.231 48.4409C191.933 48.5 191.695 48.5 191.457 48.5C190.922 48.5 190.505 48.4409 190.029 48.2636C189.613 48.0862 189.197 47.8498 188.899 47.4951C188.602 47.1404 188.304 46.7266 188.126 46.2537C187.947 45.7808 187.828 45.1897 187.828 44.5394C187.828 44.0074 187.888 43.5345 188.066 43.1207C188.245 42.6478 188.483 42.2931 188.78 41.9384C189.078 41.5837 189.435 41.3473 189.911 41.17C190.386 40.9335 190.862 40.8744 191.398 40.8744ZM191.457 42.1158C190.922 42.1158 190.565 42.234 190.267 42.5296C189.97 42.8251 189.792 43.2389 189.732 43.7709H193.064C193.064 43.5345 193.004 43.298 192.945 43.1207C192.885 42.9434 192.766 42.766 192.647 42.5887C192.528 42.4113 192.35 42.2931 192.171 42.234C191.933 42.1749 191.695 42.1158 191.457 42.1158Z" fill="#193E72"/>
<path d="M200.322 42.4113C200.262 42.4704 200.203 42.5295 200.143 42.5886C200.084 42.6478 200.024 42.6478 199.965 42.6478C199.905 42.6478 199.786 42.6478 199.667 42.5886C199.548 42.5295 199.429 42.4704 199.31 42.4113C199.191 42.3522 199.013 42.2931 198.894 42.234C198.715 42.1748 198.537 42.1749 198.299 42.1749C197.942 42.1749 197.704 42.234 197.466 42.4113C197.288 42.5886 197.169 42.766 197.169 43.0024C197.169 43.1798 197.228 43.298 197.347 43.4162C197.466 43.5345 197.585 43.5936 197.764 43.7118C197.942 43.7709 198.121 43.8891 198.359 43.9482C198.596 44.0074 198.775 44.0665 199.013 44.1847C199.251 44.2438 199.429 44.362 199.667 44.4212C199.905 44.5394 200.084 44.6576 200.262 44.7758C200.441 44.9532 200.56 45.1305 200.679 45.3079C200.798 45.5443 200.857 45.7808 200.857 46.0763C200.857 46.431 200.798 46.7857 200.679 47.0813C200.56 47.3768 200.381 47.6133 200.143 47.8497C199.905 48.0862 199.608 48.2635 199.251 48.3817C198.894 48.5 198.478 48.5591 198.002 48.5591C197.764 48.5591 197.526 48.5591 197.288 48.5C197.05 48.4409 196.812 48.3817 196.574 48.3226C196.336 48.2635 196.157 48.1453 195.979 48.0271C195.8 47.9088 195.622 47.7906 195.503 47.6724L195.919 47.0221C195.979 46.963 196.038 46.9039 196.098 46.8448C196.157 46.7857 196.276 46.7857 196.395 46.7857C196.514 46.7857 196.633 46.8448 196.693 46.9039C196.812 46.963 196.931 47.0221 197.05 47.0813C197.169 47.1404 197.347 47.1995 197.526 47.2586C197.704 47.3177 197.942 47.3768 198.18 47.3768C198.418 47.3768 198.597 47.3768 198.715 47.3177C198.834 47.2586 199.013 47.1995 199.072 47.1404C199.191 47.0813 199.251 46.963 199.31 46.8448C199.37 46.7266 199.37 46.6084 199.37 46.4901C199.37 46.3128 199.31 46.1946 199.191 46.0763C199.072 45.9581 198.953 45.8399 198.775 45.7808C198.597 45.7216 198.418 45.6034 198.18 45.5443C197.942 45.4852 197.764 45.4261 197.526 45.3079C197.288 45.2487 197.109 45.1305 196.871 45.0123C196.633 44.8941 196.455 44.7758 196.276 44.5985C196.098 44.4212 195.979 44.2438 195.86 44.0074C195.741 43.7709 195.681 43.4753 195.681 43.1798C195.681 42.8842 195.741 42.5886 195.86 42.2931C195.979 41.9975 196.157 41.7611 196.395 41.5837C196.633 41.4064 196.931 41.229 197.228 41.1108C197.585 40.9926 197.942 40.9335 198.418 40.9335C198.894 40.9335 199.37 40.9926 199.786 41.1699C200.203 41.3473 200.56 41.5837 200.798 41.8202L200.322 42.4113Z" fill="#193E72"/>
<path d="M205.26 40.8744C205.736 40.8744 206.152 40.9335 206.509 41.1108C206.926 41.2882 207.223 41.4655 207.52 41.7611C207.818 42.0567 207.996 42.4113 208.175 42.8251C208.353 43.2389 208.413 43.7118 208.413 44.2438C208.413 44.3621 208.413 44.4803 208.413 44.5985C208.413 44.7168 208.353 44.7759 208.353 44.835C208.294 44.8941 208.294 44.8941 208.234 44.9532C208.175 44.9532 208.115 45.0123 208.056 45.0123H203.534C203.594 45.7808 203.772 46.3128 204.129 46.6675C204.486 47.0222 204.962 47.1995 205.498 47.1995C205.795 47.1995 206.033 47.1404 206.212 47.0813C206.39 47.0222 206.628 46.9631 206.747 46.8448C206.926 46.7857 207.045 46.6675 207.164 46.6084C207.283 46.5493 207.401 46.4902 207.52 46.4902C207.58 46.4902 207.639 46.4902 207.699 46.5493C207.758 46.6084 207.818 46.6084 207.818 46.6675L208.353 47.3177C208.175 47.5542 207.937 47.7315 207.699 47.9089C207.461 48.0862 207.223 48.2044 206.926 48.2636C206.688 48.3818 206.39 48.4409 206.093 48.4409C205.795 48.5 205.557 48.5 205.319 48.5C204.784 48.5 204.308 48.4409 203.891 48.2636C203.475 48.0862 203.058 47.8498 202.761 47.4951C202.464 47.1404 202.166 46.7266 201.988 46.2537C201.809 45.7808 201.69 45.1897 201.69 44.5394C201.69 44.0074 201.75 43.5345 201.928 43.1207C202.107 42.6478 202.345 42.2931 202.642 41.9384C202.939 41.5837 203.296 41.3473 203.772 41.17C204.189 40.9335 204.724 40.8744 205.26 40.8744ZM205.26 42.1158C204.724 42.1158 204.367 42.234 204.07 42.5296C203.772 42.8251 203.594 43.2389 203.534 43.7709H206.866C206.866 43.5345 206.807 43.298 206.747 43.1207C206.688 42.9434 206.569 42.766 206.45 42.5887C206.331 42.4113 206.152 42.2931 205.974 42.234C205.795 42.1749 205.557 42.1158 205.26 42.1158Z" fill="#193E72"/>
<path d="M215.552 48.3818H214.779C214.6 48.3818 214.481 48.3818 214.362 48.3226C214.243 48.2635 214.184 48.1453 214.124 48.0271L213.946 47.4951C213.767 47.6724 213.589 47.7906 213.41 47.968C213.232 48.0862 213.053 48.2044 212.875 48.2635C212.696 48.3226 212.458 48.4409 212.28 48.4409C212.042 48.5 211.804 48.5 211.566 48.5C211.269 48.5 210.971 48.4409 210.733 48.3818C210.495 48.3226 210.257 48.1453 210.079 48.0271C209.9 47.8497 209.722 47.6724 209.662 47.3768C209.543 47.1404 209.484 46.8448 209.484 46.4901C209.484 46.1946 209.543 45.9581 209.722 45.6625C209.841 45.367 210.079 45.1305 210.436 44.8941C210.793 44.6576 211.209 44.4803 211.804 44.362C212.339 44.2438 213.053 44.1256 213.886 44.1256V43.7118C213.886 43.2389 213.767 42.8251 213.589 42.5886C213.41 42.3522 213.053 42.234 212.696 42.234C212.399 42.234 212.161 42.2931 211.982 42.3522C211.804 42.4113 211.626 42.4704 211.507 42.5886C211.388 42.6478 211.209 42.766 211.09 42.8251C210.971 42.8842 210.852 42.9433 210.674 42.9433C210.555 42.9433 210.436 42.8842 210.376 42.8251C210.317 42.766 210.198 42.7069 210.198 42.5886L209.9 41.9975C210.733 41.229 211.744 40.8152 212.934 40.8152C213.351 40.8152 213.767 40.8744 214.065 41.0517C214.422 41.1699 214.66 41.4064 214.898 41.6428C215.136 41.8793 215.314 42.1749 215.433 42.5295C215.552 42.8842 215.612 43.2389 215.612 43.7118V48.3818H215.552ZM212.161 47.2586C212.339 47.2586 212.518 47.2586 212.637 47.1995C212.815 47.1404 212.934 47.1404 213.053 47.0221C213.172 46.963 213.291 46.9039 213.47 46.7857C213.589 46.6675 213.708 46.5492 213.827 46.431V45.1896C213.291 45.1896 212.875 45.2488 212.518 45.3079C212.161 45.367 211.923 45.4852 211.685 45.5443C211.447 45.6625 211.328 45.7808 211.269 45.899C211.209 46.0172 211.15 46.1946 211.15 46.3128C211.15 46.6084 211.269 46.8448 211.447 46.963C211.626 47.1995 211.863 47.2586 212.161 47.2586Z" fill="#193E72"/>
<path d="M217.277 48.3818V40.9926H218.289C218.467 40.9926 218.586 41.0517 218.646 41.1108C218.705 41.17 218.765 41.2882 218.765 41.4655L218.884 42.3522C219.122 41.8793 219.479 41.5246 219.776 41.2882C220.133 41.0517 220.549 40.8744 220.966 40.8744C221.323 40.8744 221.62 40.9335 221.858 41.1108L221.62 42.4704C221.62 42.5296 221.561 42.5887 221.501 42.6478C221.442 42.7069 221.382 42.7069 221.323 42.7069C221.263 42.7069 221.144 42.7069 221.025 42.6478C220.906 42.5887 220.728 42.5887 220.549 42.5887C220.193 42.5887 219.895 42.7069 219.598 42.8842C219.36 43.0616 219.122 43.4163 218.943 43.7709V48.3818H217.277Z" fill="#193E72"/>
<path d="M228.284 42.5296C228.224 42.5887 228.165 42.6478 228.105 42.7069C228.046 42.766 227.986 42.766 227.867 42.766C227.808 42.766 227.689 42.766 227.629 42.7069C227.57 42.6478 227.451 42.5887 227.332 42.5296C227.213 42.4704 227.094 42.4113 226.915 42.3522C226.737 42.2931 226.558 42.2931 226.32 42.2931C226.023 42.2931 225.725 42.3522 225.487 42.4704C225.249 42.5887 225.071 42.766 224.892 42.9434C224.714 43.1798 224.595 43.4163 224.536 43.7118C224.476 44.0074 224.417 44.3621 224.417 44.7168C224.417 45.1305 224.476 45.4852 224.536 45.7808C224.595 46.0764 224.714 46.3719 224.892 46.5493C225.071 46.7857 225.249 46.9039 225.487 47.0222C225.725 47.1404 225.963 47.1995 226.261 47.1995C226.558 47.1995 226.796 47.1404 226.915 47.0813C227.094 47.0222 227.213 46.9631 227.332 46.8448C227.451 46.7857 227.57 46.6675 227.629 46.6084C227.689 46.5493 227.808 46.4902 227.927 46.4902C228.046 46.4902 228.165 46.5493 228.224 46.6675L228.76 47.3177C228.581 47.5542 228.343 47.7315 228.105 47.9089C227.867 48.0862 227.629 48.2044 227.391 48.2636C227.153 48.3818 226.915 48.4409 226.618 48.4409C226.38 48.5 226.082 48.5 225.844 48.5C225.368 48.5 224.952 48.4409 224.595 48.2636C224.179 48.0862 223.822 47.8498 223.524 47.4951C223.227 47.1404 222.989 46.7857 222.81 46.3128C222.632 45.8399 222.572 45.3079 222.572 44.7168C222.572 44.1847 222.632 43.6527 222.81 43.1798C222.989 42.7069 223.167 42.2931 223.465 41.9975C223.762 41.6429 224.119 41.4064 224.595 41.17C225.011 40.9926 225.547 40.8744 226.142 40.8744C226.677 40.8744 227.153 40.9926 227.57 41.17C227.986 41.3473 228.343 41.5837 228.7 41.9384L228.284 42.5296Z" fill="#193E72"/>
<path d="M229.89 48.3818V37.6823H231.675V41.8202C231.972 41.5246 232.27 41.3473 232.627 41.1699C232.984 40.9926 233.34 40.9335 233.816 40.9335C234.233 40.9335 234.59 40.9926 234.887 41.1108C235.185 41.229 235.482 41.4655 235.661 41.702C235.839 41.9384 236.018 42.234 236.137 42.5887C236.256 42.9433 236.315 43.298 236.315 43.7118V48.4409H234.53V43.7118C234.53 43.2389 234.411 42.8842 234.233 42.6478C234.054 42.4113 233.697 42.2931 233.281 42.2931C232.984 42.2931 232.686 42.3522 232.448 42.5295C232.21 42.6478 231.913 42.8842 231.675 43.1207V48.3818H229.89Z" fill="#193E72"/>
<path d="M101.861 22.0172H99.5404V48.3817H101.861V22.0172Z" fill="#EA5D4E"/>
<path d="M46.651 5.11082C46.4726 4.93348 46.2941 4.81525 46.0561 4.69702C45.8181 4.5788 45.5802 4.5788 45.2827 4.5788H44.1523V8.71673H45.2827C45.5802 8.71673 45.8181 8.65761 46.0561 8.5985C46.2941 8.48027 46.4726 8.36205 46.651 8.18471C46.8295 8.00737 46.9485 7.77091 47.008 7.53446C47.0675 7.29801 47.127 7.00244 47.127 6.64776C47.127 6.35219 47.0675 6.05663 47.008 5.76106C46.9485 5.52461 46.8295 5.28816 46.651 5.11082Z" fill="#EA5D4E"/>
<path d="M32.7891 5.11082C32.6107 4.93348 32.4322 4.81525 32.1942 4.69702C31.9562 4.5788 31.7183 4.5788 31.4208 4.5788H30.2904V8.71673H31.4208C31.7183 8.71673 31.9562 8.65761 32.1942 8.5985C32.4322 8.48027 32.6107 8.36205 32.7891 8.18471C32.9676 8.00737 33.0866 7.77091 33.1461 7.53446C33.2056 7.29801 33.2651 7.00244 33.2651 6.64776C33.2651 6.35219 33.2056 6.05663 33.1461 5.76106C33.0866 5.52461 32.9676 5.28816 32.7891 5.11082Z" fill="#EA5D4E"/>
<path d="M57.0623 6.05663C57.2408 5.9384 57.3598 5.70195 57.3598 5.40638C57.3598 5.11082 57.3003 4.87436 57.1218 4.75614C56.9434 4.63791 56.7054 4.5788 56.3484 4.5788H55.456V6.29308H56.2294C56.6459 6.23397 56.8839 6.17485 57.0623 6.05663Z" fill="#EA5D4E"/>
<path d="M57.3003 7.23889C57.2408 7.17978 57.1218 7.12067 56.9433 7.06155C56.8244 7.00244 56.6459 7.00244 56.4674 7.00244H55.3965V8.71673H56.4674C56.6459 8.71673 56.8244 8.71673 56.9433 8.65761C57.0623 8.5985 57.1813 8.53939 57.2408 8.48027C57.3003 8.42116 57.3598 8.30293 57.4193 8.18471C57.4788 8.06648 57.4788 7.94825 57.4788 7.83003C57.4788 7.7118 57.4788 7.59357 57.4193 7.47535C57.4193 7.35712 57.3598 7.29801 57.3003 7.23889Z" fill="#EA5D4E"/>
<path d="M0.900818 0.5V12.7956H72.471V0.5H0.900818ZM11.4906 4.57882H8.93239V6.2931H11.0741V7.1798H8.93239V9.54434H7.86151V3.69212H11.4906V4.57882ZM18.6893 7.23892C18.6893 7.5936 18.6298 7.88916 18.5108 8.18473C18.3918 8.4803 18.2133 8.71675 18.0348 8.9532C17.8564 9.18966 17.5589 9.30788 17.2614 9.42611C16.964 9.54434 16.607 9.60345 16.25 9.60345C15.8931 9.60345 15.5361 9.54434 15.2387 9.42611C14.9412 9.30788 14.7032 9.13054 14.4652 8.9532C14.2868 8.71675 14.1083 8.4803 13.9893 8.18473C13.8703 7.88916 13.8108 7.5936 13.8108 7.23892V3.69212H14.8817V7.1798C14.8817 7.41626 14.9412 7.5936 15.0007 7.77094C15.0602 7.94828 15.1197 8.12562 15.2387 8.24384C15.3576 8.36207 15.4766 8.4803 15.6551 8.53941C15.8336 8.59852 16.0121 8.65764 16.1906 8.65764C16.369 8.65764 16.607 8.59852 16.726 8.53941C16.9045 8.4803 17.0235 8.36207 17.1424 8.24384C17.2614 8.12562 17.3209 7.94828 17.3804 7.77094C17.4399 7.5936 17.4994 7.41626 17.4994 7.1798V3.69212H18.5703V7.23892H18.6893ZM26.3639 9.54434H25.8284C25.7689 9.54434 25.65 9.54434 25.5905 9.48522C25.531 9.48522 25.4715 9.42611 25.412 9.367L22.3778 5.46552C22.3778 5.64286 22.3778 5.8202 22.3778 5.93842V9.54434H21.4259V3.69212H21.9614C22.0209 3.69212 22.0209 3.69212 22.0804 3.69212C22.1399 3.69212 22.1399 3.69212 22.1399 3.69212C22.1399 3.69212 22.1994 3.69212 22.1994 3.75123C22.1994 3.75123 22.2589 3.81035 22.2589 3.86946L25.293 7.77094C25.293 7.65271 25.293 7.5936 25.293 7.47537C25.293 7.35714 25.293 7.29803 25.293 7.23892V3.69212H26.2449V9.54434H26.3639ZM34.1575 7.83005C34.0385 8.18473 33.8005 8.4803 33.5625 8.77586C33.3246 9.07143 33.0271 9.24877 32.6701 9.367C32.3132 9.48522 31.8967 9.60345 31.4803 9.60345H29.279V3.69212H31.4803C31.8967 3.69212 32.3132 3.75123 32.6701 3.92857C33.0271 4.0468 33.3246 4.28325 33.5625 4.5197C33.8005 4.75616 34.0385 5.11084 34.1575 5.46552C34.2765 5.8202 34.3954 6.23399 34.3954 6.64778C34.3954 7.06158 34.336 7.47537 34.1575 7.83005ZM40.5827 4.57882H38.0245V6.17488H40.0473V7.00246H38.0245V8.65764H40.5827V9.54434H36.9537V3.69212H40.5827V4.57882V4.57882ZM48.0194 7.83005C47.9004 8.18473 47.6624 8.4803 47.4244 8.77586C47.1865 9.07143 46.889 9.24877 46.532 9.367C46.1751 9.48522 45.7586 9.60345 45.3422 9.60345H43.1409V3.69212H45.3422C45.7586 3.69212 46.1751 3.75123 46.532 3.92857C46.889 4.0468 47.1865 4.28325 47.4244 4.5197C47.6624 4.75616 47.9004 5.11084 48.0194 5.46552C48.1384 5.8202 48.2573 6.23399 48.2573 6.64778C48.2573 7.06158 48.1979 7.47537 48.0194 7.83005ZM58.4902 8.53941C58.3712 8.77586 58.2522 8.9532 58.0737 9.07143C57.8952 9.24877 57.6573 9.367 57.4193 9.42611C57.1813 9.48522 56.8838 9.54434 56.5269 9.54434H54.3256V3.69212H56.2889C56.6459 3.69212 57.0028 3.75123 57.2408 3.81035C57.5383 3.86946 57.7168 3.98768 57.8952 4.10591C58.0737 4.22414 58.1927 4.40148 58.2522 4.57882C58.3117 4.75616 58.3712 4.99261 58.3712 5.22906C58.3712 5.34729 58.3712 5.52463 58.3117 5.64286C58.2522 5.76108 58.1927 5.87931 58.1332 5.99754C58.0737 6.11576 57.9547 6.23399 57.8357 6.2931C57.7167 6.41133 57.5383 6.47044 57.3598 6.52956C58.1332 6.7069 58.5497 7.12069 58.5497 7.83005C58.6091 8.0665 58.5497 8.30296 58.4902 8.53941ZM63.4281 7.29803V9.54434H62.3572V7.29803L60.275 3.69212H61.2268C61.3458 3.69212 61.4053 3.69212 61.4648 3.75123C61.5243 3.81035 61.5838 3.86946 61.5838 3.92857L62.6547 5.87931C62.7142 5.99754 62.7737 6.11576 62.8332 6.23399C62.8927 6.35222 62.8927 6.41133 62.9521 6.52956C63.0116 6.41133 63.0116 6.35222 63.0711 6.23399C63.1306 6.11576 63.1901 5.99754 63.2496 5.87931L64.3205 3.92857C64.3205 3.86946 64.38 3.81035 64.4395 3.75123C64.499 3.69212 64.5585 3.69212 64.6774 3.69212H65.6293L63.4281 7.29803Z" fill="#EA5D4E"/>
</g>
<defs>
<clipPath id="clip0_4485_9075">
<rect width="235.355" height="48" fill="white" transform="translate(0.900818 0.5)"/>
</clipPath>
</defs>
</svg>