<svg width="157" height="49" viewBox="0 0 157 49" fill="none" xmlns="http://www.w3.org/2000/svg">
<g clip-path="url(#clip0_4485_9130)">
<path d="M0.933472 26.317C0.933472 34.1839 10.6373 42.8594 16.4476 43.1589C22.2579 42.8594 31.9717 34.1739 31.9717 26.317C31.9717 15.6448 31.9717 0.93927 31.9717 0.93927H0.933472V26.317Z" fill="#00365F"/>
<path d="M61.6723 0.939283V1.49835C59.6756 1.49835 58.9767 2.33695 58.9767 4.23379V12.2205C58.9767 15.9043 56.6307 19.8478 50.1914 19.8478C44.5208 19.8478 41.6157 16.6132 41.6157 12.3702V3.70467C41.6157 1.80783 41.0866 1.51832 39.0699 1.47838V0.919312H46.6972V1.47838H46.4277C44.7904 1.47838 44.0816 1.92764 44.0816 3.65476V11.901C44.0816 15.8944 46.4277 18.3003 50.8503 18.3003C54.1947 18.3003 57.609 16.9127 57.609 11.8711V4.95259C57.609 2.10733 57.1598 1.60817 54.7039 1.47838V0.919312L61.6723 0.939283Z" fill="#00365F"/>
<path d="M65.0267 16.8128C65.0267 18.4401 65.406 18.8095 67.0233 18.8095V19.3686H61.0333V18.8095C61.2928 18.8459 61.5572 18.8238 61.8071 18.7448C62.057 18.6658 62.2861 18.5319 62.4775 18.3529C62.669 18.1739 62.8179 17.9544 62.9135 17.7104C63.0091 17.4663 63.0489 17.204 63.03 16.9426V10.733C63.03 9.6348 62.9102 9.42515 62.1315 9.2754L61.1331 9.06575V8.59653L64.5475 7.34861H65.0267V9.66475C67.0233 8.41683 68.6706 7.31866 70.1281 7.31866C72.1248 7.31866 73.3029 8.80618 73.3029 11.7712C73.3029 15.7646 73.0932 16.4834 73.0633 17.6415C73.0633 18.4401 73.5025 18.8295 74.7205 18.8295H75.3794V19.3885H69V18.8295C69.6132 18.8653 70.2168 18.6653 70.6872 18.2704C71.2563 17.7014 71.3162 15.535 71.3162 11.5915C71.3162 9.2155 70.1581 8.47673 68.9701 8.47673C67.9717 8.47673 66.5641 9.30535 64.9767 10.3736L65.0267 16.8128Z" fill="#00365F"/>
<path d="M80.6806 17.1223C80.6806 18.1207 81.2396 18.8095 82.817 18.8095V19.3686H76.228V18.8095C78.035 18.8095 78.6939 18.2205 78.6939 16.6431V10.6531C78.6939 9.49503 78.5441 9.34528 77.7754 9.19553L76.3778 8.92599V8.45677L80.2313 7.119H80.6806V17.1223ZM79.4626 0.480064C79.6255 0.453381 79.7922 0.462432 79.9512 0.506593C80.1102 0.550753 80.2577 0.628968 80.3835 0.73581C80.5092 0.842651 80.6103 0.97556 80.6795 1.12534C80.7488 1.27511 80.7847 1.43817 80.7847 1.60319C80.7847 1.76822 80.7488 1.93127 80.6795 2.08104C80.6103 2.23082 80.5092 2.36373 80.3835 2.47057C80.2577 2.57742 80.1102 2.65563 79.9512 2.69979C79.7922 2.74395 79.6255 2.753 79.4626 2.72632C79.3062 2.74108 79.1485 2.72301 78.9995 2.67328C78.8505 2.62356 78.7135 2.54326 78.5973 2.43753C78.4811 2.3318 78.3883 2.20298 78.3248 2.0593C78.2613 1.91563 78.2285 1.76028 78.2285 1.60319C78.2285 1.44611 78.2613 1.29075 78.3248 1.14708C78.3883 1.00341 78.4811 0.874579 78.5973 0.768851C78.7135 0.663122 78.8505 0.582821 78.9995 0.533091C79.1485 0.483362 79.3062 0.465303 79.4626 0.480064V0.480064Z" fill="#00365F"/>
<path d="M88.8569 19.6581L84.5541 9.81448C84.1049 8.81614 83.7255 8.41681 83.2463 8.32696L82.3278 8.17721V7.64809H88.3777V8.13727C86.5707 8.19717 86.0017 8.43677 86.7205 9.82446L89.8653 17.2121L92.8603 10.3636C93.3894 9.14559 93.1298 8.28702 90.9634 8.13727V7.60815H96.1248V8.13727C95.572 8.24682 95.0602 8.50718 94.6462 8.88952C94.2321 9.27186 93.9319 9.76129 93.7787 10.3037L89.6856 19.6181L88.8569 19.6581Z" fill="#00365F"/>
<path d="M97.9518 11.8611C97.8851 12.2707 97.8451 12.6842 97.832 13.099C97.832 16.1839 99.9984 18.2704 102.344 18.2704C103.08 18.2666 103.804 18.0892 104.458 17.7527C105.112 17.4161 105.678 16.9299 106.108 16.3336L106.438 16.693C105.19 18.2704 103.323 19.7479 101.156 19.7479C98.2513 19.7479 95.9951 17.1123 95.9951 13.6681C95.9951 10.5233 98.1016 7.31866 101.726 7.31866C105.719 7.31866 105.639 10.1939 106.617 11.1722V11.8611H97.9518ZM104.122 11.0824C103.792 9.1556 102.614 7.87773 101.186 7.87773C100.188 7.87773 98.7205 8.32698 98.0416 11.0824H104.122Z" fill="#00365F"/>
<path d="M112.008 17.2221C112.008 18.4401 112.458 18.8294 113.945 18.8294H115.073V19.3885H108.035V18.8294C109.552 18.8294 110.032 18.1805 110.032 16.6032V9.75457L108.035 9.03576V8.53659L111.419 7.34857H112.008V10.4933H112.068C113.556 8.05739 113.905 7.49832 114.894 7.49832C115.244 7.49895 115.589 7.59191 115.892 7.76787C116.191 7.87769 116.721 8.00747 117.429 8.20714L116.721 9.99416C116.174 9.91517 115.642 9.75359 115.143 9.51496C114.835 9.34734 114.495 9.24538 114.145 9.21546C113.902 9.23715 113.668 9.3199 113.466 9.45604C113.263 9.59218 113.098 9.77729 112.987 9.99416C112.642 10.4675 112.325 10.9609 112.038 11.4717L112.008 17.2221Z" fill="#00365F"/>
<path d="M119.107 16.3935C119.466 18.1805 120.594 19.1889 121.932 19.1889C122.203 19.2038 122.475 19.1632 122.73 19.0696C122.985 18.976 123.218 18.8313 123.415 18.6443C123.612 18.4574 123.769 18.2322 123.877 17.9825C123.984 17.7328 124.039 17.4639 124.038 17.1922C124.038 16.5732 123.889 16.1939 123.04 15.3852C120.933 13.2787 118.597 13.0691 118.597 10.6132C118.597 8.61649 120.135 7.2887 122.391 7.2887C123.206 7.29826 124.012 7.4608 124.767 7.76789L124.827 10.4634H124.318C124.302 9.8298 124.049 9.22523 123.609 8.76882C123.169 8.3124 122.574 8.03723 121.942 7.99751C121.713 7.98681 121.485 8.02159 121.27 8.09984C121.055 8.1781 120.858 8.29828 120.69 8.45338C120.522 8.60849 120.386 8.79544 120.291 9.00338C120.195 9.21133 120.142 9.43613 120.135 9.66473C120.135 12.2704 125.656 12.7196 125.656 16.3336C125.643 16.8 125.537 17.2591 125.343 17.6837C125.15 18.1083 124.873 18.4897 124.53 18.8054C124.186 19.121 123.783 19.3644 123.343 19.5212C122.904 19.678 122.438 19.7449 121.972 19.718C121.53 19.7263 121.091 19.6553 120.674 19.5083C120.416 19.4188 120.147 19.3617 119.875 19.3386C119.767 19.3472 119.663 19.384 119.574 19.4453C119.485 19.5066 119.413 19.5903 119.366 19.688H118.917L118.597 16.3636L119.107 16.3935Z" fill="#00365F"/>
<path d="M131.576 17.1223C131.576 18.1207 132.145 18.8095 133.712 18.8095V19.3686H127.123V18.8095C128.94 18.8095 129.589 18.2205 129.589 16.6431V10.6531C129.589 9.49503 129.439 9.34528 128.671 9.19553L127.273 8.92599V8.45677L131.126 7.119H131.576V17.1223ZM130.358 0.480064C130.521 0.453381 130.687 0.462432 130.846 0.506593C131.005 0.550753 131.153 0.628968 131.279 0.73581C131.404 0.842651 131.505 0.97556 131.575 1.12534C131.644 1.27511 131.68 1.43817 131.68 1.60319C131.68 1.76822 131.644 1.93127 131.575 2.08104C131.505 2.23082 131.404 2.36373 131.279 2.47057C131.153 2.57742 131.005 2.65563 130.846 2.69979C130.687 2.74395 130.521 2.753 130.358 2.72632C130.201 2.74108 130.044 2.72301 129.895 2.67328C129.746 2.62356 129.609 2.54326 129.492 2.43753C129.376 2.3318 129.283 2.20298 129.22 2.0593C129.156 1.91563 129.124 1.76028 129.124 1.60319C129.124 1.44611 129.156 1.29075 129.22 1.14708C129.283 1.00341 129.376 0.874579 129.492 0.768851C129.609 0.663122 129.746 0.582821 129.895 0.533091C130.044 0.483362 130.201 0.465303 130.358 0.480064V0.480064Z" fill="#00365F"/>
<path d="M141.479 7.6481L141 8.94593H137.815V15.8644C137.781 16.1597 137.805 16.4589 137.887 16.7447C137.969 17.0306 138.107 17.2973 138.292 17.5295C138.478 17.7616 138.708 17.9546 138.969 18.0972C139.23 18.2398 139.516 18.3292 139.812 18.3602C140.461 18.3602 141.05 17.8511 141.619 16.8727L142.088 17.312C141.852 17.9931 141.418 18.5885 140.842 19.0222C140.266 19.456 139.574 19.7086 138.854 19.7479C137.107 19.7479 135.859 18.2904 135.859 16.3037V8.94593H134.501V8.47671C135.885 7.61536 136.899 6.27033 137.346 4.703H137.855V7.69801L141.479 7.6481Z" fill="#00365F"/>
<path d="M152.551 10.9426C153.439 8.68634 152.88 8.23709 151.133 8.17719V7.64807H156.055V8.13725C154.837 8.287 154.158 9.13559 153.589 10.5133L148.547 23.1123C147.659 25.3086 146.98 26.287 145.942 26.287C145.796 26.3035 145.648 26.2907 145.507 26.2491C145.367 26.2076 145.235 26.1382 145.122 26.0451C145.008 25.9521 144.915 25.8372 144.846 25.7072C144.778 25.5773 144.736 25.435 144.724 25.2887C144.724 24.0707 146.441 24.3702 147.18 23.6214C147.604 23.1187 147.942 22.5484 148.178 21.9343L149.067 19.708L144.474 9.95423C143.905 8.73626 143.376 8.2271 142.128 8.19715V7.66803H148.118V8.13725C146.301 8.13725 146.121 8.70631 146.691 9.95423L150.045 17.1822L152.551 10.9426Z" fill="#00365F"/>
<path d="M47.0167 29.4218C47.8753 29.4218 49.7222 30.6098 49.7222 33.7845C49.7222 39.4152 44.1115 41.8811 42.7338 41.8811C41.3561 41.8811 40.0982 39.6548 40.0982 37.1889C40.0782 32.3869 45.2396 29.4218 47.0167 29.4218ZM45.5092 30.52C43.6323 30.52 41.9751 34.104 41.9751 37.0791C41.9751 39.5649 43.0433 40.7829 44.0516 40.7829C46.4277 40.7829 47.8154 36.9293 47.8154 34.1939C47.8553 32.0974 46.8569 30.52 45.5092 30.52V30.52Z" fill="#00365F"/>
<path d="M50.7804 30.7596L50.8703 30.1905C51.599 30.1009 52.3223 29.9709 53.0366 29.8012C53.3585 27.3413 54.4005 25.0314 56.0317 23.1622C56.945 22.1965 58.198 21.6237 59.5258 21.5649C60.6839 21.5649 61.6323 22.2138 61.6323 22.9825C61.635 23.0935 61.6156 23.2039 61.5752 23.3073C61.5349 23.4107 61.4744 23.505 61.3974 23.5849C61.3203 23.6648 61.2281 23.7285 61.1262 23.7725C61.0243 23.8165 60.9147 23.8398 60.8037 23.8411C59.8054 23.8411 59.0267 22.6231 58.1681 22.6231C57.01 22.6231 56.0616 23.9309 55.6423 25.8877L54.8436 29.7812H57.3894L57.0999 30.7795H54.6639L53.1465 39.4351C51.9884 46.084 48.614 48.4201 45.8187 48.4201C44.5807 48.4201 43.5425 47.8012 43.5425 47.0624C43.5696 46.8171 43.6867 46.5905 43.871 46.4264C44.0554 46.2623 44.294 46.1724 44.5408 46.1739C45.639 46.1739 46.228 47.4717 47.3561 47.4717C47.6999 47.4592 48.0375 47.3766 48.3482 47.2289C48.659 47.0813 48.9363 46.8717 49.1631 46.6131C50.6506 45.1356 51.2097 40.064 51.3295 39.3452L52.847 30.7496L50.7804 30.7596Z" fill="#00365F"/>
<path d="M79.1032 40.084C76.5996 41.2558 73.88 41.8949 71.1165 41.9609C69.8674 42.0117 68.6212 41.806 67.4546 41.3567C66.2881 40.9074 65.2259 40.224 64.3336 39.3485C63.4412 38.473 62.7377 37.424 62.2662 36.2662C61.7948 35.1084 61.5654 33.8663 61.5924 32.6165C61.5787 31.2702 61.84 29.9352 62.3602 28.6933C62.8804 27.4515 63.6486 26.3289 64.6178 25.3943C65.587 24.4597 66.7368 23.7327 67.9967 23.258C69.2566 22.7832 70.6002 22.5706 71.9451 22.6331C73.9447 22.7292 75.9255 23.0644 77.8453 23.6315C78.0884 23.65 78.3298 23.579 78.5242 23.4318H78.9435V28.2338H78.3545C77.5458 24.53 75.03 23.3719 72.2746 23.3719C67.0533 23.3719 64.3777 27.7047 64.3777 32.4767C64.3777 38.5566 68.6506 41.2521 72.0649 41.2521C73.6442 41.2436 75.1984 40.8567 76.5974 40.124V36.3902C76.5974 34.703 76.0084 34.134 74.2313 34.134H73.1332V33.6048H81.1198V34.094C79.6323 34.1839 79.0433 34.693 79.0433 35.9609L79.1032 40.084Z" fill="#00365F"/>
<path d="M85.6423 39.1755C85.6423 40.3935 86.2014 40.9626 87.3594 40.9626H87.8686V41.5216H81.1897V40.9626C83.0866 40.9626 83.6556 40.3935 83.6556 38.9659V24.6498C83.6556 23.8112 83.5658 23.5516 82.7371 23.4517L81.3994 23.312V22.8028L85.193 21.5948H85.6423V39.1755Z" fill="#00365F"/>
<path d="M89.3261 33.3053C89.2718 33.1754 89.2413 33.0367 89.2363 32.896C89.2363 31.8477 91.7022 29.4517 93.629 29.4517C94.2337 29.4616 94.8283 29.6087 95.3679 29.882C95.9075 30.1552 96.378 30.5475 96.7438 31.0291C97.1831 31.6481 97.1831 32.0274 97.1831 33.5748V37.5682C97.1831 39.9442 97.1831 40.4734 97.9618 40.4734C98.2346 40.4698 98.5038 40.4104 98.7528 40.2988C99.0018 40.1872 99.2252 40.0258 99.4094 39.8244L99.5591 40.2737C97.9618 41.5715 97.1232 41.901 96.624 41.901C95.406 41.901 95.2862 40.5632 95.2563 40.094C93.2596 41.7812 92.6207 41.901 91.812 41.901C90.0949 41.901 89.0566 40.9026 89.0566 39.465C89.0566 37.6581 90.6639 37.0391 92.5608 36.5599C93.49 36.3154 94.3781 35.9353 95.1964 35.4318V33.0956C95.248 32.7621 95.2303 32.4216 95.1444 32.0952C95.0585 31.7689 94.9063 31.4637 94.6972 31.1988C94.498 30.9435 94.2458 30.7346 93.9579 30.5863C93.6701 30.4381 93.3535 30.3541 93.03 30.3402C92.6042 30.3344 92.1894 30.475 91.855 30.7385C91.5206 31.002 91.2869 31.3725 91.193 31.7878C91.1961 31.9868 91.2475 32.1821 91.3428 32.3569L89.3261 33.3053ZM95.1964 36.0008C94.6346 36.3215 94.0508 36.6017 93.4493 36.8394C91.6423 37.5782 90.9634 37.8377 90.9634 39.0956C90.9607 39.3258 91.0041 39.5542 91.091 39.7674C91.1778 39.9806 91.3064 40.1742 91.4692 40.337C91.6319 40.4998 91.8256 40.6283 92.0388 40.7152C92.252 40.8021 92.4803 40.8454 92.7105 40.8427C93.1797 40.8427 93.5391 40.693 95.1964 39.5349V36.0008Z" fill="#00365F"/>
<path d="M101.017 38.5266C101.376 40.3037 102.504 41.322 103.842 41.322C104.113 41.3369 104.385 41.2963 104.64 41.2027C104.895 41.1091 105.128 40.9644 105.325 40.7775C105.523 40.5905 105.68 40.3653 105.787 40.1157C105.894 39.866 105.949 39.597 105.948 39.3253C105.948 38.7063 105.799 38.327 105 37.5183C102.894 35.4118 100.547 35.2022 100.547 32.7463C100.547 30.7496 102.095 29.4218 104.341 29.4218C105.155 29.431 105.961 29.59 106.717 29.891L106.777 32.5965H106.278C106.262 31.9629 106.009 31.3584 105.569 30.9019C105.129 30.4455 104.534 30.1703 103.902 30.1306C103.673 30.1186 103.444 30.1524 103.229 30.2301C103.013 30.3079 102.815 30.428 102.647 30.5834C102.479 30.7387 102.343 30.9262 102.248 31.1348C102.153 31.3434 102.101 31.5688 102.095 31.7979C102.095 34.4035 107.606 34.8528 107.606 38.4667C107.594 38.9327 107.49 39.3916 107.297 39.8161C107.105 40.2406 106.829 40.6222 106.486 40.938C106.144 41.2537 105.741 41.4973 105.302 41.6542C104.863 41.811 104.397 41.878 103.932 41.8511C103.487 41.8601 103.044 41.7891 102.624 41.6414C102.367 41.5473 102.098 41.4869 101.825 41.4618C101.717 41.4732 101.613 41.5123 101.524 41.5752C101.435 41.6381 101.363 41.7228 101.316 41.8212H100.877L100.547 38.4967L101.017 38.5266Z" fill="#00365F"/>
<path d="M121.842 32.2072C121.403 32.2072 120.005 32.0574 118.847 31.8478C119.183 32.4268 119.359 33.085 119.356 33.7546C119.356 35.9509 117.459 38.0574 114.165 38.0574C113.698 38.068 113.233 37.9866 112.797 37.8178C112.318 38.317 110.99 38.6464 110.99 39.3253C110.99 40.0042 112.258 40.3236 115.233 40.3935C118.577 40.3935 119.736 40.5732 120.624 41.4617C120.907 41.7278 121.133 42.0496 121.286 42.407C121.439 42.7644 121.516 43.1496 121.513 43.5383C121.513 45.4651 118.907 48.4301 113.416 48.4301C110.331 48.4301 108.854 47.0724 108.854 45.6148C108.854 43.8977 110.661 43.6181 112.028 41.9709C110.421 41.8211 109.203 40.8128 109.203 39.8644C109.203 38.4967 111.2 38.4368 112.198 37.6681C111.391 37.4399 110.678 36.9591 110.164 36.2961C109.65 35.6331 109.362 34.8228 109.343 33.9842C109.343 31.4384 111.629 29.4518 114.564 29.4518C115.785 29.3956 116.98 29.8224 117.889 30.6398C119.188 30.6156 120.485 30.5156 121.772 30.3403L121.842 32.2072ZM115.113 47.6015C117.629 47.6015 120.005 45.9443 120.005 44.0774C120.005 42.9792 119.087 42.4102 118.008 42.3303C117.24 42.2305 113.496 42.2005 112.637 42.0907C111.809 43.089 110.711 43.4784 110.711 44.6364C110.75 46.0741 112.677 47.6015 115.113 47.6015ZM114.275 30.0108C113.146 30.0108 111.399 30.6398 111.399 33.3952C111.399 35.1423 112.288 37.4884 114.544 37.4884C116.271 37.4884 117.399 36.0707 117.399 34.0142C117.399 31.4684 116.092 30.0108 114.275 30.0108V30.0108Z" fill="#00365F"/>
<path d="M128.85 29.4518C130.069 29.4871 131.251 29.8799 132.248 30.5814C133.246 31.2828 134.015 32.262 134.46 33.3971C134.905 34.5323 135.007 35.7733 134.753 36.9658C134.499 38.1584 133.9 39.2499 133.03 40.1046C132.16 40.9594 131.059 41.5396 129.862 41.7732C128.665 42.0068 127.426 41.8835 126.299 41.4186C125.171 40.9536 124.206 40.1676 123.522 39.1582C122.837 38.1488 122.465 36.9606 122.451 35.7413C122.437 34.9021 122.594 34.0689 122.912 33.2922C123.23 32.5156 123.702 31.8117 124.301 31.2234C124.9 30.6351 125.612 30.1747 126.394 29.8701C127.176 29.5656 128.012 29.4232 128.85 29.4518V29.4518ZM129.27 41.1622C131.017 41.1622 133.003 39.3852 133.003 36.4202C133.003 33.0358 130.927 30.1606 128.441 30.1606C126.444 30.1606 124.667 32.1573 124.667 34.733C124.667 38.317 126.724 41.1622 129.27 41.1622V41.1622Z" fill="#00365F"/>
<path d="M148.997 41.7912L145.463 33.4251L141.909 41.7912H141.08L136.657 31.8078C136.504 31.3515 136.208 30.9569 135.812 30.6834C135.416 30.4098 134.942 30.2719 134.461 30.2903V29.7612H140.211V30.2903C138.464 30.3802 138.344 30.8794 138.973 32.287L142.168 39.4351L145.083 32.5566C144.424 31.0491 143.925 30.5599 142.877 30.3902L142.168 30.3003V29.7712H148.308V30.3003C146.86 30.3003 146.411 30.7695 147.04 32.297L149.945 39.3552L152.79 32.3669C153.439 30.7995 152.94 30.2903 151.073 30.2903V29.7612H156.065V30.2903C154.937 30.4101 154.228 30.9692 153.629 32.4268L149.805 41.7712L148.997 41.7912Z" fill="#00365F"/>
<path d="M17.1964 11.6414H16.208V38.9759H17.1964V11.6414Z" fill="#ACDEF9"/>
<path d="M22.7671 21.0558H27.639C29.0766 21.0558 29.2064 21.2554 29.3062 21.5549C29.2463 21.0757 28.9368 18.6298 28.7172 16.8528C28.6601 15.9589 28.3635 15.0968 27.8586 14.3569C27.6776 14.0972 27.419 13.9014 27.1198 13.7978C27.1198 13.708 27.5491 12.7196 27.8486 11.921C27.9177 11.7421 27.9226 11.5449 27.8625 11.3629C27.8024 11.1808 27.6811 11.0253 27.5192 10.9226C27.2525 10.7929 26.9567 10.7344 26.6606 10.7529H23.1864C22.2879 10.7529 21.8786 11.322 22.1881 12.0108C22.3977 12.53 22.7371 13.4085 22.8969 13.8178C21.7987 14.1872 21.4393 15.6847 21.2796 16.9825C21.01 19.1689 20.6506 22.084 20.6306 22.2637C20.6107 22.4434 20.5408 22.7729 21 22.7929C21.8686 22.7929 22.8769 22.8528 24.5741 22.7929C24.7759 22.9019 25.0038 22.9537 25.233 22.9426C25.4525 22.9454 25.668 22.8828 25.852 22.7629L28.238 22.6631L26.0217 22.6032C26.188 22.3685 26.2594 22.0796 26.2213 21.7945C26.1115 22.9326 24.634 22.7929 25.0034 21.6148C24.7087 21.5943 24.4151 21.6677 24.1648 21.8245C24.1279 21.9454 24.1195 22.0732 24.1403 22.1979C24.1611 22.3226 24.2104 22.4408 24.2846 22.5433L21.9584 22.4335C21.6689 22.4335 21.5292 22.2138 21.6789 22.0142C22.2979 21.2055 22.3278 21.0158 22.807 21.0158L22.7671 21.0558ZM23.2563 11.4318H26.4809C26.7704 11.4318 27.2396 11.3419 26.9701 11.9709C26.7005 12.5998 26.401 13.3186 26.2613 13.6481C25.7721 13.6481 23.7954 13.6481 23.7954 13.6481C23.6356 13.2787 23.406 12.7596 23.1265 12.0907C22.8969 11.7912 22.8969 11.4717 23.2164 11.4717L23.2563 11.4318Z" fill="#FFD125"/>
<path d="M16.4676 38.8561C16.4788 38.996 16.435 39.1348 16.3455 39.2429C16.2561 39.351 16.1279 39.42 15.9884 39.4351C15.9188 39.4289 15.8511 39.4089 15.7893 39.3763C15.7274 39.3438 15.6727 39.2993 15.6281 39.2455C15.5836 39.1916 15.5501 39.1295 15.5297 39.0627C15.5093 38.9958 15.5023 38.9256 15.5092 38.8561V36.1406C15.498 36.0007 15.5418 35.862 15.6313 35.7538C15.7207 35.6457 15.8489 35.5767 15.9884 35.5616C16.1269 35.5791 16.2536 35.6487 16.3426 35.7563C16.4316 35.8638 16.4763 36.0013 16.4676 36.1406V38.8561Z" fill="white"/>
<path d="M9.77873 6.64974C9.96673 6.59595 10.1633 6.579 10.3578 6.59982C10.199 6.46309 10.0112 6.36411 9.80868 6.3103C9.51917 5.22212 7.94179 5.52161 7.81201 6.48002C7.75211 6.82943 6.52415 6.97919 5.10651 8.86605C4.58906 9.54811 3.97729 10.1532 3.28955 10.663C3.01002 10.8328 3.6789 10.7829 3.98838 10.4634C4.2779 10.7529 4.84695 9.87436 5.70552 9.72461C5.92516 9.72461 8.77042 9.17553 8.02167 7.54824C9.02 8.8361 7.35278 9.76455 6.30453 9.86438C6.39438 9.86438 6.94346 9.95423 7.00336 9.98418C7.06326 10.0141 6.95345 10.2238 7.08323 10.3036C7.4092 10.5242 7.7164 10.7713 8.0017 11.0424C8.0017 11.0424 8.34113 10.9226 8.19138 10.7729C7.72217 10.4634 7.59238 10.3635 7.47258 10.1739C7.4481 10.1411 7.4324 10.1027 7.42697 10.0622C7.42155 10.0216 7.42657 9.98042 7.44158 9.94239C7.45659 9.90437 7.48108 9.87082 7.51272 9.84493C7.54436 9.81904 7.58208 9.80169 7.62232 9.7945C7.89134 9.75409 8.14927 9.65914 8.38028 9.51546C8.61128 9.37179 8.81048 9.18243 8.96567 8.95899C9.12085 8.73556 9.22876 8.48277 9.28273 8.21614C9.33671 7.94952 9.33563 7.67467 9.27957 7.40847C9.27279 7.24295 9.31966 7.07967 9.41321 6.94295C9.50675 6.80623 9.64197 6.70339 9.79871 6.64974" fill="#E4A224"/>
<path d="M9.56908 6.34027C9.56908 6.36125 9.56495 6.38202 9.55692 6.4014C9.54889 6.42078 9.53713 6.43839 9.5223 6.45323C9.50746 6.46806 9.48985 6.47983 9.47047 6.48785C9.45109 6.49588 9.43033 6.50001 9.40936 6.50001C9.38838 6.50001 9.3676 6.49588 9.34822 6.48785C9.32884 6.47983 9.31123 6.46806 9.2964 6.45323C9.28157 6.43839 9.2698 6.42078 9.26177 6.4014C9.25375 6.38202 9.24962 6.36125 9.24962 6.34027C9.24962 6.3193 9.25375 6.29853 9.26177 6.27915C9.2698 6.25977 9.28157 6.24216 9.2964 6.22732C9.31123 6.21249 9.32884 6.20073 9.34822 6.1927C9.3676 6.18467 9.38838 6.18054 9.40936 6.18054C9.43033 6.18054 9.45109 6.18467 9.47047 6.1927C9.48985 6.20073 9.50746 6.21249 9.5223 6.22732C9.53713 6.24216 9.54889 6.25977 9.55692 6.27915C9.56495 6.29853 9.56908 6.3193 9.56908 6.34027Z" fill="#00365F"/>
<path d="M17.436 35.4617H16.9069V39.3053H17.436V35.4617Z" fill="white"/>
<path d="M17.9052 39.9043C18.0273 39.7744 18.109 39.6117 18.1402 39.4361C18.1714 39.2605 18.1508 39.0796 18.081 38.9155C18.0111 38.7514 17.895 38.6112 17.7467 38.512C17.5985 38.4128 17.4246 38.3589 17.2463 38.3569H15.6889C15.5108 38.3542 15.3358 38.4038 15.1857 38.4997C15.0357 38.5957 14.9171 38.7336 14.8447 38.8963C14.7724 39.0591 14.7495 39.2395 14.7789 39.4152C14.8083 39.5909 14.8887 39.754 15.01 39.8844C14.8203 40.0541 14.4909 40.3735 14.3911 40.4834C15.7364 40.9274 17.1888 40.9274 18.5342 40.4834L17.9052 39.9043" fill="#FFD125"/>
<path d="M17.3761 11.6414H17.0666V32.8161H17.3761V11.6414Z" fill="white"/>
<path d="M16.4975 11.6414H15.5192V31.2887H16.4975V11.6414Z" fill="white"/>
<path d="M17.4459 19.1988C17.524 18.8706 17.524 18.5287 17.4459 18.2005C16.9867 18.2005 16.2679 18.2005 15.8486 18.2005C16.4406 18.4269 16.983 18.7659 17.4459 19.1988Z" fill="#00365F"/>
<path d="M14.0017 36.6996C14.5508 36.7795 17.4959 36.9193 17.4959 36.9193L17.9751 38.1672C16.5197 38.1257 15.1177 37.6104 13.9817 36.6996" fill="#00365F"/>
<path d="M26.0616 27.7346C25.1431 27.1356 24.0649 27.5948 22.807 26.5765C22.807 29.7313 25.1132 30.3702 23.8054 31.2088C22.7977 31.8816 21.5855 32.1785 20.381 32.0474C20.5016 31.8436 20.6385 31.65 20.7904 31.4684C19.736 31.3406 18.67 31.3406 17.6157 31.4684C15.6537 30.776 13.6032 30.3659 11.5258 30.2504C11.8119 30.495 12.0374 30.8026 12.1847 31.1491C12.3319 31.4955 12.3968 31.8713 12.3744 32.2471C12.1614 31.6753 11.8217 31.1591 11.3808 30.7372C10.9399 30.3154 10.4093 29.9988 9.82864 29.8111C9.62529 29.7377 9.4143 29.6875 9.19969 29.6614C9.02035 29.9034 8.77388 30.0874 8.49088 30.1905C8.27124 30.0707 8.09153 30.2804 8.12148 30.3502C8.13025 30.3654 8.13486 30.3826 8.13486 30.4002C8.13486 30.4177 8.13025 30.4349 8.12148 30.4501C7.91183 30.7196 7.213 30.5898 6.70385 30.4501C6.1947 30.3103 6.1348 30.6497 6.24462 30.8494C6.35444 31.0491 6.614 31.3985 6.70385 31.5782C7.27646 33.1348 8.38407 34.4371 9.82864 35.2521C11.5482 36.4678 13.5933 37.1391 15.6988 37.1789C17.2375 37.7107 18.8843 37.8513 20.4909 37.5882C20.1006 37.3722 19.7604 37.0763 19.4925 36.7196C20.9057 36.3728 22.2152 35.6924 23.3112 34.7353C24.4073 33.7782 25.258 32.5724 25.792 31.2188V31.1289C25.9717 30.51 25.3727 29.6913 24.5242 30.5C25.2629 28.7429 26.5208 29.5017 26.2213 30.5C27.178 29.0254 28.5754 27.89 30.2147 27.2554C29.5354 26.9954 28.8037 26.9023 28.081 26.984C27.3582 27.0656 26.6657 27.3196 26.0616 27.7246" fill="#ACDEF9"/>
<path d="M17.4759 24.9792C17.554 24.651 17.554 24.3091 17.4759 23.9809C17.0067 23.9809 16.2979 23.9809 15.8786 23.9809C16.4706 24.2073 17.013 24.5463 17.4759 24.9792Z" fill="#00365F"/>
<path d="M18.1448 23.1123C18.1422 23.3568 18.0432 23.5904 17.8693 23.7624C17.6955 23.9344 17.4609 24.0308 17.2163 24.0308H15.639C15.511 24.0442 15.3816 24.0306 15.2592 23.9908C15.1369 23.9509 15.0242 23.8859 14.9286 23.7998C14.833 23.7136 14.7566 23.6084 14.7042 23.4908C14.6519 23.3733 14.6249 23.246 14.6249 23.1173C14.6249 22.9886 14.6519 22.8614 14.7042 22.7438C14.7566 22.6263 14.833 22.521 14.9286 22.4349C15.0242 22.3488 15.1369 22.2837 15.2592 22.2439C15.3816 22.2041 15.511 22.1904 15.639 22.2038H17.2163C17.337 22.2025 17.4567 22.225 17.5686 22.2699C17.6805 22.3149 17.7825 22.3814 17.8687 22.4658C17.955 22.5501 18.0237 22.6507 18.0711 22.7616C18.1184 22.8725 18.1435 22.9917 18.1448 23.1123Z" fill="#FFD125"/>
<path d="M17.1864 23.7313H15.4693C16.2714 23.6515 17.0219 23.2992 17.5957 22.733C17.6802 22.8134 17.7384 22.9174 17.7627 23.0314C17.7871 23.1454 17.7765 23.2641 17.7322 23.372C17.688 23.4799 17.6122 23.5719 17.5148 23.636C17.4175 23.7001 17.303 23.7333 17.1864 23.7313" fill="#E4A224"/>
<path d="M17.4859 30.8395C17.5704 30.5121 17.5704 30.1685 17.4859 29.8411H15.9085C16.4967 30.0691 17.0356 30.408 17.4959 30.8395" fill="#00365F"/>
<path d="M18.1548 28.9626C18.1535 29.0832 18.1284 29.2024 18.0811 29.3133C18.0337 29.4243 17.9649 29.5248 17.8787 29.6091C17.7925 29.6935 17.6905 29.76 17.5786 29.805C17.4666 29.8499 17.347 29.8724 17.2263 29.8711H15.6589C15.531 29.8845 15.4016 29.8708 15.2792 29.831C15.1568 29.7912 15.0442 29.7261 14.9486 29.64C14.853 29.5539 14.7765 29.4486 14.7242 29.3311C14.6719 29.2135 14.6448 29.0863 14.6448 28.9576C14.6448 28.8289 14.6719 28.7017 14.7242 28.5841C14.7765 28.4665 14.853 28.3613 14.9486 28.2752C15.0442 28.189 15.1568 28.124 15.2792 28.0842C15.4016 28.0444 15.531 28.0307 15.6589 28.0441H17.2263C17.3478 28.0428 17.4683 28.0656 17.5809 28.1111C17.6935 28.1567 17.7959 28.2242 17.8822 28.3096C17.9686 28.395 18.0372 28.4967 18.0839 28.6088C18.1307 28.7209 18.1548 28.8411 18.1548 28.9626" fill="#FFD125"/>
<path d="M17.1964 29.5616C16.2779 29.5616 15.4892 29.5616 15.4892 29.5616C16.2898 29.4868 17.0388 29.1335 17.6057 28.5632C17.6959 28.6412 17.7593 28.7456 17.787 28.8615C17.8147 28.9775 17.8053 29.0993 17.7601 29.2096C17.7148 29.3199 17.6361 29.4133 17.5349 29.4764C17.4338 29.5396 17.3154 29.5694 17.1964 29.5616" fill="#E4A224"/>
<path d="M17.8353 13.129H15.05V15.8644H17.8353V13.129Z" fill="#FFD125"/>
<path d="M17.8353 15.8544C17.6896 15.8858 17.5612 15.9712 17.476 16.0935C17.3908 16.2157 17.3551 16.3658 17.3761 16.5133H15.5092C15.5092 16.5133 15.5092 15.9243 15.05 15.8544H17.8353Z" fill="#E4A224"/>
<path d="M17.426 13.129H16.6673V15.8944H17.426V13.129Z" fill="#E4A224"/>
<path d="M7.7022 28.2737C7.39526 28.4289 7.15689 28.6925 7.0333 29.0135C6.90971 29.3345 6.90972 29.6899 7.03332 30.0108C7.07499 30.1144 7.13716 30.2084 7.21607 30.2873C7.29498 30.3662 7.38903 30.4284 7.49256 30.4701C7.69719 30.5544 7.92686 30.5544 8.13149 30.4701C8.28582 30.3991 8.42446 30.2982 8.53931 30.173C8.65415 30.0479 8.74291 29.9011 8.80038 29.7413C8.92888 29.4875 8.95387 29.1937 8.87007 28.9218C8.78627 28.6499 8.60022 28.4212 8.35111 28.2837C8.24866 28.2395 8.13825 28.2167 8.02666 28.2167C7.91506 28.2167 7.80465 28.2395 7.7022 28.2837V28.2737ZM7.62233 30.1007C7.56384 30.0771 7.51071 30.0419 7.46611 29.9973C7.42151 29.9527 7.38637 29.8996 7.36277 29.8411C7.27352 29.6098 7.27352 29.3536 7.36277 29.1223C7.44974 28.8892 7.62063 28.6969 7.84197 28.5832C7.95723 28.5366 8.0861 28.5366 8.20137 28.5832C8.31002 28.6358 8.39989 28.7205 8.45881 28.8259C8.51774 28.9312 8.54288 29.0521 8.53082 29.1722C8.52745 29.3057 8.50041 29.4376 8.45095 29.5616C8.36398 29.7947 8.19309 29.987 7.97175 30.1007C7.91661 30.1246 7.85714 30.1369 7.79704 30.1369C7.73694 30.1369 7.67747 30.1246 7.62233 30.1007V30.1007Z" fill="#FFD125"/>
<path d="M8.1215 30.0208C7.79789 29.9195 7.46207 29.8624 7.12316 29.8511C6.79371 29.8511 6.47425 29.6414 6.49422 29.5516C6.51419 29.4617 6.59405 29.4417 6.73381 29.4218C7.32178 29.3897 7.91149 29.4266 8.49089 29.5316C8.42745 29.7267 8.30544 29.8975 8.14147 30.0208" fill="#ACDEF9"/>
<path d="M9.28955 7.82782C9.30856 8.25302 9.18402 8.67226 8.93595 9.01811C8.68787 9.36397 8.33068 9.61634 7.92183 9.73464C8.02166 9.42515 8.45095 7.98755 9.29954 7.82782" fill="#E63320"/>
<path d="M18.1648 17.322C18.1621 17.5665 18.0631 17.8001 17.8893 17.972C17.7155 18.144 17.4808 18.2405 17.2363 18.2404H15.6689C15.4253 18.2404 15.1917 18.1437 15.0195 17.9714C14.8472 17.7992 14.7504 17.5656 14.7504 17.322C14.7504 17.0784 14.8472 16.8448 15.0195 16.6725C15.1917 16.5003 15.4253 16.4035 15.6689 16.4035H17.2363C17.3578 16.4022 17.4783 16.425 17.5908 16.4705C17.7034 16.5161 17.8059 16.5835 17.8922 16.669C17.9786 16.7544 18.0471 16.8561 18.0939 16.9682C18.1407 17.0803 18.1648 17.2005 18.1648 17.322" fill="#FFD125"/>
<path d="M17.2163 17.9209C16.2879 17.9209 15.4892 17.9209 15.4892 17.9209C16.2942 17.841 17.0479 17.4888 17.6257 16.9226C17.8353 17.0724 17.8752 17.9209 17.2163 17.9209Z" fill="#E4A224"/>
<path d="M11.0466 30.5799C11.6476 30.9867 12.1135 31.5638 12.3844 32.2371C12.4781 31.9997 12.5161 31.7438 12.4953 31.4894C12.4745 31.235 12.3956 30.9887 12.2646 30.7696C13.1731 30.5 14.7604 30.9193 16.1881 31.4784C17.8313 32.2478 19.6601 32.5318 21.4593 32.297C23.0566 32.0275 23.9052 31.698 24.4543 30.8994C24.7338 30.4701 25.5425 30.5599 25.3129 31.1989C25.0533 31.8974 24.6406 32.529 24.1051 33.0473C23.5695 33.5656 22.9247 33.9573 22.218 34.1939C19.1201 35.1438 15.8189 35.2129 12.6839 34.3935C11.456 34.084 8.58075 33.3253 7.41269 31.8178C7.22997 31.5151 7.12373 31.1725 7.1032 30.8195C7.1032 30.7097 7.1631 30.6498 7.42267 30.6997C7.65886 30.7737 7.91343 30.7634 8.14286 30.6705C8.37229 30.5777 8.56235 30.408 8.68057 30.1905C9.501 30.0249 10.3536 30.1558 11.0866 30.5599" fill="white"/>
<path d="M24.8935 31.099C23.4959 33.7546 20.8004 34.1739 17.9651 34.2538C16.8624 34.2809 15.7611 34.16 14.6905 33.8944C15.4333 33.9851 16.1866 33.9274 16.9068 33.7247C16.6972 32.6664 14.9102 31.8877 13.6123 31.8178C13.3727 31.5483 13.3029 31.1889 12.7238 30.9892C13.1331 31.3586 13.1032 31.8877 13.3029 32.1673C14.3012 32.3769 15.609 32.6365 16.218 33.4551C16.0083 33.7346 14.1315 33.5749 13.1032 33.3453C12.6193 33.1987 12.209 32.8741 11.9551 32.4368C11.4659 32.9859 10.6972 32.7862 9.89852 32.3869C9.89012 32.2215 9.82329 32.0645 9.70993 31.9439C9.59658 31.8232 9.44406 31.7467 9.27956 31.728C9.35321 31.8443 9.39137 31.9796 9.38938 32.1173C8.49088 31.5982 7.6323 30.9593 7.20302 30.9992C6.58405 30.9992 8.54079 34.4634 10.198 34.8228C15.0899 37.6481 23.2563 36.4102 25.1731 31.6481C25.4826 30.9293 25.243 30.49 24.8935 31.099Z" fill="#0098D6"/>
<path d="M9.49921 32.0973C9.50744 32.244 9.45758 32.3881 9.36043 32.4983C9.26328 32.6085 9.12664 32.6761 8.98007 32.6863C8.90712 32.6976 8.83265 32.694 8.76112 32.6758C8.68959 32.6576 8.62247 32.6251 8.56375 32.5804C8.50504 32.5357 8.45595 32.4796 8.41942 32.4154C8.38288 32.3513 8.35965 32.2805 8.35111 32.2071C8.35041 32.0626 8.40378 31.9231 8.50072 31.8159C8.59766 31.7087 8.73117 31.6417 8.87502 31.6279C9.01887 31.6142 9.16266 31.6547 9.27816 31.7416C9.39365 31.8284 9.4725 31.9553 9.49921 32.0973Z" fill="white"/>
<path d="M9.21967 32.0973C9.21843 32.1349 9.20961 32.1719 9.19373 32.206C9.17786 32.2401 9.15525 32.2707 9.12728 32.2958C9.09932 32.321 9.06657 32.3403 9.03098 32.3525C8.99539 32.3647 8.9577 32.3696 8.92017 32.3669C8.84502 32.3696 8.77173 32.3431 8.71583 32.2928C8.65993 32.2424 8.6258 32.1724 8.62067 32.0973C8.62812 32.0232 8.66293 31.9545 8.71831 31.9047C8.77369 31.8548 8.84566 31.8274 8.92017 31.8278C8.99532 31.825 9.06861 31.8516 9.12451 31.9019C9.18041 31.9522 9.21454 32.0223 9.21967 32.0973Z" fill="#00365F"/>
<path d="M23.2263 27.2255C22.8969 28.3835 24.3245 29.9409 24.3245 29.9409C24.0339 29.007 23.6666 28.0988 23.2263 27.2255" fill="white"/>
<path d="M24.2346 27.475C23.7455 28.1539 24.6739 29.6913 24.6739 29.6913C24.6284 28.9361 24.4806 28.1905 24.2346 27.475" fill="white"/>
<path d="M25.7821 29.2321C26.1823 28.3456 26.8922 27.6356 27.7787 27.2354C26.0616 27.4451 25.6723 28.5832 25.7821 29.2321Z" fill="white"/>
<path d="M16.4376 3.58484C15.7188 2.18717 14.6806 3.26537 12.8636 2.7063C12.5441 4.18384 12.2247 6.83942 12.1348 7.29865C13.3727 7.66804 14.4609 6.50996 15.9484 7.47834C15.8597 6.29193 16.0125 5.09984 16.3977 3.97419C16.3977 3.97419 16.3977 3.73459 16.3977 3.58484" fill="white"/>
<path d="M16.4476 3.58485C16.3267 3.34229 16.1443 3.13573 15.9185 2.98584C15.7089 5.26205 15.6589 5.76122 14.9202 7.09899C15.28 7.14436 15.623 7.27812 15.9185 7.48834C15.8255 6.32475 15.9926 5.15505 16.4077 4.06404C16.4077 4.06404 16.4376 3.66471 16.4476 3.58485Z" fill="#ACDEF9"/>
<path d="M20.0117 2.69635C18.2047 3.25542 17.1664 2.17721 16.4476 3.58487C16.4476 4.06407 16.4476 7.57821 16.4476 7.85775C18.1847 6.24044 19.3728 7.708 20.7505 7.28869C20.6506 6.83944 20.3312 4.18387 20.0117 2.69635" fill="white"/>
<path d="M16.9468 10.4734H15.9385V11.6414H16.9468V10.4734Z" fill="#FFD125"/>
<path d="M16.4476 9.35522L16.9468 10.2238L15.9285 10.2338L16.4476 9.35522Z" fill="#FFD125"/>
<path d="M12.025 18.5499C12.025 18.5499 13.4027 17.861 13.5425 17.1622C13.09 16.8773 12.5694 16.7187 12.035 16.703C12.035 16.703 13.2729 15.7645 13.223 15.0757C12.6641 14.9035 12.0731 14.8625 11.4959 14.9559C11.9101 14.4604 12.1363 13.8347 12.1348 13.1888C11.5762 13.1631 11.0184 13.2549 10.4975 13.4584C10.6737 12.8689 10.6737 12.2408 10.4975 11.6514C9.90852 11.4917 9.05993 12.5499 9.05993 12.5499C8.88862 11.8152 8.5466 11.1311 8.06159 10.5532C7.57907 11.1327 7.23736 11.8162 7.06326 12.5499C7.06326 12.5499 6.22465 11.4917 5.62565 11.6514C5.45288 12.2413 5.45288 12.8684 5.62565 13.4584C5.10114 13.2555 4.54022 13.1637 3.9784 13.1888C3.98635 13.8347 4.21537 14.4584 4.62732 14.9559C4.05604 14.8833 3.47573 14.9413 2.93015 15.1256C2.88023 15.8145 4.11817 16.7529 4.11817 16.7529C3.58369 16.7687 3.06316 16.9272 2.61067 17.2121C2.75044 17.911 4.12815 18.5998 4.12815 18.5998C3.62506 18.7168 3.16496 18.9727 2.80036 19.3386C3.22117 19.8124 3.78583 20.1351 4.40768 20.2571C4.06185 20.5117 3.76434 20.8261 3.52915 21.1855C4.31784 21.8344 5.97507 21.9243 7.64229 21.4051C7.66922 22.7667 7.53857 24.1268 7.25294 25.4584H8.92016C8.63454 24.1268 8.50389 22.7667 8.53081 21.4051C10.198 21.9243 11.8553 21.8344 12.644 21.1855C12.4088 20.8261 12.1113 20.5117 11.7654 20.2571C12.3863 20.1323 12.9501 19.8101 13.3727 19.3386C13.0081 18.9727 12.548 18.7168 12.045 18.5998" fill="#86BC25"/>
<path d="M10.5075 18.5898C11.0612 18.412 11.5438 18.0623 11.8852 17.5915C11.4741 17.3271 10.9963 17.1851 10.5075 17.1822C11.0192 16.8348 11.4182 16.3455 11.6556 15.7745C11.1638 15.6531 10.6499 15.6531 10.1581 15.7745C10.5054 15.2887 10.7437 14.7336 10.8569 14.1472C10.3581 14.2246 9.87351 14.376 9.41934 14.5965C9.64486 14.0681 9.72083 13.4879 9.63898 12.9193C9.28317 13.0607 8.9822 13.3127 8.78041 13.6381C8.73374 13.4527 8.64819 13.2794 8.52942 13.1297C8.41066 12.98 8.26139 12.8572 8.09155 12.7695C7.9329 12.9854 7.81932 13.231 7.75757 13.4917C7.69583 13.7524 7.68719 14.0229 7.73215 14.287C7.90444 14.1026 8.1029 13.9445 8.32116 13.8178C8.43028 14.388 8.37132 14.9776 8.15145 15.515C8.45789 15.3337 8.7972 15.2149 9.14979 15.1655C9.14721 15.4948 9.07976 15.8204 8.95128 16.1236C8.8228 16.4268 8.63582 16.7017 8.40103 16.9326C8.73511 16.7408 9.10595 16.6217 9.48923 16.5832C9.37826 17.2558 9.02273 17.8638 8.4909 18.2903C8.89618 18.157 9.33353 18.157 9.73882 18.2903C9.53915 18.8694 9.08988 19.1589 8.43098 19.5283C8.79927 19.5034 9.16766 19.5756 9.49921 19.7379C9.16818 20.1867 8.67952 20.4934 8.13149 20.5965C9.07389 21.0053 10.1178 21.1202 11.1265 20.9259C10.9533 20.5267 10.6411 20.2039 10.248 20.0175C10.7976 19.9335 11.3166 19.7101 11.7554 19.3685C11.4121 19.0226 10.9805 18.7775 10.5075 18.6597" fill="#008E3D"/>
<path d="M4.92682 40.9326C5.15644 41.7213 4.53747 43.2388 4.97674 44.1173C4.59737 44.1173 2.18139 44.5466 1.82199 44.2271C1.46259 43.9076 0.52415 43.2288 1.47257 42.7396C2.42099 42.2504 4.79704 41.312 4.92682 40.9326" fill="#ACDEF9"/>
<path d="M28.0383 40.8527C28.186 42.023 28.1455 43.2094 27.9185 44.3669C28.1581 44.4367 30.0849 44.8361 30.7638 44.4667C31.4426 44.0973 31.9119 43.2088 31.5924 42.8494C30.8655 42.1951 30.0129 41.6957 29.0866 41.3818C28.701 41.3312 28.3466 41.1434 28.0882 40.8527" fill="#ACDEF9"/>
<path d="M31.0433 42.0807C30.045 41.5216 28.4476 41.1822 27.5691 39.9842C27.2396 41.1822 28.0383 41.881 28.0083 43.658C28.7471 42.2803 28.1381 41.9409 28.2579 41.282C28.8569 42.0407 29.7455 42.1506 30.3744 42.48C31.1631 42.8893 31.6523 43.8078 30.005 43.7978H2.93015C1.23298 43.7978 1.73214 42.8893 2.52083 42.47C3.32082 42.2547 4.05271 41.8389 4.64729 41.262C4.76709 41.9109 4.1581 42.2604 4.89687 43.6281C4.89687 41.8511 5.65561 41.1822 5.33614 39.9742C4.46759 41.1722 2.89022 41.5116 1.84196 42.0707C0.953445 42.5399 0.953445 42.8594 0.953445 44.3768C0.953445 45.3752 0.953445 46.693 0.953445 47.5516C0.953445 48.1605 1.65228 48.5499 2.50087 48.49H30.4543C31.2929 48.49 32.0117 48.1705 32.0117 47.5615C32.0117 46.693 32.0117 45.3951 32.0117 44.3669C32.0117 42.8095 32.0117 42.5399 31.1032 42.0707" fill="#00365F"/>
<path d="M2.4709 45.0757H3.06991L3.48921 46.2338C3.48921 46.2338 3.48921 46.3436 3.54911 46.5033C3.56955 46.4117 3.59624 46.3217 3.62898 46.2338L4.0383 45.0757H4.6373L3.76874 47.1422H3.33946L2.4709 45.0757" fill="white"/>
<path d="M5.52582 45.1156H4.95677V47.1822H5.52582V45.1156Z" fill="white"/>
<path d="M6.60402 45.0757H7.31284L8.02167 47.1422H7.46259L7.36276 46.7729H6.55411L6.44429 47.1422H5.92516L6.64396 45.0757H6.60402ZM7.28289 46.3735L7.07324 45.6847C7.07324 45.6847 7.07325 45.5649 6.99338 45.4051C6.97685 45.4999 6.95349 45.5933 6.92349 45.6847L6.71383 46.3735H7.28289Z" fill="white"/>
<path d="M9.1398 45.0757H9.73881L10.1481 46.2338C10.1481 46.2338 10.1481 46.3436 10.218 46.5033C10.218 46.3436 10.2879 46.2537 10.2879 46.2338L10.7072 45.0757H11.3062L10.4376 47.1422H10.0083L9.1398 45.0757" fill="white"/>
<path d="M11.6157 45.1156H12.8836V45.5748H12.1648V45.9342H12.8436V46.3735H12.1648V46.7229H12.8836V47.1822H11.6157V45.1156Z" fill="white"/>
<path d="M13.4027 45.0757H14.0217C14.2605 45.0424 14.5035 45.0917 14.7105 45.2154C14.7866 45.2758 14.8472 45.3536 14.8871 45.4421C14.9271 45.5307 14.9452 45.6275 14.9401 45.7246C14.9517 45.8641 14.9096 46.0027 14.8224 46.1122C14.7352 46.2217 14.6095 46.2937 14.4709 46.3136L15.04 47.1422H14.401L13.9318 46.3336V47.1422H13.4027V45.0757ZM14.0316 46.074C14.2712 46.074 14.3811 45.9941 14.3811 45.8144C14.3811 45.6347 14.2712 45.5249 14.0416 45.5249H13.9118V46.074H14.0316Z" fill="white"/>
<path d="M15.9784 45.1156H15.4093V47.1822H15.9784V45.1156Z" fill="white"/>
<path d="M16.8769 45.6048H16.4177V45.1156H17.9052V45.6048H17.436V47.1822H16.8769V45.6048Z" fill="white"/>
<path d="M18.7937 45.0757H19.5025L20.2113 47.1422H19.6523L19.5524 46.7729H18.7538L18.644 47.1422H18.0849L18.7937 45.0757ZM19.4326 46.3735L19.223 45.6847L19.1531 45.4051C19.1531 45.5649 19.0832 45.6547 19.0732 45.6847L18.8736 46.3735H19.4326Z" fill="white"/>
<path d="M21.1398 46.7928C21.2995 46.7928 21.3994 46.7029 21.3994 46.5831C21.3994 46.4633 21.2895 46.3735 21.0499 46.3036C20.8103 46.2337 20.5009 46.064 20.5009 45.7346C20.4992 45.6428 20.5167 45.5518 20.5523 45.4672C20.5879 45.3826 20.6407 45.3064 20.7074 45.2435C20.7742 45.1805 20.8533 45.1322 20.9398 45.1015C21.0263 45.0709 21.1182 45.0587 21.2097 45.0657C21.4268 45.0577 21.6406 45.1208 21.8187 45.2454L21.6489 45.6547C21.5397 45.5533 21.3985 45.4932 21.2496 45.485C21.1099 45.485 21.02 45.5648 21.02 45.6647C21.02 45.7645 21.1697 45.8444 21.3494 45.8943C21.7188 45.9941 21.9185 46.1239 21.9185 46.5033C21.9218 46.6055 21.9033 46.7073 21.8642 46.8018C21.825 46.8963 21.7661 46.9814 21.6915 47.0513C21.6168 47.1212 21.5281 47.1744 21.4312 47.2073C21.3344 47.2402 21.2316 47.252 21.1298 47.242C20.992 47.2443 20.8552 47.2179 20.728 47.1646C20.6009 47.1114 20.4862 47.0324 20.3911 46.9326L20.6506 46.5133C20.7069 46.5926 20.7798 46.6588 20.8643 46.707C20.9488 46.7553 21.0428 46.7846 21.1398 46.7928" fill="white"/>
<path d="M23.1564 45.0757H23.7554L24.1648 46.2338C24.1969 46.3211 24.2203 46.4114 24.2346 46.5033C24.2346 46.3436 24.3045 46.2537 24.3045 46.2338L24.7238 45.0757H25.3228L24.4543 47.1422H24.025L23.1564 45.0757" fill="white"/>
<path d="M26.2114 45.1156H25.6423V47.1822H26.2114V45.1156Z" fill="white"/>
<path d="M27.1099 45.6048H26.6506V45.1156H28.1381V45.6048H27.6789V47.1822H27.1099V45.6048Z" fill="white"/>
<path d="M29.0267 45.0757H29.7355L30.4543 47.1422H29.8852L29.7854 46.7729H28.9867L28.8769 47.1422H28.3178L29.0267 45.0757ZM29.6656 46.3735L29.4559 45.6847L29.3861 45.4051L29.3162 45.6847L29.1065 46.3735H29.6656Z" fill="white"/>
<path d="M17.5658 38.7662C17.7055 38.926 17.7954 39.6947 17.1265 39.7646C16.5662 39.8339 15.9996 39.8339 15.4393 39.7646C16.2377 39.6713 16.984 39.3209 17.5658 38.7662Z" fill="#E4A224"/>
<path d="M22.7172 15.2754C22.7871 14.3469 23.2363 14.1273 23.8453 14.1373H25.9518C25.5571 14.1326 25.1728 14.2641 24.8637 14.5096C24.5546 14.7551 24.3395 15.0995 24.2546 15.485C24.1448 16.3336 24.1348 19.2787 24.1148 20.5366C23.4959 20.5366 22.6772 20.5366 22.4975 20.5366C22.5874 19.2288 22.6473 16.1639 22.7172 15.2255" fill="#E4A224"/>
<path d="M16.7571 10.4734H16.4476V11.6414H16.7571V10.4734Z" fill="#E4A224"/>
<path d="M16.7571 10.2338L16.4476 9.35522V10.2238L16.7571 10.2338Z" fill="#E4A224"/>
</g>
<defs>
<clipPath id="clip0_4485_9130">
<rect width="155.151" height="48" fill="white" transform="translate(0.908752 0.5)"/>
</clipPath>
</defs>
</svg>
