<svg xmlns="http://www.w3.org/2000/svg" version="1.1" x="0" y="0" width="192px" height="27px" viewBox="0 0 279.7 38.3" enable-background="new 0 0 279.7 38.3" xml:space="preserve"><path fill="#FFFFFF" d="M13.7 0.1v37.8h-1.5v-10H1.5v10H0V0.1h1.5v26.4h10.7V0.1H13.7zM53 0l-5.2 37.9h-2.3L40.4 3.6l-5.2 34.3H33L27.9 0h1.5l4.8 35.4L39.7 0h1.5l5.5 35.4L51.6 0H53zM80.4 32.4c0 3.9-2.5 5.5-5 5.5h-8.2V0.1h6.2c3.9 0 7 2.8 7 7.2l-0.1 11.2c0 2.4-1.3 4.8-3.5 6.2 0.8 0.2 1.5 0.6 2 1.1 0.9 0.9 1.5 2.3 1.5 3.9V32.4zM68.7 1.5v22.8h4.8c2.3 0 5.5-2.3 5.5-5.9V7.2c0-3.3-2.1-5.7-5.6-5.7C72.6 1.5 69.2 1.5 68.7 1.5zM78.9 29.6c0-1.2-0.4-2.2-1.1-2.9 -0.8-0.7-1.8-1.1-3.3-1.1 -0.8 0-5.5 0-5.9 0v10.7h6.7c3.2 0 3.6-2.9 3.6-4V29.6zM110.2 0.1v37.8h-2.8v-9.7h-9.1v9.7h-2.9V0.1h2.9v25.6h9.1V0.1H110.2zM144.2 33.6l1.3-12.2 3-21.4h2.8l-5.3 37.9h-3.6l-3.8-24.9 -0.9-7.2 -0.8 7.2 -3.7 24.9h-3.7L124.4 0h2.9l3 21.5 1.3 12h0.2l1.4-12L136.4 0h2.8l3.3 21.4 1.6 12.2H144.2zM180.4 0l-7.3 28.4v9.5h-2.8v-9.5L163.1 0h2.9l3.6 13.9 2.2 10.3 2.2-10.3c1.2-4.6 2.4-9.3 3.5-13.8H180.4zM204.9 35.3v2.5h-11.1V0.1h2.9v35.3H204.9zM219.1 37.9V0.1h2.9v37.8H219.1zM246.6 27.7L246.6 27.7l-6.2 0.1v-0.1l-1.6 10.2h-2.9l5.8-37.8h3.3l5.9 37.8h-2.8L246.6 27.7zM246.2 25.2l-1.5-9.2 -1.3-11.2L242.1 16l-1.4 9.2H246.2zM279.7 30.3c0 4-2.4 7.9-7.3 7.9 -4.5 0-7.3-3.6-7.3-8V0.1h2.9v30.2c0 2.7 1.3 5.5 4.5 5.5 3.4 0 4.6-2.5 4.6-5.4V0.1h2.8V30.3z"/></svg>