<svg xmlns="http://www.w3.org/2000/svg" version="1.1" x="0" y="0" width="192" height="27" viewBox="0 0 261.2 36.2" enable-background="new 0 0 261.2 36.2" xml:space="preserve"><path fill="#FFFFFF" d="M4 7.2l-0.2 11L3.1 35.4H0L1.6 0.3h4.1l3.7 20.2L11 30.5l1.8-10.1 3.7-20.2h3.9l1.6 35.2h-3.2l-0.8-17.2 0.1-11H18l-2 10.8 -3.4 16.9H9.2L5.9 18 4.2 7.2H4zM39.1 28.5V7.3c0-3.8 2.8-7.3 8.4-7.3 5.1 0 8 3.4 8 7.3v21.1c0 3.7-2.6 7.3-8 7.3C42.2 35.8 39.1 32.5 39.1 28.5zM42.2 7.3v21.2c0 2.6 1.6 4.9 5.2 4.9 3.3 0 4.9-2.3 4.9-4.9V7.3c0-2.5-1.5-5-4.9-5C43.9 2.4 42.2 4.6 42.2 7.3zM73.1 28.5V7.3C73.1 3.5 76 0 81.5 0c5.1 0 8 3.4 8 7.3v21.1c0 3.7-2.6 7.3-8 7.3C76.3 35.8 73.1 32.5 73.1 28.5zM76.3 7.3v21.2c0 2.6 1.6 4.9 5.2 4.9 3.3 0 4.9-2.3 4.9-4.9V7.3c0-2.5-1.5-5-4.9-5C77.9 2.4 76.3 4.6 76.3 7.3zM124.1 28.5c0 7-6.6 6.9-8.5 6.9h-7.8V0.3h7.8c4.2 0 8.5 0.5 8.5 7.1V28.5zM121 7.4c0-4.4-2.4-4.7-5.4-4.7H111V33h4.6c2.5 0 5.4-0.4 5.4-4.5V7.4z"/><path fill="#FFFFFF" d="M140.7 29.1v-3h1.4v3c-0.1 3 1.6 5.8 5.2 5.8 3.4 0 5-2.5 5-5.7 0-1 0-1.2 0-2.5 0-2.9-2.8-4.1-5.7-5.7 -2.9-1.6-5.8-3.5-5.8-6.7 0-1.6 0-5.4 0-7.4 0-3.9 2-7 6.1-7 3.8 0 5.9 2.9 5.9 6.9v4.2h-1.4V6.9c0-3-1.3-5.5-4.5-5.5 -2.7 0-4.7 1.8-4.7 5.6 0 1.9 0 5.6 0 7.3 0.2 2.8 2.4 4.1 4.9 5.5 3.2 1.8 6.7 3.4 6.7 6.8v2.7c0 3.8-2 7.1-6.4 7.1C143.4 36.2 140.6 33.4 140.7 29.1zM168 29c0 0.4 0-6 0-21.8 0-4 2.5-7.2 6.5-7.2 3.9 0 6.5 3.2 6.5 7.2v2.8h-1.3l-0.1-2.8c0-3.1-1.7-5.8-5-5.8 -3 0-5.2 2.2-5.2 5.8 0 1.6 0 1.7 0 21.8 0 2.9 1.7 5.8 5.2 5.8 3.4 0 5-2.7 5-5.7v-2.6h1.4v2.6c0 3.5-2 7.1-6.4 7.1C170.5 36.2 168 33 168 29zM204.9 26h-7.3l-1.5 9.8h-1.4l5.5-35.6h2l5.6 35.6h-1.4L204.9 26zM204.7 24.6l-3.5-22.3 -3.4 22.3H204.7zM234.9 19c0 3.5-2.3 6.9-6.5 6.9h-5v9.9H222V0.3h6.5c3 0 6.5 1.8 6.5 6.8V19zM233.5 7c0-3.4-1.9-5.4-5.1-5.4h-5v23h5c2.6 0 5.1-2.1 5.1-5.6V7zM251.2 1.5v23.2h7.9V26h-7.9v8.5h10v1.3h-11.4V0.3h11.4v1.3H251.2z"/></svg>