<svg width="76" height="49" viewBox="0 0 76 49" fill="none" xmlns="http://www.w3.org/2000/svg">
<g clip-path="url(#clip0_4485_9015)">
<path d="M26.9183 11.81L25.2608 8.50247C25.3208 8.49497 25.3883 8.48747 25.4633 8.47997C25.5383 8.47247 25.6058 8.47247 25.6808 8.47247C25.7408 8.47247 25.8158 8.47247 25.8908 8.47997C25.9658 8.48747 26.0333 8.49497 26.0933 8.50247L27.3158 11.09L28.5233 8.50247C28.5833 8.49497 28.6508 8.48747 28.7108 8.47997C28.7708 8.47247 28.8383 8.47247 28.9058 8.47247C28.9733 8.47247 29.0408 8.47247 29.1083 8.47997C29.1758 8.48747 29.2433 8.49497 29.3033 8.50247L27.6683 11.81V13.715C27.6083 13.7225 27.5408 13.73 27.4808 13.7375C27.4208 13.745 27.3533 13.745 27.2933 13.745C27.2333 13.745 27.1658 13.745 27.0983 13.7375C27.0308 13.73 26.9708 13.7225 26.9183 13.715V11.81V11.81Z" fill="#4A4A49"/>
<path d="M29.6183 9.99503C29.6708 9.98753 29.7233 9.98003 29.7758 9.97253C29.8283 9.96503 29.8808 9.96503 29.9333 9.96503C29.9858 9.96503 30.0383 9.96503 30.0833 9.97253C30.1283 9.98003 30.1808 9.98753 30.2333 9.99503C30.2483 10.07 30.2633 10.16 30.2783 10.28C30.2933 10.4 30.3008 10.4975 30.3008 10.58C30.3458 10.49 30.3983 10.4075 30.4658 10.3325C30.5333 10.25 30.6083 10.1825 30.6983 10.115C30.7883 10.055 30.8933 10.0025 31.0058 9.96503C31.1183 9.92753 31.2533 9.90503 31.3883 9.90503C31.6808 9.90503 31.9058 9.96503 32.0558 10.085C32.2133 10.205 32.3333 10.37 32.4158 10.58C32.4608 10.4975 32.5208 10.415 32.5958 10.3325C32.6633 10.25 32.7458 10.175 32.8283 10.115C32.9183 10.055 33.0158 10.0025 33.1283 9.96503C33.2408 9.92753 33.3683 9.90503 33.5033 9.90503C33.9308 9.90503 34.2458 10.025 34.4408 10.265C34.6358 10.505 34.7333 10.865 34.7333 11.3375V13.7075C34.6808 13.715 34.6208 13.7225 34.5533 13.73C34.4858 13.7375 34.4258 13.7375 34.3733 13.7375C34.3208 13.7375 34.2608 13.7375 34.1933 13.73C34.1258 13.7225 34.0658 13.715 34.0133 13.7075V11.5475C34.0133 11.21 33.9608 10.9625 33.8633 10.7975C33.7583 10.6325 33.5933 10.55 33.3608 10.55C33.1133 10.55 32.9183 10.64 32.7608 10.82C32.6108 11 32.5358 11.2625 32.5358 11.6075V13.715C32.4833 13.7225 32.4233 13.73 32.3558 13.7375C32.2883 13.745 32.2283 13.745 32.1758 13.745C32.1233 13.745 32.0633 13.745 31.9958 13.7375C31.9283 13.73 31.8683 13.7225 31.8158 13.715V11.5025C31.8158 11.18 31.7708 10.9325 31.6733 10.775C31.5758 10.61 31.4183 10.535 31.2083 10.535C31.0883 10.535 30.9758 10.565 30.8708 10.6175C30.7658 10.67 30.6683 10.7525 30.5933 10.8575C30.5108 10.9625 30.4508 11.0975 30.4058 11.2625C30.3608 11.4275 30.3383 11.615 30.3383 11.825V13.7225C30.2858 13.73 30.2258 13.7375 30.1583 13.745C30.0908 13.7525 30.0308 13.7525 29.9783 13.7525C29.9258 13.7525 29.8658 13.7525 29.7983 13.745C29.7308 13.7375 29.6708 13.73 29.6183 13.7225V9.99503V9.99503Z" fill="#4A4A49"/>
<path d="M38.2283 13.0775C38.2658 13.145 38.3033 13.2275 38.3333 13.3325C38.3633 13.4375 38.3783 13.535 38.3858 13.6475C38.1008 13.76 37.7708 13.8125 37.4033 13.8125C36.7808 13.8125 36.3158 13.64 36.0008 13.2875C35.6858 12.935 35.5283 12.4625 35.5283 11.87C35.5283 11.5925 35.5658 11.3375 35.6408 11.0975C35.7158 10.8575 35.8358 10.655 35.9858 10.4825C36.1358 10.31 36.3308 10.1675 36.5558 10.07C36.7808 9.96498 37.0433 9.91998 37.3433 9.91998C37.5458 9.91998 37.7258 9.93498 37.8833 9.95748C38.0408 9.97998 38.1833 10.0175 38.3258 10.07C38.3258 10.1525 38.3183 10.25 38.2958 10.355C38.2733 10.4675 38.2433 10.5575 38.2058 10.64C37.9658 10.5575 37.6958 10.52 37.3958 10.52C37.0208 10.52 36.7433 10.64 36.5633 10.8875C36.3758 11.135 36.2858 11.4575 36.2858 11.87C36.2858 12.335 36.3908 12.6725 36.6008 12.89C36.8108 13.1075 37.0958 13.2125 37.4558 13.2125C37.5983 13.2125 37.7333 13.205 37.8608 13.1825C37.9733 13.16 38.1008 13.1225 38.2283 13.0775Z" fill="#4A4A49"/>
<path d="M39.1358 8.405C39.1883 8.3975 39.2483 8.39 39.3158 8.3825C39.3833 8.375 39.4433 8.375 39.4958 8.375C39.5483 8.375 39.6083 8.375 39.6758 8.3825C39.7433 8.39 39.8033 8.3975 39.8558 8.405V10.565C39.9008 10.4975 39.9533 10.4225 40.0208 10.3475C40.0883 10.2725 40.1633 10.1975 40.2608 10.13C40.3583 10.0625 40.4633 10.01 40.5908 9.9725C40.7108 9.935 40.8533 9.9125 41.0033 9.9125C41.4308 9.9125 41.7458 10.0325 41.9483 10.28C42.1508 10.5275 42.2558 10.8875 42.2558 11.3675V13.7225C42.2033 13.73 42.1433 13.7375 42.0758 13.745C42.0083 13.7525 41.9483 13.7525 41.8958 13.7525C41.8433 13.7525 41.7833 13.7525 41.7158 13.745C41.6483 13.7375 41.5883 13.73 41.5358 13.7225V11.5625C41.5358 11.2175 41.4758 10.97 41.3633 10.805C41.2508 10.64 41.0783 10.565 40.8458 10.565C40.7183 10.565 40.5908 10.5875 40.4708 10.6325C40.3508 10.6775 40.2458 10.7525 40.1483 10.85C40.0583 10.9475 39.9833 11.075 39.9308 11.24C39.8783 11.3975 39.8483 11.5925 39.8483 11.8175V13.7225C39.7958 13.73 39.7358 13.7375 39.6683 13.745C39.6008 13.7525 39.5408 13.7525 39.4883 13.7525C39.4433 13.7525 39.3833 13.7525 39.3158 13.745C39.2483 13.7375 39.1883 13.73 39.1358 13.7225V8.405V8.405Z" fill="#4A4A49"/>
<path d="M42.8033 9.99503C42.8708 9.98753 42.9383 9.98003 43.0058 9.97253C43.0733 9.96503 43.1333 9.96503 43.1858 9.96503C43.2533 9.96503 43.3208 9.96503 43.3958 9.97253C43.4633 9.98003 43.5308 9.98753 43.5833 9.99503L44.3108 13.0325L45.1283 9.99503C45.1808 9.98753 45.2408 9.98003 45.3008 9.97253C45.3608 9.96503 45.4283 9.96503 45.4958 9.96503C45.5708 9.97253 45.6383 9.97253 45.6983 9.97253C45.7508 9.97253 45.8108 9.98003 45.8633 9.98753L46.6733 12.98L47.4008 9.99503C47.4533 9.98753 47.5058 9.98003 47.5583 9.97253C47.6108 9.96503 47.6708 9.96503 47.7308 9.96503C47.7833 9.96503 47.8433 9.96503 47.9108 9.97253C47.9783 9.98003 48.0458 9.98753 48.1133 9.99503L47.0033 13.715C46.9433 13.7225 46.8758 13.73 46.8083 13.7375C46.7408 13.745 46.6808 13.745 46.6283 13.745C46.5758 13.745 46.5158 13.745 46.4558 13.7375C46.3958 13.73 46.3283 13.7225 46.2683 13.715L45.4733 10.9025L44.6408 13.715C44.5733 13.7225 44.5058 13.73 44.4383 13.7375C44.3708 13.745 44.3108 13.745 44.2583 13.745C44.2058 13.745 44.1458 13.745 44.0783 13.7375C44.0108 13.73 43.9508 13.7225 43.8983 13.715L42.8033 9.99503Z" fill="#4A4A49"/>
<path d="M48.9908 10.565H48.5258C48.5183 10.5275 48.5108 10.4825 48.5033 10.43C48.4958 10.3775 48.4958 10.3325 48.4958 10.28C48.4958 10.235 48.4958 10.1825 48.5033 10.13C48.5108 10.0775 48.5183 10.0325 48.5258 9.99498H49.7033V13.715C49.6508 13.7225 49.5908 13.73 49.5233 13.7375C49.4558 13.745 49.3958 13.745 49.3433 13.745C49.2983 13.745 49.2383 13.745 49.1708 13.7375C49.1033 13.73 49.0433 13.7225 48.9908 13.715V10.565ZM48.8333 9.17748C48.8258 9.11748 48.8183 9.05748 48.8183 8.98998C48.8183 8.92248 48.8183 8.86248 48.8183 8.80998C48.8183 8.75748 48.8183 8.69748 48.8183 8.62998C48.8183 8.56248 48.8258 8.50248 48.8333 8.44998C48.8933 8.44248 48.9608 8.43498 49.0358 8.42748C49.1108 8.41998 49.1708 8.41998 49.2233 8.41998C49.2758 8.41998 49.3358 8.41998 49.4108 8.42748C49.4858 8.43498 49.5458 8.44248 49.6058 8.44998C49.6133 8.50248 49.6208 8.56248 49.6208 8.62998C49.6208 8.69748 49.6208 8.75748 49.6208 8.80998C49.6208 8.86248 49.6208 8.92248 49.6208 8.98998C49.6208 9.05748 49.6133 9.11748 49.6058 9.17748C49.5458 9.18498 49.4858 9.19248 49.4108 9.19998C49.3433 9.20748 49.2758 9.20748 49.2233 9.20748C49.1633 9.20748 49.1033 9.20748 49.0283 9.19998C48.9683 9.19248 48.9008 9.18498 48.8333 9.17748Z" fill="#4A4A49"/>
<path d="M50.7758 8.405C50.8283 8.3975 50.8883 8.39 50.9558 8.3825C51.0233 8.375 51.0833 8.375 51.1358 8.375C51.1883 8.375 51.2483 8.375 51.3158 8.3825C51.3833 8.39 51.4433 8.3975 51.4958 8.405V12.5975C51.4958 12.7325 51.5108 12.8375 51.5333 12.92C51.5558 12.995 51.5933 13.055 51.6308 13.1C51.6683 13.145 51.7208 13.1675 51.7733 13.1825C51.8258 13.1975 51.8858 13.1975 51.9533 13.1975C51.9983 13.1975 52.0433 13.1975 52.1033 13.19C52.1558 13.1825 52.2083 13.175 52.2458 13.1675C52.2908 13.34 52.3133 13.52 52.3133 13.7225C52.2458 13.745 52.1633 13.76 52.0658 13.7675C51.9683 13.775 51.8783 13.775 51.7958 13.775C51.6533 13.775 51.5258 13.76 51.4058 13.7225C51.2858 13.6925 51.1808 13.6325 51.0833 13.5575C50.9933 13.4825 50.9183 13.3775 50.8658 13.2425C50.8133 13.115 50.7833 12.95 50.7833 12.755V8.405H50.7758Z" fill="#4A4A49"/>
<path d="M54.5858 8.50247C54.6458 8.49497 54.7058 8.48747 54.7658 8.47997C54.8258 8.47247 54.8933 8.47247 54.9533 8.47247C55.0133 8.47247 55.0808 8.47247 55.1408 8.47997C55.2008 8.48747 55.2608 8.49497 55.3208 8.50247V13.7225C55.2608 13.73 55.2008 13.7375 55.1408 13.745C55.0808 13.7525 55.0133 13.7525 54.9458 13.7525C54.8858 13.7525 54.8183 13.7525 54.7508 13.745C54.6833 13.7375 54.6233 13.73 54.5708 13.7225V8.50247H54.5858Z" fill="#4A4A49"/>
<path d="M57.0158 12.035C57.0233 12.44 57.1283 12.74 57.3308 12.9275C57.5333 13.115 57.8258 13.2125 58.2158 13.2125C58.5608 13.2125 58.8833 13.1525 59.1983 13.0325C59.2358 13.1075 59.2658 13.19 59.2958 13.295C59.3183 13.4 59.3333 13.505 59.3408 13.6025C59.1833 13.67 59.0033 13.7225 58.8158 13.7525C58.6283 13.7825 58.4108 13.805 58.1783 13.805C57.8408 13.805 57.5483 13.76 57.3083 13.6625C57.0683 13.565 56.8658 13.4375 56.7083 13.265C56.5508 13.0925 56.4383 12.89 56.3633 12.6575C56.2883 12.425 56.2583 12.1625 56.2583 11.885C56.2583 11.6075 56.2958 11.3525 56.3633 11.1125C56.4308 10.8725 56.5433 10.6625 56.6858 10.49C56.8283 10.31 57.0158 10.175 57.2333 10.07C57.4508 9.96498 57.7133 9.91248 58.0133 9.91248C58.2683 9.91248 58.4933 9.95748 58.6883 10.04C58.8833 10.13 59.0408 10.25 59.1758 10.4C59.3033 10.55 59.4083 10.73 59.4758 10.9475C59.5433 11.1575 59.5808 11.39 59.5808 11.63C59.5808 11.6975 59.5808 11.7725 59.5733 11.8475C59.5658 11.9225 59.5658 11.99 59.5583 12.0425H57.0158V12.035ZM58.8533 11.5025C58.8533 11.3675 58.8383 11.24 58.8008 11.1125C58.7633 10.9925 58.7108 10.88 58.6433 10.79C58.5758 10.7 58.4858 10.625 58.3733 10.565C58.2608 10.5125 58.1333 10.4825 57.9833 10.4825C57.6908 10.4825 57.4583 10.5725 57.3083 10.7525C57.1508 10.9325 57.0533 11.18 57.0233 11.5025H58.8533Z" fill="#4A4A49"/>
<path d="M62.9183 13.0775C62.9558 13.145 62.9933 13.2275 63.0233 13.3325C63.0533 13.4375 63.0683 13.535 63.0758 13.6475C62.7908 13.76 62.4608 13.8125 62.0933 13.8125C61.4708 13.8125 61.0058 13.64 60.6908 13.2875C60.3758 12.935 60.2183 12.4625 60.2183 11.87C60.2183 11.5925 60.2558 11.3375 60.3308 11.0975C60.4058 10.8575 60.5258 10.655 60.6758 10.4825C60.8258 10.31 61.0208 10.1675 61.2458 10.07C61.4708 9.96498 61.7333 9.91998 62.0333 9.91998C62.2358 9.91998 62.4158 9.93498 62.5733 9.95748C62.7308 9.97998 62.8733 10.0175 63.0158 10.07C63.0158 10.1525 63.0083 10.25 62.9858 10.355C62.9633 10.4675 62.9333 10.5575 62.8958 10.64C62.6558 10.5575 62.3858 10.52 62.0858 10.52C61.7108 10.52 61.4333 10.64 61.2533 10.8875C61.0658 11.135 60.9758 11.4575 60.9758 11.87C60.9758 12.335 61.0808 12.6725 61.2908 12.89C61.5008 13.1075 61.7858 13.2125 62.1458 13.2125C62.2883 13.2125 62.4233 13.205 62.5508 13.1825C62.6708 13.16 62.7908 13.1225 62.9183 13.0775Z" fill="#4A4A49"/>
<path d="M63.8258 8.405C63.8783 8.3975 63.9383 8.39 64.0058 8.3825C64.0733 8.375 64.1333 8.375 64.1858 8.375C64.2383 8.375 64.2983 8.375 64.3658 8.3825C64.4333 8.39 64.4933 8.3975 64.5458 8.405V10.565C64.5908 10.4975 64.6433 10.4225 64.7108 10.3475C64.7783 10.2725 64.8533 10.1975 64.9508 10.13C65.0483 10.0625 65.1533 10.01 65.2808 9.9725C65.4008 9.935 65.5433 9.9125 65.6933 9.9125C66.1208 9.9125 66.4358 10.0325 66.6383 10.28C66.8408 10.5275 66.9458 10.8875 66.9458 11.3675V13.7225C66.8933 13.73 66.8333 13.7375 66.7658 13.745C66.6983 13.7525 66.6383 13.7525 66.5858 13.7525C66.5333 13.7525 66.4733 13.7525 66.4058 13.745C66.3383 13.7375 66.2783 13.73 66.2258 13.7225V11.5625C66.2258 11.2175 66.1658 10.97 66.0533 10.805C65.9408 10.64 65.7683 10.565 65.5358 10.565C65.4083 10.565 65.2808 10.5875 65.1608 10.6325C65.0408 10.6775 64.9358 10.7525 64.8383 10.85C64.7483 10.9475 64.6733 11.075 64.6208 11.24C64.5683 11.3975 64.5383 11.5925 64.5383 11.8175V13.7225C64.4858 13.73 64.4258 13.7375 64.3583 13.745C64.2908 13.7525 64.2308 13.7525 64.1783 13.7525C64.1333 13.7525 64.0733 13.7525 64.0058 13.745C63.9383 13.7375 63.8783 13.73 63.8258 13.7225V8.405V8.405Z" fill="#4A4A49"/>
<path d="M69.2258 13.73C69.1883 13.73 69.1433 13.73 69.1058 13.73C69.0683 13.73 69.0233 13.73 68.9858 13.73C68.9408 13.73 68.8883 13.73 68.8358 13.73C68.7833 13.73 68.7383 13.7225 68.7083 13.7225L67.4783 10.0025C67.5383 9.99498 67.6058 9.98748 67.6733 9.98748C67.7408 9.98748 67.8008 9.98748 67.8608 9.98748C67.9208 9.98748 67.9958 9.98748 68.0708 9.98748C68.1458 9.98748 68.2133 9.99498 68.2658 10.0025L69.2933 13.46L70.3583 10.0025C70.4558 9.98748 70.5758 9.97998 70.7108 9.97998C70.7633 9.97998 70.8233 9.97998 70.8908 9.97998C70.9583 9.97998 71.0258 9.98748 71.0933 9.99498L69.6458 14.4725C69.5783 14.6675 69.5108 14.84 69.4358 14.975C69.3608 15.11 69.2783 15.2225 69.1883 15.305C69.0983 15.3875 68.9933 15.4475 68.8808 15.4775C68.7683 15.515 68.6333 15.53 68.4833 15.53C68.3708 15.53 68.2658 15.5225 68.1533 15.5075C68.0408 15.4925 67.9508 15.47 67.8683 15.4475C67.8683 15.335 67.8758 15.2375 67.8983 15.1475C67.9208 15.0575 67.9433 14.975 67.9883 14.885C68.0333 14.9 68.0933 14.915 68.1683 14.93C68.2433 14.945 68.3258 14.9525 68.4083 14.9525C68.4683 14.9525 68.5283 14.945 68.5883 14.9375C68.6408 14.9225 68.6933 14.9 68.7458 14.8625C68.7908 14.825 68.8358 14.7725 68.8808 14.705C68.9258 14.6375 68.9633 14.5475 69.0008 14.4275L69.2258 13.73Z" fill="#4A4A49"/>
<path d="M73.9958 8.405C74.0483 8.3975 74.1083 8.39 74.1758 8.3825C74.2433 8.375 74.3033 8.375 74.3483 8.375C74.4008 8.375 74.4608 8.375 74.5283 8.3825C74.5958 8.39 74.6558 8.3975 74.7083 8.405V13.625C74.5208 13.6775 74.3183 13.7225 74.0933 13.76C73.8683 13.7975 73.6133 13.8125 73.3283 13.8125C73.0658 13.8125 72.8183 13.7825 72.5858 13.715C72.3533 13.6475 72.1433 13.5425 71.9708 13.3925C71.7983 13.2425 71.6558 13.0475 71.5583 12.815C71.4533 12.575 71.4083 12.2825 71.4083 11.9375C71.4083 11.6375 71.4533 11.3675 71.5433 11.12C71.6333 10.8725 71.7608 10.6625 71.9258 10.4825C72.0908 10.3025 72.2858 10.1675 72.5183 10.07C72.7508 9.9725 73.0058 9.9275 73.2833 9.9275C73.4108 9.9275 73.5383 9.935 73.6658 9.9575C73.7933 9.98 73.9058 10.0025 74.0033 10.0325V8.405H73.9958ZM73.9958 10.6325C73.8983 10.595 73.7933 10.565 73.6808 10.5425C73.5683 10.52 73.4483 10.5125 73.3208 10.5125C73.1258 10.5125 72.9533 10.55 72.8033 10.625C72.6608 10.7 72.5408 10.7975 72.4433 10.925C72.3458 11.0525 72.2783 11.2025 72.2333 11.375C72.1883 11.5475 72.1658 11.735 72.1658 11.9375C72.1733 12.395 72.2783 12.725 72.4883 12.9275C72.6983 13.1225 72.9908 13.2275 73.3583 13.2275C73.4858 13.2275 73.5983 13.22 73.7033 13.2125C73.8083 13.1975 73.9058 13.1825 73.9883 13.16V10.6325H73.9958Z" fill="#4A4A49"/>
<path d="M27.6833 19.2725C27.6833 18.9875 27.6083 18.7925 27.4658 18.68C27.3233 18.5675 27.1133 18.515 26.8358 18.515C26.6633 18.515 26.5058 18.53 26.3633 18.5525C26.2133 18.5825 26.0708 18.6125 25.9283 18.6575C25.8383 18.5 25.7933 18.305 25.7933 18.0875C25.9583 18.035 26.1383 17.99 26.3408 17.9675C26.5358 17.9375 26.7308 17.9225 26.9108 17.9225C27.3908 17.9225 27.7658 18.035 28.0133 18.2525C28.2683 18.47 28.3883 18.8225 28.3883 19.31V21.6425C28.2158 21.68 28.0133 21.7175 27.7733 21.7625C27.5333 21.8 27.2858 21.8225 27.0308 21.8225C26.7908 21.8225 26.5808 21.8 26.3858 21.755C26.1983 21.71 26.0333 21.6425 25.8983 21.545C25.7633 21.4475 25.6658 21.3275 25.5908 21.1775C25.5158 21.0275 25.4783 20.8475 25.4783 20.63C25.4783 20.42 25.5233 20.24 25.6058 20.0825C25.6883 19.925 25.8083 19.7975 25.9508 19.6925C26.0933 19.5875 26.2658 19.5125 26.4533 19.46C26.6408 19.4075 26.8433 19.385 27.0458 19.385C27.2033 19.385 27.3308 19.3925 27.4283 19.3925C27.5258 19.4 27.6083 19.4075 27.6758 19.415V19.2725H27.6833ZM27.6833 19.9775C27.6083 19.97 27.5183 19.955 27.4058 19.9475C27.2933 19.94 27.2033 19.9325 27.1208 19.9325C26.8208 19.9325 26.5958 19.985 26.4383 20.0975C26.2808 20.21 26.2058 20.375 26.2058 20.6075C26.2058 20.75 26.2358 20.8625 26.2883 20.945C26.3408 21.0275 26.4083 21.0875 26.4908 21.1325C26.5733 21.1775 26.6558 21.2 26.7533 21.215C26.8508 21.2225 26.9408 21.23 27.0308 21.23C27.1433 21.23 27.2558 21.2225 27.3758 21.215C27.4958 21.2 27.6008 21.185 27.6908 21.1625V19.9775H27.6833Z" fill="#4A4A49"/>
<path d="M34.1183 19.025C34.1783 19.0175 34.2383 19.01 34.2983 19.0025C34.3583 18.995 34.4258 18.995 34.4858 18.995C34.5458 18.995 34.6133 18.995 34.6733 19.0025C34.7333 19.01 34.7933 19.0175 34.8458 19.025V21.575C34.7408 21.62 34.6358 21.6575 34.5083 21.6875C34.3883 21.7175 34.2608 21.74 34.1333 21.7625C34.0058 21.7775 33.8708 21.7925 33.7433 21.8C33.6158 21.8075 33.4883 21.815 33.3758 21.815C32.9858 21.815 32.6408 21.755 32.3333 21.635C32.0258 21.515 31.7633 21.335 31.5533 21.11C31.3433 20.8775 31.1783 20.6 31.0658 20.27C30.9533 19.94 30.8933 19.565 30.8933 19.1525C30.8933 18.74 30.9533 18.3575 31.0658 18.0275C31.1783 17.69 31.3508 17.405 31.5608 17.165C31.7783 16.925 32.0333 16.745 32.3333 16.6175C32.6333 16.49 32.9633 16.4225 33.3233 16.4225C33.6008 16.4225 33.8408 16.4375 34.0433 16.475C34.2458 16.5125 34.4333 16.5575 34.5983 16.625C34.5908 16.7375 34.5683 16.8425 34.5383 16.9325C34.5083 17.03 34.4708 17.1275 34.4258 17.2325C34.2908 17.1875 34.1408 17.15 33.9833 17.12C33.8258 17.0825 33.6308 17.0675 33.3908 17.0675C33.1358 17.0675 32.9033 17.1125 32.6933 17.2025C32.4833 17.2925 32.3033 17.4275 32.1533 17.6075C32.0033 17.7875 31.8908 18.005 31.8083 18.26C31.7258 18.5225 31.6883 18.815 31.6883 19.1525C31.6883 19.4975 31.7333 19.79 31.8158 20.045C31.8983 20.2925 32.0183 20.5025 32.1758 20.6675C32.3333 20.8325 32.5133 20.96 32.7233 21.035C32.9333 21.1175 33.1658 21.155 33.4208 21.155C33.5783 21.155 33.7133 21.1475 33.8258 21.1325C33.9383 21.1175 34.0433 21.095 34.1258 21.0725V19.025H34.1183Z" fill="#4A4A49"/>
<path d="M37.4183 21.815C37.1258 21.815 36.8708 21.7625 36.6533 21.665C36.4358 21.5675 36.2558 21.4325 36.1058 21.2525C35.9633 21.08 35.8508 20.87 35.7833 20.6375C35.7158 20.3975 35.6783 20.1425 35.6783 19.865C35.6783 19.5875 35.7158 19.3325 35.7833 19.0925C35.8508 18.8525 35.9633 18.65 36.1058 18.4775C36.2483 18.305 36.4358 18.1625 36.6533 18.065C36.8708 17.96 37.1258 17.915 37.4183 17.915C37.7108 17.915 37.9658 17.9675 38.1833 18.065C38.4008 18.17 38.5808 18.305 38.7308 18.4775C38.8733 18.65 38.9858 18.86 39.0533 19.0925C39.1208 19.3325 39.1583 19.5875 39.1583 19.865C39.1583 20.1425 39.1208 20.3975 39.0533 20.6375C38.9858 20.8775 38.8733 21.08 38.7308 21.2525C38.5883 21.425 38.4008 21.56 38.1833 21.665C37.9658 21.7625 37.7108 21.815 37.4183 21.815ZM37.4183 21.2375C37.7558 21.2375 37.9958 21.1175 38.1608 20.8775C38.3183 20.6375 38.4008 20.3 38.4008 19.8725C38.4008 19.445 38.3183 19.1075 38.1608 18.8675C38.0033 18.6275 37.7558 18.5075 37.4183 18.5075C37.0808 18.5075 36.8408 18.6275 36.6833 18.8675C36.5258 19.1075 36.4508 19.445 36.4508 19.8725C36.4508 20.3 36.5258 20.6375 36.6833 20.8775C36.8408 21.1175 37.0883 21.2375 37.4183 21.2375Z" fill="#4A4A49"/>
<path d="M40.2458 18.5675H39.6383C39.6158 18.4925 39.6083 18.395 39.6083 18.2825C39.6083 18.1775 39.6158 18.08 39.6383 17.9975H40.2458V17.735C40.2458 17.2775 40.3583 16.925 40.5908 16.685C40.8233 16.445 41.1533 16.325 41.5958 16.325C41.7158 16.325 41.8208 16.3325 41.9183 16.34C42.0083 16.355 42.0983 16.37 42.1808 16.3925C42.1733 16.5125 42.1583 16.6175 42.1433 16.7075C42.1283 16.7975 42.1058 16.8875 42.0758 16.9775C42.0308 16.97 41.9708 16.955 41.9033 16.9475C41.8358 16.9325 41.7608 16.9325 41.6708 16.9325C41.5658 16.9325 41.4683 16.94 41.3858 16.9625C41.3033 16.985 41.2283 17.0225 41.1683 17.0825C41.1083 17.1425 41.0633 17.225 41.0258 17.3375C40.9883 17.45 40.9733 17.585 40.9733 17.7575V17.9975H41.9258C41.9408 18.095 41.9483 18.1925 41.9483 18.2975C41.9483 18.3875 41.9408 18.4775 41.9258 18.5675H40.9733V21.725C40.9208 21.7325 40.8608 21.74 40.7933 21.7475C40.7258 21.755 40.6658 21.755 40.6133 21.755C40.5608 21.755 40.5008 21.755 40.4333 21.7475C40.3658 21.74 40.3058 21.7325 40.2533 21.725V18.5675H40.2458Z" fill="#4A4A49"/>
<path d="M44.4983 19.2725C44.4983 18.9875 44.4233 18.7925 44.2808 18.68C44.1383 18.5675 43.9283 18.515 43.6508 18.515C43.4783 18.515 43.3208 18.53 43.1783 18.5525C43.0283 18.5825 42.8858 18.6125 42.7433 18.6575C42.6533 18.5 42.6083 18.305 42.6083 18.0875C42.7733 18.035 42.9533 17.99 43.1558 17.9675C43.3508 17.9375 43.5458 17.9225 43.7258 17.9225C44.2058 17.9225 44.5808 18.035 44.8283 18.2525C45.0833 18.47 45.2033 18.8225 45.2033 19.31V21.6425C45.0308 21.68 44.8283 21.7175 44.5883 21.7625C44.3483 21.8 44.1008 21.8225 43.8458 21.8225C43.6058 21.8225 43.3958 21.8 43.2008 21.755C43.0133 21.71 42.8483 21.6425 42.7133 21.545C42.5783 21.4475 42.4808 21.3275 42.4058 21.1775C42.3308 21.0275 42.2933 20.8475 42.2933 20.63C42.2933 20.42 42.3383 20.24 42.4208 20.0825C42.5033 19.925 42.6233 19.7975 42.7658 19.6925C42.9083 19.5875 43.0808 19.5125 43.2683 19.46C43.4558 19.4075 43.6583 19.385 43.8608 19.385C44.0183 19.385 44.1458 19.3925 44.2433 19.3925C44.3408 19.4 44.4233 19.4075 44.4908 19.415V19.2725H44.4983ZM44.4983 19.9775C44.4233 19.97 44.3333 19.955 44.2208 19.9475C44.1083 19.94 44.0183 19.9325 43.9358 19.9325C43.6358 19.9325 43.4033 19.985 43.2533 20.0975C43.0958 20.21 43.0208 20.375 43.0208 20.6075C43.0208 20.75 43.0508 20.8625 43.1033 20.945C43.1558 21.0275 43.2233 21.0875 43.3058 21.1325C43.3883 21.1775 43.4708 21.2 43.5683 21.215C43.6658 21.2225 43.7558 21.23 43.8458 21.23C43.9583 21.23 44.0708 21.2225 44.1908 21.215C44.3108 21.2 44.4158 21.185 44.5058 21.1625V19.9775H44.4983Z" fill="#4A4A49"/>
<path d="M46.1933 16.4075C46.2458 16.4 46.3058 16.3925 46.3733 16.385C46.4408 16.3775 46.5008 16.3775 46.5533 16.3775C46.6058 16.3775 46.6658 16.3775 46.7333 16.385C46.8008 16.3925 46.8608 16.4 46.9133 16.4075V20.6C46.9133 20.735 46.9283 20.84 46.9508 20.9225C46.9733 20.9975 47.0108 21.0575 47.0483 21.1025C47.0858 21.1475 47.1383 21.17 47.1908 21.185C47.2433 21.2 47.3033 21.2 47.3708 21.2C47.4158 21.2 47.4608 21.2 47.5208 21.1925C47.5733 21.185 47.6258 21.1775 47.6633 21.17C47.7083 21.3425 47.7308 21.5225 47.7308 21.725C47.6633 21.7475 47.5808 21.7625 47.4833 21.77C47.3858 21.7775 47.2958 21.7775 47.2133 21.7775C47.0708 21.7775 46.9433 21.7625 46.8233 21.725C46.7033 21.695 46.5983 21.635 46.5008 21.56C46.4108 21.485 46.3358 21.38 46.2833 21.245C46.2308 21.1175 46.2008 20.9525 46.2008 20.7575V16.4075H46.1933Z" fill="#4A4A49"/>
<path d="M53.3333 20.9675C53.4383 21.1775 53.5058 21.3725 53.5358 21.5675C53.3333 21.6575 53.1233 21.7175 52.9133 21.755C52.7033 21.7925 52.4708 21.815 52.2233 21.815C51.8483 21.815 51.5033 21.755 51.2033 21.6275C50.9033 21.5075 50.6483 21.3275 50.4383 21.095C50.2283 20.8625 50.0708 20.585 49.9583 20.255C49.8458 19.925 49.7933 19.5575 49.7933 19.145C49.7933 18.7325 49.8458 18.35 49.9583 18.02C50.0708 17.6825 50.2283 17.3975 50.4383 17.1575C50.6483 16.9175 50.9033 16.7375 51.2033 16.61C51.5033 16.4825 51.8408 16.415 52.2083 16.415C52.4858 16.415 52.7183 16.4375 52.9208 16.475C53.1158 16.5125 53.2958 16.5575 53.4533 16.61C53.4458 16.7225 53.4233 16.8275 53.3933 16.9175C53.3633 17.015 53.3258 17.1125 53.2808 17.2175C53.2058 17.195 53.1383 17.1725 53.0708 17.15C53.0033 17.1275 52.9283 17.1125 52.8533 17.0975C52.7783 17.0825 52.6883 17.075 52.5983 17.0675C52.5008 17.06 52.3958 17.06 52.2758 17.06C51.7508 17.06 51.3383 17.24 51.0458 17.6C50.7533 17.96 50.6033 18.47 50.6033 19.145C50.6033 19.49 50.6408 19.7825 50.7233 20.0375C50.8058 20.2925 50.9183 20.495 51.0683 20.66C51.2183 20.825 51.3983 20.945 51.6083 21.0275C51.8183 21.11 52.0583 21.1475 52.3133 21.1475C52.5158 21.1475 52.7033 21.1325 52.8683 21.095C53.0333 21.0725 53.1908 21.0275 53.3333 20.9675Z" fill="#CF131E"/>
<path d="M55.5008 21.7325C55.4633 21.7325 55.4183 21.7325 55.3808 21.7325C55.3433 21.7325 55.2983 21.7325 55.2608 21.7325C55.2158 21.7325 55.1633 21.7325 55.1108 21.7325C55.0583 21.7325 55.0133 21.725 54.9833 21.725L53.7458 18.005C53.8058 17.9975 53.8733 17.99 53.9408 17.99C54.0083 17.99 54.0683 17.99 54.1283 17.99C54.1883 17.99 54.2633 17.99 54.3383 17.99C54.4133 17.99 54.4808 17.9975 54.5333 18.005L55.5608 21.4625L56.6258 18.005C56.7308 17.99 56.8433 17.9825 56.9783 17.9825C57.0308 17.9825 57.0908 17.9825 57.1583 17.9825C57.2258 17.9825 57.2933 17.99 57.3608 17.9975L55.9133 22.475C55.8458 22.67 55.7783 22.8425 55.7033 22.9775C55.6283 23.1125 55.5458 23.225 55.4558 23.3075C55.3658 23.39 55.2608 23.45 55.1483 23.48C55.0358 23.5175 54.9008 23.5325 54.7508 23.5325C54.6383 23.5325 54.5258 23.525 54.4208 23.51C54.3083 23.495 54.2183 23.4725 54.1358 23.45C54.1358 23.3375 54.1433 23.24 54.1658 23.15C54.1883 23.06 54.2108 22.9775 54.2558 22.8875C54.3008 22.9025 54.3608 22.9175 54.4358 22.9325C54.5108 22.9475 54.5933 22.955 54.6758 22.955C54.7358 22.955 54.7958 22.9475 54.8558 22.94C54.9083 22.925 54.9608 22.9025 55.0133 22.865C55.0658 22.8275 55.1033 22.775 55.1483 22.7075C55.1858 22.64 55.2308 22.55 55.2683 22.43L55.5008 21.7325Z" fill="#CF131E"/>
<path d="M57.9983 18.005C58.0508 17.9975 58.1033 17.99 58.1558 17.9825C58.2083 17.975 58.2608 17.975 58.3133 17.975C58.3658 17.975 58.4183 17.975 58.4633 17.9825C58.5083 17.99 58.5608 17.9975 58.6133 18.005C58.6283 18.08 58.6433 18.17 58.6583 18.29C58.6733 18.41 58.6808 18.5075 58.6808 18.59C58.7258 18.5 58.7783 18.4175 58.8458 18.3425C58.9133 18.26 58.9883 18.1925 59.0783 18.125C59.1683 18.065 59.2733 18.0125 59.3858 17.975C59.4983 17.9375 59.6333 17.915 59.7683 17.915C60.0608 17.915 60.2858 17.975 60.4433 18.095C60.6008 18.215 60.7208 18.38 60.8033 18.59C60.8483 18.5075 60.9083 18.425 60.9833 18.3425C61.0508 18.26 61.1333 18.185 61.2158 18.125C61.3058 18.065 61.4033 18.0125 61.5158 17.975C61.6283 17.9375 61.7558 17.915 61.8908 17.915C62.3183 17.915 62.6333 18.035 62.8283 18.275C63.0233 18.515 63.1208 18.875 63.1208 19.3475V21.7175C63.0683 21.725 63.0083 21.7325 62.9408 21.74C62.8733 21.7475 62.8133 21.7475 62.7608 21.7475C62.7083 21.7475 62.6483 21.7475 62.5808 21.74C62.5133 21.7325 62.4533 21.725 62.4008 21.7175V19.5575C62.4008 19.22 62.3483 18.9725 62.2508 18.8075C62.1458 18.6425 61.9808 18.56 61.7483 18.56C61.5008 18.56 61.2983 18.65 61.1483 18.83C60.9983 19.01 60.9233 19.2725 60.9233 19.6175V21.725C60.8708 21.7325 60.8108 21.74 60.7433 21.7475C60.6758 21.755 60.6158 21.755 60.5633 21.755C60.5108 21.755 60.4508 21.755 60.3833 21.7475C60.3158 21.74 60.2558 21.7325 60.2033 21.725V19.5125C60.2033 19.19 60.1583 18.9425 60.0608 18.785C59.9633 18.62 59.8133 18.545 59.5958 18.545C59.4758 18.545 59.3633 18.575 59.2583 18.6275C59.1533 18.68 59.0558 18.7625 58.9808 18.8675C58.8983 18.9725 58.8383 19.1075 58.7933 19.2725C58.7483 19.4375 58.7258 19.625 58.7258 19.835V21.7325C58.6733 21.74 58.6133 21.7475 58.5458 21.755C58.4783 21.7625 58.4183 21.7625 58.3658 21.7625C58.3133 21.7625 58.2533 21.7625 58.1858 21.755C58.1183 21.7475 58.0583 21.74 58.0058 21.7325V18.005H57.9983Z" fill="#CF131E"/>
<path d="M64.1258 18.005C64.1783 17.9975 64.2308 17.99 64.2758 17.9825C64.3208 17.975 64.3733 17.975 64.4258 17.975C64.4783 17.975 64.5308 17.975 64.5833 17.9825C64.6358 17.99 64.6883 17.9975 64.7258 18.005C64.7408 18.08 64.7558 18.17 64.7708 18.29C64.7858 18.41 64.7933 18.5075 64.7933 18.59C64.8983 18.425 65.0258 18.2825 65.1983 18.1625C65.3633 18.0425 65.5808 17.9825 65.8433 17.9825C65.8808 17.9825 65.9183 17.9825 65.9633 17.9825C66.0008 17.9825 66.0383 17.99 66.0683 17.99C66.0758 18.035 66.0833 18.08 66.0908 18.125C66.0983 18.17 66.0983 18.2225 66.0983 18.275C66.0983 18.335 66.0983 18.395 66.0908 18.455C66.0833 18.515 66.0758 18.575 66.0683 18.635C66.0308 18.6275 65.9858 18.62 65.9483 18.62C65.9108 18.62 65.8733 18.62 65.8508 18.62C65.7233 18.62 65.5958 18.635 65.4758 18.6725C65.3558 18.71 65.2508 18.77 65.1533 18.8675C65.0558 18.9575 64.9808 19.085 64.9283 19.2425C64.8758 19.4 64.8458 19.61 64.8458 19.8575V21.71C64.7933 21.7175 64.7333 21.725 64.6658 21.7325C64.5983 21.74 64.5383 21.74 64.4858 21.74C64.4333 21.74 64.3733 21.74 64.3058 21.7325C64.2383 21.725 64.1783 21.7175 64.1183 21.71V18.005H64.1258Z" fill="#CF131E"/>
<path d="M66.7058 18.005C66.7583 17.9975 66.8183 17.99 66.8858 17.9825C66.9533 17.975 67.0133 17.975 67.0583 17.975C67.1108 17.975 67.1708 17.975 67.2383 17.9825C67.3058 17.99 67.3658 17.9975 67.4183 18.005V20.045C67.4183 20.2775 67.4408 20.4725 67.4858 20.6225C67.5308 20.7725 67.5908 20.8925 67.6808 20.9825C67.7708 21.0725 67.8758 21.1325 68.0033 21.1625C68.1308 21.2 68.2733 21.215 68.4383 21.215C68.6858 21.215 68.8958 21.185 69.0683 21.1325V18.005C69.1208 17.9975 69.1808 17.99 69.2483 17.9825C69.3158 17.975 69.3758 17.975 69.4283 17.975C69.4808 17.975 69.5408 17.975 69.6083 17.9825C69.6758 17.99 69.7358 17.9975 69.7883 18.005V21.6125C69.6158 21.6575 69.4208 21.71 69.1808 21.7475C68.9483 21.7925 68.7008 21.815 68.4533 21.815C68.2133 21.815 67.9958 21.7925 67.7858 21.755C67.5758 21.7175 67.3883 21.6275 67.2308 21.5075C67.0733 21.38 66.9458 21.2075 66.8558 20.975C66.7658 20.75 66.7208 20.45 66.7208 20.075V18.005H66.7058Z" fill="#CF131E"/>
<path d="M25.7783 27.1475C25.8383 27.14 25.8983 27.1325 25.9583 27.125C26.0183 27.1175 26.0858 27.1175 26.1458 27.1175C26.2058 27.1175 26.2733 27.1175 26.3333 27.125C26.3933 27.1325 26.4533 27.14 26.5133 27.1475V29.2925H28.7333V27.1475C28.7858 27.14 28.8458 27.1325 28.9058 27.125C28.9658 27.1175 29.0333 27.1175 29.0933 27.1175C29.1533 27.1175 29.2208 27.1175 29.2883 27.125C29.3558 27.1325 29.4158 27.14 29.4758 27.1475V32.3675C29.4233 32.375 29.3633 32.3825 29.3033 32.39C29.2433 32.3975 29.1758 32.3975 29.1083 32.3975C29.0483 32.3975 28.9808 32.3975 28.9133 32.39C28.8458 32.3825 28.7858 32.375 28.7333 32.3675V29.9525H26.5133V32.3675C26.4533 32.375 26.3933 32.3825 26.3333 32.39C26.2733 32.3975 26.2058 32.3975 26.1383 32.3975C26.0783 32.3975 26.0108 32.3975 25.9433 32.39C25.8758 32.3825 25.8158 32.375 25.7633 32.3675V27.1475H25.7783Z" fill="#4A4A49"/>
<path d="M31.1558 30.68C31.1633 31.085 31.2683 31.385 31.4708 31.5725C31.6733 31.76 31.9658 31.8575 32.3633 31.8575C32.7083 31.8575 33.0308 31.7975 33.3458 31.6775C33.3833 31.7525 33.4133 31.835 33.4433 31.94C33.4658 32.045 33.4808 32.15 33.4883 32.2475C33.3308 32.315 33.1508 32.3675 32.9633 32.3975C32.7758 32.435 32.5583 32.45 32.3258 32.45C31.9883 32.45 31.6958 32.405 31.4558 32.3075C31.2158 32.21 31.0133 32.0825 30.8558 31.91C30.6983 31.7375 30.5858 31.535 30.5108 31.3025C30.4358 31.07 30.3983 30.8075 30.3983 30.53C30.3983 30.2525 30.4358 29.9975 30.5033 29.7575C30.5708 29.5175 30.6833 29.3075 30.8258 29.135C30.9683 28.955 31.1558 28.82 31.3733 28.715C31.5908 28.61 31.8533 28.5575 32.1533 28.5575C32.4083 28.5575 32.6333 28.6025 32.8283 28.685C33.0233 28.775 33.1808 28.895 33.3158 29.045C33.4433 29.195 33.5483 29.375 33.6158 29.5925C33.6833 29.8025 33.7208 30.035 33.7208 30.275C33.7208 30.3425 33.7208 30.4175 33.7133 30.4925C33.7058 30.5675 33.7058 30.635 33.6983 30.6875H31.1558V30.68ZM33.0008 30.14C33.0008 30.005 32.9858 29.8775 32.9483 29.75C32.9108 29.63 32.8583 29.5175 32.7908 29.4275C32.7233 29.3375 32.6333 29.2625 32.5208 29.21C32.4083 29.1575 32.2808 29.1275 32.1308 29.1275C31.8383 29.1275 31.6058 29.2175 31.4558 29.3975C31.2983 29.5775 31.2008 29.825 31.1708 30.1475H33.0008V30.14Z" fill="#4A4A49"/>
<path d="M36.5483 29.9075C36.5483 29.6225 36.4733 29.42 36.3308 29.315C36.1883 29.2025 35.9783 29.15 35.7008 29.15C35.5283 29.15 35.3708 29.165 35.2283 29.1875C35.0783 29.2175 34.9358 29.2475 34.7933 29.2925C34.7033 29.135 34.6583 28.94 34.6583 28.7225C34.8233 28.67 35.0033 28.625 35.2058 28.6025C35.4008 28.5725 35.5958 28.5575 35.7758 28.5575C36.2558 28.5575 36.6308 28.67 36.8783 28.8875C37.1333 29.105 37.2533 29.4575 37.2533 29.945V32.2775C37.0808 32.315 36.8783 32.36 36.6383 32.3975C36.3983 32.435 36.1508 32.4575 35.8958 32.4575C35.6558 32.4575 35.4458 32.435 35.2508 32.39C35.0633 32.345 34.8983 32.2775 34.7633 32.18C34.6283 32.0825 34.5308 31.9625 34.4558 31.8125C34.3808 31.6625 34.3433 31.4825 34.3433 31.265C34.3433 31.055 34.3883 30.875 34.4708 30.7175C34.5533 30.56 34.6733 30.4325 34.8158 30.3275C34.9583 30.2225 35.1308 30.1475 35.3183 30.095C35.5058 30.0425 35.7083 30.02 35.9108 30.02C36.0683 30.02 36.1958 30.02 36.2933 30.0275C36.3908 30.035 36.4733 30.0425 36.5408 30.05V29.9075H36.5483ZM36.5483 30.6125C36.4733 30.605 36.3833 30.59 36.2708 30.5825C36.1583 30.575 36.0683 30.5675 35.9858 30.5675C35.6858 30.5675 35.4608 30.62 35.3033 30.7325C35.1458 30.845 35.0708 31.01 35.0708 31.2425C35.0708 31.385 35.1008 31.505 35.1533 31.58C35.2058 31.6625 35.2733 31.7225 35.3558 31.7675C35.4383 31.8125 35.5208 31.835 35.6183 31.85C35.7158 31.8575 35.8058 31.865 35.8958 31.865C36.0083 31.865 36.1208 31.8575 36.2408 31.85C36.3608 31.835 36.4658 31.82 36.5558 31.7975V30.6125H36.5483Z" fill="#4A4A49"/>
<path d="M38.2508 27.0425C38.3033 27.035 38.3633 27.0275 38.4308 27.02C38.4983 27.0125 38.5583 27.0125 38.6108 27.0125C38.6633 27.0125 38.7233 27.0125 38.7908 27.02C38.8583 27.0275 38.9183 27.035 38.9708 27.0425V31.235C38.9708 31.37 38.9858 31.475 39.0083 31.5575C39.0308 31.6325 39.0683 31.6925 39.1058 31.7375C39.1433 31.775 39.1958 31.805 39.2483 31.82C39.3008 31.835 39.3608 31.835 39.4283 31.835C39.4733 31.835 39.5183 31.835 39.5783 31.8275C39.6308 31.82 39.6833 31.8125 39.7208 31.805C39.7658 31.9775 39.7883 32.1575 39.7883 32.3525C39.7208 32.375 39.6383 32.39 39.5408 32.3975C39.4433 32.405 39.3533 32.405 39.2708 32.405C39.1283 32.405 39.0008 32.39 38.8808 32.3525C38.7608 32.315 38.6558 32.2625 38.5583 32.1875C38.4683 32.1125 38.3933 32.0075 38.3408 31.8725C38.2883 31.745 38.2583 31.58 38.2583 31.385V27.0425H38.2508Z" fill="#4A4A49"/>
<path d="M40.4933 29.21H39.9308L39.9008 29.105L41.1458 27.71H41.2058V28.6325H42.1508C42.1733 28.715 42.1808 28.805 42.1808 28.91C42.1808 28.9625 42.1808 29.015 42.1733 29.06C42.1658 29.105 42.1583 29.1575 42.1508 29.2025H41.2058V30.8975C41.2058 31.1 41.2133 31.265 41.2283 31.385C41.2433 31.505 41.2733 31.595 41.3183 31.6625C41.3558 31.73 41.4158 31.775 41.4833 31.79C41.5508 31.8125 41.6408 31.82 41.7458 31.82C41.8283 31.82 41.9033 31.8125 41.9783 31.805C42.0533 31.79 42.1133 31.7825 42.1733 31.7675C42.2108 31.865 42.2258 31.9625 42.2333 32.0675C42.2408 32.1725 42.2408 32.2625 42.2408 32.3375C42.1433 32.36 42.0458 32.3825 41.9333 32.39C41.8283 32.405 41.7158 32.405 41.5883 32.405C41.2433 32.405 40.9658 32.3225 40.7708 32.15C40.5758 31.9775 40.4783 31.7 40.4783 31.31V29.21H40.4933Z" fill="#4A4A49"/>
<path d="M42.8708 27.0425C42.9233 27.035 42.9833 27.0275 43.0508 27.02C43.1183 27.0125 43.1783 27.0125 43.2308 27.0125C43.2833 27.0125 43.3433 27.0125 43.4108 27.02C43.4783 27.0275 43.5383 27.035 43.5908 27.0425V29.2025C43.6358 29.135 43.6883 29.06 43.7558 28.985C43.8233 28.91 43.8983 28.835 43.9958 28.7675C44.0933 28.7 44.1983 28.6475 44.3258 28.61C44.4458 28.5725 44.5883 28.55 44.7383 28.55C45.1658 28.55 45.4808 28.67 45.6833 28.9175C45.8858 29.165 45.9908 29.525 45.9908 30.005V32.36C45.9383 32.3675 45.8783 32.375 45.8108 32.3825C45.7433 32.39 45.6833 32.39 45.6308 32.39C45.5783 32.39 45.5183 32.39 45.4508 32.3825C45.3833 32.375 45.3233 32.3675 45.2708 32.36V30.2C45.2708 29.855 45.2108 29.6075 45.0983 29.4425C44.9858 29.2775 44.8133 29.2025 44.5808 29.2025C44.4533 29.2025 44.3258 29.225 44.2058 29.27C44.0858 29.315 43.9808 29.39 43.8833 29.4875C43.7933 29.585 43.7183 29.7125 43.6658 29.8775C43.6133 30.035 43.5833 30.23 43.5833 30.455V32.36C43.5308 32.3675 43.4708 32.375 43.4033 32.3825C43.3358 32.39 43.2758 32.39 43.2233 32.39C43.1783 32.39 43.1183 32.39 43.0508 32.3825C42.9833 32.375 42.9233 32.3675 42.8708 32.36V27.0425V27.0425Z" fill="#4A4A49"/>
<path d="M50.6108 29.9075C50.6108 29.6225 50.5358 29.42 50.3933 29.315C50.2508 29.2025 50.0408 29.15 49.7633 29.15C49.5908 29.15 49.4333 29.165 49.2908 29.1875C49.1408 29.2175 48.9983 29.2475 48.8558 29.2925C48.7658 29.135 48.7208 28.94 48.7208 28.7225C48.8858 28.67 49.0658 28.625 49.2683 28.6025C49.4633 28.5725 49.6583 28.5575 49.8383 28.5575C50.3258 28.5575 50.6858 28.67 50.9408 28.8875C51.1958 29.105 51.3158 29.4575 51.3158 29.945V32.2775C51.1433 32.315 50.9408 32.36 50.7008 32.3975C50.4608 32.435 50.2133 32.4575 49.9583 32.4575C49.7183 32.4575 49.5083 32.435 49.3133 32.39C49.1258 32.345 48.9608 32.2775 48.8258 32.18C48.6908 32.0825 48.5933 31.9625 48.5183 31.8125C48.4433 31.6625 48.4058 31.4825 48.4058 31.265C48.4058 31.055 48.4508 30.875 48.5333 30.7175C48.6158 30.56 48.7358 30.4325 48.8783 30.3275C49.0208 30.2225 49.1933 30.1475 49.3808 30.095C49.5683 30.0425 49.7708 30.02 49.9733 30.02C50.1308 30.02 50.2583 30.02 50.3558 30.0275C50.4533 30.035 50.5358 30.0425 50.6033 30.05V29.9075H50.6108ZM50.6108 30.6125C50.5358 30.605 50.4458 30.59 50.3333 30.5825C50.2208 30.575 50.1308 30.5675 50.0483 30.5675C49.7483 30.5675 49.5158 30.62 49.3658 30.7325C49.2083 30.845 49.1333 31.01 49.1333 31.2425C49.1333 31.385 49.1633 31.505 49.2158 31.58C49.2683 31.6625 49.3358 31.7225 49.4183 31.7675C49.5008 31.8125 49.5833 31.835 49.6808 31.85C49.7783 31.8575 49.8683 31.865 49.9583 31.865C50.0708 31.865 50.1833 31.8575 50.3033 31.85C50.4233 31.835 50.5283 31.82 50.6183 31.7975V30.6125H50.6108Z" fill="#4A4A49"/>
<path d="M52.3283 28.64C52.3808 28.6325 52.4333 28.625 52.4858 28.6175C52.5383 28.61 52.5908 28.61 52.6433 28.61C52.6958 28.61 52.7483 28.61 52.7933 28.6175C52.8383 28.625 52.8908 28.6325 52.9433 28.64C52.9583 28.715 52.9733 28.8125 52.9883 28.9325C53.0033 29.0525 53.0108 29.1575 53.0108 29.24C53.0558 29.1575 53.1233 29.075 53.1983 28.9925C53.2733 28.91 53.3558 28.835 53.4533 28.7675C53.5508 28.7 53.6633 28.6475 53.7908 28.61C53.9183 28.5725 54.0533 28.55 54.2033 28.55C54.6308 28.55 54.9458 28.67 55.1483 28.9175C55.3508 29.165 55.4558 29.525 55.4558 30.005V32.36C55.4033 32.3675 55.3433 32.375 55.2758 32.3825C55.2083 32.39 55.1483 32.39 55.0958 32.39C55.0433 32.39 54.9833 32.39 54.9158 32.3825C54.8483 32.375 54.7883 32.3675 54.7358 32.36V30.2C54.7358 29.855 54.6833 29.6075 54.5783 29.4425C54.4733 29.2775 54.3008 29.2025 54.0683 29.2025C53.9333 29.2025 53.8058 29.225 53.6858 29.2775C53.5658 29.3225 53.4608 29.3975 53.3633 29.5025C53.2733 29.6075 53.1983 29.735 53.1458 29.9C53.0933 30.065 53.0633 30.26 53.0633 30.485V32.375C53.0108 32.3825 52.9508 32.39 52.8833 32.3975C52.8158 32.405 52.7558 32.405 52.7033 32.405C52.6508 32.405 52.5908 32.405 52.5233 32.3975C52.4558 32.39 52.3958 32.3825 52.3433 32.375V28.64H52.3283Z" fill="#4A4A49"/>
<path d="M58.8308 27.0425C58.8833 27.035 58.9433 27.0275 59.0108 27.02C59.0783 27.0125 59.1383 27.0125 59.1833 27.0125C59.2358 27.0125 59.2958 27.0125 59.3633 27.02C59.4308 27.0275 59.4908 27.035 59.5433 27.0425V32.2625C59.3558 32.315 59.1533 32.36 58.9283 32.3975C58.7033 32.435 58.4483 32.45 58.1633 32.45C57.9008 32.45 57.6533 32.42 57.4208 32.3525C57.1883 32.285 56.9783 32.18 56.8058 32.03C56.6333 31.88 56.4908 31.685 56.3933 31.4525C56.2883 31.2125 56.2433 30.92 56.2433 30.575C56.2433 30.275 56.2883 30.005 56.3783 29.7575C56.4683 29.51 56.5958 29.3 56.7608 29.12C56.9258 28.94 57.1208 28.805 57.3533 28.7075C57.5858 28.61 57.8408 28.565 58.1183 28.565C58.2458 28.565 58.3733 28.5725 58.5008 28.595C58.6283 28.6175 58.7408 28.64 58.8383 28.67V27.0425H58.8308ZM58.8308 29.27C58.7333 29.2325 58.6283 29.2025 58.5158 29.18C58.4033 29.1575 58.2833 29.15 58.1558 29.15C57.9608 29.15 57.7883 29.1875 57.6383 29.255C57.4958 29.33 57.3758 29.4275 57.2783 29.555C57.1808 29.6825 57.1133 29.8325 57.0683 30.005C57.0233 30.1775 57.0008 30.365 57.0008 30.5675C57.0083 31.025 57.1133 31.355 57.3308 31.5575C57.5408 31.7525 57.8333 31.8575 58.2008 31.8575C58.3283 31.8575 58.4408 31.85 58.5458 31.8425C58.6508 31.8275 58.7483 31.8125 58.8308 31.79V29.27V29.27Z" fill="#4A4A49"/>
<path d="M65.6633 31.6025C65.7683 31.8125 65.8358 32.0075 65.8658 32.2025C65.6633 32.2925 65.4533 32.3525 65.2433 32.39C65.0333 32.4275 64.8008 32.45 64.5533 32.45C64.1783 32.45 63.8333 32.39 63.5333 32.2625C63.2333 32.135 62.9783 31.9625 62.7683 31.73C62.5583 31.4975 62.4008 31.22 62.2883 30.89C62.1758 30.56 62.1233 30.1925 62.1233 29.78C62.1233 29.3675 62.1758 28.985 62.2883 28.655C62.4008 28.3175 62.5583 28.0325 62.7683 27.7925C62.9783 27.5525 63.2333 27.3725 63.5333 27.245C63.8333 27.1175 64.1708 27.05 64.5383 27.05C64.8158 27.05 65.0483 27.0725 65.2508 27.11C65.4458 27.1475 65.6258 27.1925 65.7833 27.245C65.7758 27.3575 65.7533 27.4625 65.7233 27.5525C65.6933 27.65 65.6558 27.7475 65.6108 27.8525C65.5358 27.83 65.4683 27.8075 65.4008 27.785C65.3333 27.7625 65.2583 27.7475 65.1833 27.7325C65.1083 27.7175 65.0183 27.71 64.9283 27.7025C64.8308 27.695 64.7258 27.695 64.6058 27.695C64.0808 27.695 63.6683 27.875 63.3758 28.235C63.0833 28.595 62.9333 29.105 62.9333 29.78C62.9333 30.125 62.9708 30.425 63.0533 30.6725C63.1358 30.9275 63.2558 31.13 63.3983 31.295C63.5483 31.46 63.7283 31.58 63.9383 31.6625C64.1483 31.745 64.3883 31.7825 64.6433 31.7825C64.8458 31.7825 65.0333 31.7675 65.1983 31.73C65.3633 31.715 65.5133 31.6625 65.6633 31.6025Z" fill="#4A4A49"/>
<path d="M68.5808 29.9075C68.5808 29.6225 68.5058 29.42 68.3633 29.315C68.2208 29.2025 68.0108 29.15 67.7333 29.15C67.5608 29.15 67.4033 29.165 67.2608 29.1875C67.1108 29.2175 66.9683 29.2475 66.8258 29.2925C66.7358 29.135 66.6908 28.94 66.6908 28.7225C66.8558 28.67 67.0358 28.625 67.2383 28.6025C67.4333 28.5725 67.6283 28.5575 67.8083 28.5575C68.2883 28.5575 68.6633 28.67 68.9108 28.8875C69.1658 29.105 69.2858 29.4575 69.2858 29.945V32.2775C69.1133 32.315 68.9108 32.36 68.6708 32.3975C68.4308 32.435 68.1833 32.4575 67.9283 32.4575C67.6883 32.4575 67.4783 32.435 67.2833 32.39C67.0883 32.345 66.9308 32.2775 66.7958 32.18C66.6608 32.0825 66.5633 31.9625 66.4883 31.8125C66.4133 31.6625 66.3833 31.4825 66.3833 31.265C66.3833 31.055 66.4283 30.875 66.5108 30.7175C66.5933 30.56 66.7133 30.4325 66.8558 30.3275C66.9983 30.2225 67.1708 30.1475 67.3583 30.095C67.5458 30.0425 67.7483 30.02 67.9508 30.02C68.1083 30.02 68.2358 30.02 68.3333 30.0275C68.4308 30.035 68.5133 30.0425 68.5808 30.05V29.9075V29.9075ZM68.5808 30.6125C68.5058 30.605 68.4158 30.59 68.3033 30.5825C68.1908 30.575 68.1008 30.5675 68.0183 30.5675C67.7183 30.5675 67.4933 30.62 67.3358 30.7325C67.1783 30.845 67.1033 31.01 67.1033 31.2425C67.1033 31.385 67.1258 31.505 67.1858 31.58C67.2383 31.6625 67.3058 31.7225 67.3883 31.7675C67.4708 31.8125 67.5533 31.835 67.6508 31.85C67.7483 31.8575 67.8383 31.865 67.9283 31.865C68.0408 31.865 68.1533 31.8575 68.2733 31.85C68.3933 31.835 68.4983 31.82 68.5883 31.7975V30.6125H68.5808Z" fill="#4A4A49"/>
<path d="M70.2908 28.64C70.3433 28.6325 70.3958 28.625 70.4408 28.6175C70.4858 28.61 70.5383 28.61 70.5908 28.61C70.6433 28.61 70.6958 28.61 70.7483 28.6175C70.8008 28.625 70.8533 28.6325 70.8908 28.64C70.9058 28.715 70.9208 28.805 70.9358 28.925C70.9508 29.045 70.9583 29.1425 70.9583 29.225C71.0633 29.06 71.1908 28.9175 71.3633 28.7975C71.5283 28.6775 71.7458 28.6175 72.0083 28.6175C72.0458 28.6175 72.0833 28.6175 72.1283 28.6175C72.1658 28.6175 72.2033 28.625 72.2333 28.625C72.2408 28.67 72.2483 28.715 72.2558 28.76C72.2633 28.805 72.2633 28.8575 72.2633 28.91C72.2633 28.97 72.2633 29.03 72.2558 29.09C72.2483 29.15 72.2408 29.2175 72.2333 29.27C72.1958 29.2625 72.1508 29.255 72.1133 29.255C72.0758 29.255 72.0383 29.255 72.0158 29.255C71.8883 29.255 71.7608 29.27 71.6408 29.3075C71.5208 29.345 71.4158 29.405 71.3183 29.5025C71.2208 29.5925 71.1458 29.72 71.0933 29.8775C71.0408 30.035 71.0108 30.245 71.0108 30.4925V32.345C70.9583 32.3525 70.8983 32.36 70.8308 32.3675C70.7633 32.375 70.7033 32.375 70.6508 32.375C70.5983 32.375 70.5383 32.375 70.4708 32.3675C70.4033 32.36 70.3433 32.3525 70.2833 32.345V28.64H70.2908Z" fill="#4A4A49"/>
<path d="M73.3433 30.68C73.3508 31.085 73.4558 31.385 73.6583 31.5725C73.8608 31.76 74.1533 31.8575 74.5508 31.8575C74.8958 31.8575 75.2183 31.7975 75.5333 31.6775C75.5708 31.7525 75.6008 31.835 75.6308 31.94C75.6533 32.045 75.6683 32.15 75.6758 32.2475C75.5183 32.315 75.3383 32.3675 75.1508 32.3975C74.9633 32.435 74.7458 32.45 74.5133 32.45C74.1758 32.45 73.8833 32.405 73.6433 32.3075C73.4033 32.21 73.2008 32.0825 73.0433 31.91C72.8858 31.7375 72.7733 31.535 72.6983 31.3025C72.6233 31.07 72.5933 30.8075 72.5933 30.53C72.5933 30.2525 72.6308 29.9975 72.6983 29.7575C72.7658 29.5175 72.8783 29.3075 73.0208 29.135C73.1633 28.955 73.3508 28.82 73.5683 28.715C73.7858 28.61 74.0483 28.5575 74.3483 28.5575C74.6033 28.5575 74.8283 28.6025 75.0233 28.685C75.2183 28.775 75.3758 28.895 75.5108 29.045C75.6383 29.195 75.7433 29.375 75.8108 29.5925C75.8783 29.8025 75.9158 30.035 75.9158 30.275C75.9158 30.3425 75.9158 30.4175 75.9083 30.4925C75.9008 30.5675 75.9008 30.635 75.8933 30.6875H73.3433V30.68ZM75.1883 30.14C75.1883 30.005 75.1733 29.8775 75.1358 29.75C75.0983 29.63 75.0458 29.5175 74.9783 29.4275C74.9108 29.3375 74.8208 29.2625 74.7083 29.21C74.5958 29.1575 74.4683 29.1275 74.3183 29.1275C74.0258 29.1275 73.7933 29.2175 73.6433 29.3975C73.4858 29.5775 73.3883 29.825 73.3583 30.1475H75.1883V30.14Z" fill="#4A4A49"/>
<path d="M25.7858 35.1425C25.8908 35.135 25.9883 35.12 26.0783 35.1125C26.1683 35.105 26.2508 35.0975 26.3333 35.09C26.4158 35.0825 26.5058 35.075 26.5958 35.075C26.6858 35.0675 26.7908 35.0675 26.9033 35.0675C27.1508 35.0675 27.3908 35.09 27.6383 35.1425C27.8783 35.195 28.0958 35.2775 28.2833 35.3975C28.4708 35.5175 28.6283 35.6825 28.7408 35.885C28.8608 36.0875 28.9208 36.35 28.9208 36.665C28.9208 36.8525 28.8908 37.025 28.8233 37.1825C28.7633 37.34 28.6808 37.475 28.5833 37.595C28.4858 37.715 28.3733 37.82 28.2533 37.91C28.1333 38 28.0133 38.075 27.8933 38.135L27.8033 38.18L29.3183 40.3775C29.1908 40.3925 29.0408 40.4 28.8758 40.4C28.7483 40.4 28.6133 40.3925 28.4858 40.3775L26.8133 37.9625V37.925L26.8733 37.91C27.0008 37.8725 27.1433 37.8275 27.2858 37.775C27.4283 37.715 27.5633 37.64 27.6908 37.55C27.8108 37.4525 27.9158 37.34 27.9983 37.2125C28.0808 37.0775 28.1183 36.92 28.1183 36.7325C28.1183 36.3875 28.0133 36.125 27.8108 35.96C27.6083 35.7875 27.3308 35.705 26.9783 35.705C26.8958 35.705 26.8208 35.705 26.7533 35.7125C26.6858 35.72 26.6033 35.7275 26.5208 35.735V40.385C26.4683 40.3925 26.4083 40.3925 26.3408 40.4C26.2733 40.4075 26.2133 40.4075 26.1533 40.4075C26.0933 40.4075 26.0333 40.4075 25.9658 40.4075C25.8983 40.4075 25.8383 40.4 25.7783 40.3925V35.1425H25.7858Z" fill="#4A4A49"/>
<path d="M30.4058 38.6825C30.4133 39.0875 30.5183 39.3875 30.7208 39.575C30.9233 39.7625 31.2158 39.86 31.6133 39.86C31.9583 39.86 32.2808 39.8 32.5958 39.68C32.6333 39.755 32.6633 39.8375 32.6933 39.9425C32.7158 40.0475 32.7308 40.1525 32.7383 40.25C32.5808 40.3175 32.4008 40.37 32.2133 40.4C32.0258 40.4375 31.8083 40.4525 31.5758 40.4525C31.2383 40.4525 30.9458 40.4075 30.7058 40.31C30.4658 40.2125 30.2633 40.085 30.1058 39.9125C29.9483 39.74 29.8358 39.5375 29.7608 39.305C29.6858 39.0725 29.6483 38.81 29.6483 38.5325C29.6483 38.255 29.6858 38 29.7533 37.76C29.8208 37.52 29.9333 37.31 30.0758 37.1375C30.2183 36.9575 30.4058 36.8225 30.6233 36.7175C30.8408 36.6125 31.1033 36.56 31.4033 36.56C31.6583 36.56 31.8833 36.605 32.0783 36.6875C32.2733 36.7775 32.4308 36.8975 32.5658 37.0475C32.6933 37.1975 32.7983 37.385 32.8658 37.595C32.9333 37.805 32.9708 38.0375 32.9708 38.2775C32.9708 38.345 32.9708 38.42 32.9633 38.495C32.9558 38.57 32.9558 38.6375 32.9483 38.69H30.4058V38.6825ZM32.2508 38.15C32.2508 38.015 32.2358 37.8875 32.1983 37.76C32.1608 37.64 32.1083 37.5275 32.0408 37.4375C31.9733 37.3475 31.8833 37.2725 31.7708 37.2125C31.6583 37.16 31.5308 37.13 31.3808 37.13C31.0883 37.13 30.8558 37.22 30.7058 37.4C30.5483 37.58 30.4508 37.8275 30.4208 38.15H32.2508Z" fill="#4A4A49"/>
<path d="M33.7658 39.695C33.8933 39.7475 34.0433 39.7925 34.2008 39.8225C34.3583 39.8525 34.5158 39.8675 34.6658 39.8675C34.7783 39.8675 34.8833 39.8525 34.9883 39.83C35.0933 39.8075 35.1758 39.77 35.2508 39.7175C35.3258 39.6725 35.3858 39.6125 35.4308 39.5375C35.4758 39.47 35.4983 39.3875 35.4983 39.305C35.4983 39.2075 35.4833 39.125 35.4458 39.065C35.4083 39.005 35.3633 38.9525 35.3033 38.9075C35.2433 38.8625 35.1758 38.825 35.0933 38.795C35.0108 38.765 34.9283 38.735 34.8383 38.705L34.5833 38.6075C34.2758 38.495 34.0508 38.36 33.9083 38.2175C33.7658 38.075 33.6983 37.88 33.6983 37.6325C33.6983 37.3025 33.8183 37.04 34.0508 36.845C34.2833 36.65 34.6283 36.5525 35.0858 36.5525C35.2733 36.5525 35.4608 36.5675 35.6408 36.605C35.8208 36.6425 35.9783 36.6875 36.1133 36.7325C36.1058 36.83 36.0833 36.9275 36.0608 37.025C36.0308 37.1225 36.0008 37.2125 35.9633 37.295C35.8583 37.2575 35.7308 37.22 35.5808 37.1825C35.4308 37.145 35.2733 37.13 35.1083 37.13C34.9283 37.13 34.7708 37.16 34.6358 37.2275C34.5008 37.2875 34.4258 37.4 34.4258 37.565C34.4258 37.6475 34.4408 37.715 34.4783 37.775C34.5083 37.835 34.5608 37.88 34.6133 37.925C34.6733 37.9625 34.7408 38 34.8158 38.03C34.8908 38.06 34.9733 38.09 35.0558 38.12L35.3783 38.225C35.4908 38.2625 35.6033 38.3075 35.7083 38.36C35.8133 38.4125 35.9033 38.48 35.9783 38.5625C36.0533 38.645 36.1133 38.7425 36.1583 38.855C36.2033 38.9675 36.2258 39.1025 36.2258 39.2675C36.2258 39.4475 36.1883 39.6125 36.1133 39.755C36.0383 39.905 35.9408 40.025 35.8058 40.13C35.6708 40.235 35.5133 40.3175 35.3258 40.37C35.1383 40.43 34.9283 40.46 34.7033 40.46C34.4708 40.46 34.2683 40.445 34.0958 40.415C33.9233 40.385 33.7583 40.34 33.6083 40.2875C33.6158 40.19 33.6383 40.0925 33.6683 39.995C33.6908 39.89 33.7283 39.7925 33.7658 39.695Z" fill="#4A4A49"/>
<path d="M37.5983 38.6825C37.6058 39.0875 37.7108 39.3875 37.9133 39.575C38.1158 39.7625 38.4083 39.86 38.8058 39.86C39.1508 39.86 39.4733 39.8 39.7883 39.68C39.8258 39.755 39.8558 39.8375 39.8858 39.9425C39.9083 40.0475 39.9233 40.1525 39.9308 40.25C39.7733 40.3175 39.5933 40.37 39.4058 40.4C39.2183 40.4375 39.0008 40.4525 38.7683 40.4525C38.4308 40.4525 38.1383 40.4075 37.8983 40.31C37.6583 40.2125 37.4558 40.085 37.2983 39.9125C37.1408 39.74 37.0283 39.5375 36.9533 39.305C36.8783 39.0725 36.8408 38.81 36.8408 38.5325C36.8408 38.255 36.8783 38 36.9458 37.76C37.0133 37.52 37.1258 37.31 37.2683 37.1375C37.4108 36.9575 37.5983 36.8225 37.8158 36.7175C38.0333 36.6125 38.2958 36.56 38.5958 36.56C38.8508 36.56 39.0758 36.605 39.2708 36.6875C39.4658 36.7775 39.6233 36.8975 39.7583 37.0475C39.8858 37.1975 39.9908 37.385 40.0583 37.595C40.1258 37.805 40.1633 38.0375 40.1633 38.2775C40.1633 38.345 40.1633 38.42 40.1558 38.495C40.1483 38.57 40.1483 38.6375 40.1408 38.69H37.5983V38.6825ZM39.4358 38.15C39.4358 38.015 39.4208 37.8875 39.3833 37.76C39.3458 37.64 39.2933 37.5275 39.2258 37.4375C39.1583 37.3475 39.0683 37.2725 38.9558 37.2125C38.8433 37.16 38.7158 37.13 38.5658 37.13C38.2733 37.13 38.0408 37.22 37.8908 37.4C37.7333 37.58 37.6358 37.8275 37.6058 38.15H39.4358Z" fill="#4A4A49"/>
<path d="M42.9833 37.9175C42.9833 37.6325 42.9083 37.4375 42.7658 37.325C42.6233 37.2125 42.4133 37.16 42.1358 37.16C41.9633 37.16 41.8058 37.175 41.6633 37.1975C41.5133 37.2275 41.3708 37.2575 41.2283 37.3025C41.1383 37.145 41.0933 36.95 41.0933 36.7325C41.2583 36.68 41.4383 36.635 41.6408 36.6125C41.8358 36.5825 42.0308 36.5675 42.2108 36.5675C42.6983 36.5675 43.0583 36.68 43.3133 36.8975C43.5683 37.115 43.6883 37.4675 43.6883 37.955V40.2875C43.5158 40.325 43.3133 40.37 43.0733 40.4075C42.8333 40.445 42.5858 40.4675 42.3308 40.4675C42.0908 40.4675 41.8808 40.445 41.6858 40.4C41.4983 40.355 41.3333 40.2875 41.1983 40.19C41.0633 40.0925 40.9658 39.9725 40.8908 39.8225C40.8158 39.6725 40.7783 39.4925 40.7783 39.275C40.7783 39.065 40.8233 38.885 40.9058 38.7275C40.9883 38.57 41.1083 38.4425 41.2508 38.3375C41.3933 38.2325 41.5658 38.1575 41.7533 38.105C41.9408 38.0525 42.1433 38.03 42.3458 38.03C42.5033 38.03 42.6308 38.03 42.7283 38.0375C42.8258 38.045 42.9083 38.0525 42.9758 38.06V37.9175H42.9833ZM42.9833 38.6225C42.9083 38.615 42.8183 38.6 42.7058 38.5925C42.5933 38.585 42.5033 38.5775 42.4208 38.5775C42.1208 38.5775 41.8958 38.63 41.7383 38.7425C41.5808 38.855 41.5058 39.02 41.5058 39.2525C41.5058 39.395 41.5358 39.5075 41.5883 39.59C41.6408 39.6725 41.7083 39.7325 41.7908 39.7775C41.8733 39.8225 41.9558 39.845 42.0533 39.86C42.1508 39.8675 42.2408 39.875 42.3308 39.875C42.4433 39.875 42.5558 39.8675 42.6758 39.86C42.7958 39.845 42.9008 39.83 42.9908 39.8075V38.6225H42.9833Z" fill="#4A4A49"/>
<path d="M44.7008 36.65C44.7533 36.6425 44.8058 36.635 44.8508 36.6275C44.8958 36.62 44.9483 36.62 45.0008 36.62C45.0533 36.62 45.1058 36.62 45.1583 36.6275C45.2108 36.635 45.2633 36.6425 45.3008 36.65C45.3158 36.725 45.3308 36.815 45.3458 36.935C45.3608 37.055 45.3683 37.1525 45.3683 37.235C45.4733 37.07 45.6008 36.9275 45.7733 36.8075C45.9383 36.6875 46.1558 36.6275 46.4183 36.6275C46.4558 36.6275 46.5008 36.6275 46.5383 36.6275C46.5758 36.6275 46.6133 36.635 46.6433 36.635C46.6508 36.68 46.6583 36.725 46.6658 36.77C46.6733 36.815 46.6733 36.8675 46.6733 36.92C46.6733 36.98 46.6733 37.04 46.6658 37.1C46.6583 37.16 46.6508 37.22 46.6433 37.28C46.6058 37.2725 46.5683 37.265 46.5233 37.265C46.4783 37.265 46.4483 37.265 46.4258 37.265C46.2983 37.265 46.1708 37.28 46.0508 37.3175C45.9308 37.355 45.8258 37.415 45.7283 37.5125C45.6308 37.6025 45.5558 37.73 45.5033 37.8875C45.4508 38.045 45.4208 38.255 45.4208 38.5025V40.355C45.3683 40.3625 45.3083 40.37 45.2408 40.3775C45.1733 40.385 45.1133 40.385 45.0608 40.385C45.0083 40.385 44.9483 40.385 44.8808 40.3775C44.8133 40.37 44.7533 40.3625 44.6933 40.355V36.65H44.7008Z" fill="#4A4A49"/>
<path d="M49.6958 39.725C49.7333 39.7925 49.7708 39.875 49.7933 39.98C49.8233 40.085 49.8383 40.1825 49.8458 40.295C49.5608 40.4075 49.2308 40.46 48.8633 40.46C48.2408 40.46 47.7758 40.2875 47.4608 39.935C47.1458 39.5825 46.9883 39.11 46.9883 38.5175C46.9883 38.24 47.0258 37.985 47.1008 37.745C47.1758 37.505 47.2958 37.3025 47.4458 37.13C47.5958 36.9575 47.7908 36.815 48.0158 36.7175C48.2408 36.6125 48.5033 36.5675 48.8033 36.5675C49.0058 36.5675 49.1858 36.5825 49.3433 36.605C49.5008 36.6275 49.6433 36.665 49.7858 36.7175C49.7858 36.8 49.7783 36.8975 49.7558 37.0025C49.7333 37.115 49.7033 37.205 49.6658 37.2875C49.4258 37.205 49.1558 37.1675 48.8558 37.1675C48.4808 37.1675 48.2033 37.2875 48.0233 37.535C47.8358 37.7825 47.7458 38.105 47.7458 38.5175C47.7458 38.9825 47.8508 39.32 48.0608 39.5375C48.2708 39.755 48.5558 39.86 48.9158 39.86C49.0583 39.86 49.1933 39.8525 49.3208 39.83C49.4483 39.8075 49.5758 39.77 49.6958 39.725Z" fill="#4A4A49"/>
<path d="M50.6033 35.0525C50.6558 35.045 50.7158 35.0375 50.7833 35.03C50.8508 35.0225 50.9108 35.0225 50.9633 35.0225C51.0158 35.0225 51.0758 35.0225 51.1433 35.03C51.2108 35.0375 51.2708 35.045 51.3233 35.0525V37.2125C51.3683 37.145 51.4208 37.07 51.4883 36.995C51.5558 36.92 51.6308 36.845 51.7283 36.7775C51.8258 36.71 51.9308 36.6575 52.0583 36.62C52.1783 36.5825 52.3208 36.56 52.4708 36.56C52.8983 36.56 53.2133 36.68 53.4158 36.9275C53.6183 37.175 53.7233 37.535 53.7233 38.015V40.37C53.6708 40.3775 53.6108 40.385 53.5433 40.3925C53.4758 40.4 53.4158 40.4 53.3633 40.4C53.3108 40.4 53.2508 40.4 53.1833 40.3925C53.1158 40.385 53.0558 40.3775 53.0033 40.37V38.21C53.0033 37.865 52.9433 37.6175 52.8308 37.4525C52.7183 37.2875 52.5458 37.2125 52.3133 37.2125C52.1858 37.2125 52.0583 37.235 51.9383 37.28C51.8183 37.325 51.7133 37.4 51.6158 37.4975C51.5258 37.595 51.4508 37.7225 51.3983 37.8875C51.3458 38.045 51.3158 38.24 51.3158 38.465V40.37C51.2633 40.3775 51.2033 40.385 51.1358 40.3925C51.0683 40.4 51.0083 40.4 50.9558 40.4C50.9108 40.4 50.8508 40.4 50.7833 40.3925C50.7158 40.385 50.6558 40.3775 50.6033 40.37V35.0525V35.0525Z" fill="#4A4A49"/>
<path d="M55.9958 35.15C56.0483 35.1425 56.1158 35.135 56.1983 35.1275C56.2808 35.12 56.3483 35.12 56.4233 35.12C56.4908 35.12 56.5583 35.12 56.6333 35.1275C56.7008 35.135 56.7683 35.1425 56.8283 35.15L57.7208 39.5L58.7933 35.15C58.8533 35.1425 58.9133 35.135 58.9883 35.1275C59.0558 35.12 59.1233 35.12 59.1908 35.12C59.2508 35.12 59.3183 35.12 59.3858 35.1275C59.4608 35.135 59.5208 35.1425 59.5733 35.15L60.6533 39.5375L61.5608 35.15C61.6133 35.1425 61.6733 35.135 61.7333 35.1275C61.7933 35.12 61.8533 35.12 61.9133 35.12C61.9808 35.12 62.0483 35.12 62.1233 35.1275C62.1908 35.135 62.2583 35.1425 62.3108 35.15L61.0583 40.37C60.9983 40.3775 60.9308 40.385 60.8558 40.3925C60.7808 40.4 60.7058 40.4 60.6458 40.4C60.5783 40.4 60.5033 40.4 60.4208 40.3925C60.3383 40.385 60.2633 40.3775 60.1958 40.37L59.1683 36.2825L58.1258 40.37C58.0583 40.3775 57.9833 40.385 57.9008 40.3925C57.8183 40.4 57.7433 40.4 57.6833 40.4C57.6233 40.4 57.5558 40.4 57.4808 40.3925C57.4058 40.385 57.3383 40.3775 57.2783 40.37L55.9958 35.15Z" fill="#CF131E"/>
<path d="M64.7333 37.9175C64.7333 37.6325 64.6583 37.4375 64.5158 37.325C64.3733 37.2125 64.1633 37.16 63.8858 37.16C63.7133 37.16 63.5558 37.175 63.4133 37.1975C63.2633 37.2275 63.1208 37.2575 62.9783 37.3025C62.8883 37.145 62.8433 36.95 62.8433 36.7325C63.0083 36.68 63.1883 36.635 63.3908 36.6125C63.5858 36.5825 63.7808 36.5675 63.9608 36.5675C64.4483 36.5675 64.8158 36.68 65.0633 36.8975C65.3183 37.115 65.4383 37.4675 65.4383 37.955V40.2875C65.2658 40.325 65.0633 40.37 64.8233 40.4075C64.5833 40.445 64.3358 40.4675 64.0808 40.4675C63.8408 40.4675 63.6308 40.445 63.4358 40.4C63.2408 40.355 63.0833 40.2875 62.9483 40.19C62.8133 40.0925 62.7158 39.9725 62.6408 39.8225C62.5658 39.6725 62.5283 39.4925 62.5283 39.275C62.5283 39.065 62.5733 38.885 62.6558 38.7275C62.7383 38.57 62.8583 38.4425 63.0008 38.3375C63.1433 38.2325 63.3158 38.1575 63.5033 38.105C63.6908 38.0525 63.8933 38.03 64.0958 38.03C64.2533 38.03 64.3808 38.03 64.4783 38.0375C64.5758 38.045 64.6583 38.0525 64.7258 38.06V37.9175H64.7333ZM64.7333 38.6225C64.6583 38.615 64.5683 38.6 64.4558 38.5925C64.3433 38.585 64.2533 38.5775 64.1708 38.5775C63.8708 38.5775 63.6458 38.63 63.4883 38.7425C63.3308 38.855 63.2558 39.02 63.2558 39.2525C63.2558 39.395 63.2858 39.5075 63.3383 39.59C63.3908 39.6725 63.4583 39.7325 63.5408 39.7775C63.6233 39.8225 63.7058 39.845 63.8033 39.86C63.9008 39.8675 63.9908 39.875 64.0808 39.875C64.1933 39.875 64.3058 39.8675 64.4258 39.86C64.5458 39.845 64.6508 39.83 64.7408 39.8075V38.6225H64.7333Z" fill="#CF131E"/>
<path d="M66.4283 35.0525C66.4808 35.045 66.5408 35.0375 66.6083 35.03C66.6758 35.0225 66.7358 35.0225 66.7883 35.0225C66.8408 35.0225 66.9008 35.0225 66.9683 35.03C67.0358 35.0375 67.0958 35.045 67.1483 35.0525V39.245C67.1483 39.38 67.1633 39.485 67.1858 39.5675C67.2083 39.6425 67.2458 39.7025 67.2833 39.7475C67.3208 39.7925 67.3733 39.815 67.4258 39.83C67.4783 39.845 67.5383 39.845 67.6058 39.845C67.6508 39.845 67.6958 39.845 67.7558 39.8375C67.8083 39.83 67.8608 39.8225 67.8983 39.815C67.9433 39.9875 67.9658 40.1675 67.9658 40.37C67.8983 40.3925 67.8158 40.4075 67.7183 40.415C67.6208 40.4225 67.5308 40.4225 67.4483 40.4225C67.3058 40.4225 67.1783 40.4075 67.0583 40.37C66.9383 40.3325 66.8333 40.28 66.7358 40.205C66.6458 40.13 66.5708 40.025 66.5183 39.89C66.4658 39.7625 66.4358 39.5975 66.4358 39.4025V35.0525H66.4283Z" fill="#CF131E"/>
<path d="M69.0758 38.6825C69.0833 39.0875 69.1883 39.3875 69.3908 39.575C69.5933 39.7625 69.8858 39.86 70.2758 39.86C70.6208 39.86 70.9433 39.8 71.2583 39.68C71.2958 39.755 71.3258 39.8375 71.3558 39.9425C71.3783 40.0475 71.3933 40.1525 71.4008 40.25C71.2433 40.3175 71.0633 40.37 70.8758 40.4C70.6808 40.4375 70.4708 40.4525 70.2383 40.4525C69.9008 40.4525 69.6083 40.4075 69.3683 40.31C69.1283 40.2125 68.9258 40.085 68.7683 39.9125C68.6108 39.74 68.4983 39.5375 68.4233 39.305C68.3483 39.0725 68.3108 38.81 68.3108 38.5325C68.3108 38.255 68.3483 38 68.4158 37.76C68.4833 37.52 68.5958 37.31 68.7383 37.1375C68.8808 36.9575 69.0683 36.8225 69.2858 36.7175C69.5033 36.6125 69.7658 36.56 70.0658 36.56C70.3208 36.56 70.5458 36.605 70.7408 36.6875C70.9358 36.7775 71.0933 36.8975 71.2283 37.0475C71.3558 37.1975 71.4608 37.385 71.5283 37.595C71.5958 37.805 71.6333 38.0375 71.6333 38.2775C71.6333 38.345 71.6333 38.42 71.6258 38.495C71.6183 38.57 71.6183 38.6375 71.6108 38.69H69.0758V38.6825ZM70.9133 38.15C70.9133 38.015 70.8983 37.8875 70.8608 37.76C70.8233 37.64 70.7708 37.5275 70.7033 37.4375C70.6358 37.3475 70.5458 37.2725 70.4333 37.2125C70.3283 37.16 70.1933 37.13 70.0433 37.13C69.7508 37.13 69.5183 37.22 69.3608 37.4C69.2033 37.58 69.1058 37.8275 69.0758 38.15H70.9133Z" fill="#CF131E"/>
<path d="M72.4283 39.695C72.5558 39.7475 72.7058 39.7925 72.8633 39.8225C73.0208 39.8525 73.1783 39.8675 73.3283 39.8675C73.4408 39.8675 73.5458 39.8525 73.6508 39.83C73.7558 39.8075 73.8383 39.77 73.9133 39.7175C73.9883 39.6725 74.0483 39.6125 74.0933 39.5375C74.1383 39.47 74.1608 39.3875 74.1608 39.305C74.1608 39.2075 74.1458 39.125 74.1083 39.065C74.0708 39.005 74.0258 38.9525 73.9658 38.9075C73.9058 38.8625 73.8383 38.825 73.7558 38.795C73.6733 38.765 73.5908 38.735 73.5008 38.705L73.2458 38.6075C72.9383 38.495 72.7133 38.36 72.5708 38.2175C72.4283 38.075 72.3608 37.88 72.3608 37.6325C72.3608 37.3025 72.4808 37.04 72.7133 36.845C72.9458 36.65 73.2908 36.5525 73.7483 36.5525C73.9358 36.5525 74.1233 36.5675 74.3033 36.605C74.4833 36.6425 74.6408 36.6875 74.7758 36.7325C74.7683 36.83 74.7458 36.9275 74.7233 37.025C74.6933 37.1225 74.6633 37.2125 74.6258 37.295C74.5208 37.2575 74.3933 37.22 74.2433 37.1825C74.0933 37.145 73.9358 37.13 73.7708 37.13C73.5908 37.13 73.4333 37.16 73.2983 37.2275C73.1633 37.2875 73.0883 37.4 73.0883 37.565C73.0883 37.6475 73.1033 37.715 73.1408 37.775C73.1783 37.835 73.2233 37.88 73.2758 37.925C73.3358 37.9625 73.4033 38 73.4783 38.03C73.5533 38.06 73.6358 38.09 73.7183 38.12L74.0408 38.225C74.1533 38.2625 74.2658 38.3075 74.3708 38.36C74.4758 38.4125 74.5658 38.48 74.6408 38.5625C74.7158 38.645 74.7758 38.7425 74.8208 38.855C74.8658 38.9675 74.8883 39.1025 74.8883 39.2675C74.8883 39.4475 74.8508 39.6125 74.7758 39.755C74.7008 39.905 74.6033 40.025 74.4683 40.13C74.3333 40.235 74.1758 40.3175 73.9883 40.37C73.8008 40.43 73.5908 40.46 73.3658 40.46C73.1333 40.46 72.9308 40.445 72.7583 40.415C72.5858 40.385 72.4208 40.34 72.2708 40.2875C72.2783 40.19 72.3008 40.0925 72.3308 39.995C72.3608 39.89 72.3908 39.7925 72.4283 39.695Z" fill="#CF131E"/>
<path d="M9.06082 44.3075C9.44332 44.0225 9.81832 43.745 10.1783 43.46C7.19332 41.1875 4.78582 39.005 4.78582 35.0375C4.78582 31.1375 7.11832 28.955 10.0358 26.72C10.0358 26.72 10.0283 26.72 10.0283 26.7125C9.70582 26.4725 9.38332 26.225 9.05332 25.9775C8.35582 25.46 7.65082 24.9275 6.95332 24.365C3.87832 26.825 1.02832 29.8625 1.02832 35.0375C1.02832 40.3025 3.97582 43.355 7.10332 45.83C7.11082 45.8375 7.11832 45.8375 7.12582 45.845L7.10332 45.83C7.74082 45.3275 8.43082 44.78 9.06082 44.3075Z" fill="#008247"/>
<path d="M10.0358 22.01C7.05082 19.7375 4.65832 17.5475 4.65832 13.5875C4.65832 9.6275 7.06582 7.4375 10.0433 5.165C9.72082 4.9175 9.39082 4.67 9.05332 4.4225C8.43082 3.95 7.58332 3.3125 6.95332 2.81C3.83332 5.285 0.900818 8.3375 0.900818 13.5875C0.900818 18.8375 3.83332 21.89 6.95332 24.365C7.65082 23.8025 8.36332 23.27 9.05332 22.7525C9.39082 22.4975 9.72082 22.2575 10.0358 22.01Z" fill="#0090A7"/>
<path d="M11.3108 1.41501C10.9058 1.10751 10.5008 0.807507 10.1108 0.507507L6.95331 2.81001C7.59081 3.32001 8.43081 3.95001 9.06081 4.42251C9.39831 4.67001 9.72081 4.91751 10.0508 5.16501C13.0358 7.43751 15.4358 9.62001 15.4358 13.5875C15.4358 17.555 13.0283 19.745 10.0433 22.01C10.0433 22.01 10.0433 22.01 10.0508 22.0175C10.4633 22.3325 10.8908 22.655 11.3183 22.9775C11.9183 23.4275 12.5258 23.885 13.1333 24.3575L13.1408 24.365C16.2608 21.89 19.2008 18.8375 19.2008 13.5875C19.1933 7.31001 15.0083 4.17501 11.3108 1.41501Z" fill="#CF131E"/>
<path d="M6.96083 24.365C6.96083 24.365 6.95333 24.365 6.96083 24.365C6.95333 24.365 6.95333 24.365 6.96083 24.365C6.95333 24.365 6.95333 24.365 6.96083 24.365C6.97583 24.3575 6.98333 24.3425 6.99833 24.335C6.98333 24.3425 6.96833 24.3575 6.96083 24.365Z" fill="#CABC00"/>
<path d="M9.39081 22.505C9.60831 22.34 9.82581 22.175 10.0433 22.01C10.0433 22.01 10.0433 22.01 10.0358 22.0025C9.82581 22.175 9.60831 22.34 9.39081 22.505Z" fill="#CABC00"/>
<path d="M13.1333 24.365L13.1258 24.3575C12.5258 23.8775 11.9108 23.42 11.3108 22.9775C10.8758 22.655 10.4558 22.3325 10.0433 22.0175C9.82582 22.1825 9.61582 22.3475 9.39082 22.5125C9.60832 22.3475 9.81832 22.1825 10.0358 22.0175C9.71332 22.2575 9.39082 22.505 9.06082 22.7525C8.36332 23.27 7.65832 23.8025 6.96082 24.365C6.97582 24.3575 6.98332 24.3425 6.99832 24.335C6.98332 24.3425 6.96832 24.3575 6.96082 24.365C7.65832 24.9275 8.37082 25.46 9.06082 25.9775C9.39082 26.225 9.72082 26.4725 10.0358 26.7125C10.0358 26.7125 10.0433 26.7125 10.0433 26.72C13.0283 28.9925 15.4358 31.175 15.4358 35.1425C15.4358 39.05 13.1033 41.225 10.1858 43.46C9.81832 43.7375 9.44332 44.0225 9.06832 44.3075C8.43832 44.78 7.74832 45.3275 7.11082 45.83L7.13332 45.845L10.2083 48.1925C10.5983 47.8925 10.9133 47.6225 11.3183 47.315C15.0083 44.5475 19.2008 41.42 19.2008 35.1425C19.1933 29.8925 16.2533 26.84 13.1333 24.365Z" fill="#CABC00"/>
</g>
<defs>
<clipPath id="clip0_4485_9015">
<rect width="75" height="48" fill="white" transform="translate(0.900818 0.5)"/>
</clipPath>
</defs>
</svg>
