<svg width="85" height="49" viewBox="0 0 85 49" fill="none" xmlns="http://www.w3.org/2000/svg">
<g clip-path="url(#clip0_4485_9214)">
<path d="M26.7841 13.8692C30.1737 9.30766 29.4873 4.92747 24.0557 0.668945C18.2315 5.23394 17.9732 9.9275 21.6796 14.4282C22.2272 15.0687 24.0557 16.8054 24.0557 16.8054C24.0557 16.8054 26.0862 16.7664 29.1762 17.9923C29.1762 17.9923 27.7736 15.5347 25.7568 13.7946C23.4335 11.7905 20.8509 8.20457 24.0557 5.23394C26.2182 7.23923 25.7442 9.52575 24.493 11.4151C24.493 11.4151 24.6365 11.8731 26.1826 13.3091C26.4065 13.5168 26.5821 13.712 26.7841 13.8692" fill="#3D4F7F"/>
<path d="M23.5093 17.206C23.5093 17.206 21.9712 18.8417 21.1103 21.5782C20.3412 24.0196 20.2643 26.3865 20.2643 26.3865C18.9661 26.08 17.0561 24.4788 17.0561 24.4788C17.2684 21.4863 18.4002 18.9094 18.4002 18.9094C19.2852 16.5988 21.1769 14.8713 21.1769 14.8713L23.5093 17.206Z" fill="#3D4F7F"/>
<path d="M13.4266 21.7733C8.86621 18.3848 4.48601 19.0701 0.228638 24.5029C4.79249 30.3271 9.4849 30.5853 13.9868 26.8789C14.6273 26.3302 16.3628 24.5029 16.3628 24.5029C16.3628 24.5029 16.3249 22.4712 17.552 19.3812C17.552 19.3812 15.0933 20.785 13.3531 22.8018C11.3479 25.125 7.76312 27.7077 4.79134 24.5029C6.79778 22.3392 9.0843 22.8132 10.9748 24.0644C10.9748 24.0644 11.4305 23.9221 12.8676 22.3748C13.0742 22.1521 13.2705 21.9753 13.4266 21.7733" fill="#3D4F7F"/>
<path d="M16.7646 25.0481C16.7646 25.0481 18.4002 26.5874 21.1367 27.4482C23.5782 28.2162 25.9451 28.2942 25.9451 28.2942C25.6386 29.5913 24.0373 31.5024 24.0373 31.5024C21.0449 31.2889 18.468 30.1572 18.468 30.1572C16.1574 29.2733 14.4298 27.3805 14.4298 27.3805L16.7646 25.0481Z" fill="#3D4F7F"/>
<path d="M21.3307 35.1308C17.9434 39.6912 18.6287 44.0726 24.0614 48.3311C29.8845 43.7661 30.1439 39.0725 26.4375 34.5718C25.89 33.9313 24.0614 32.1946 24.0614 32.1946C24.0614 32.1946 22.0297 32.2336 18.9397 31.0066C18.9397 31.0066 20.3435 33.4641 22.3603 35.2043C24.6836 37.2096 27.2662 40.7943 24.0614 43.7661C21.8977 41.7608 22.3718 39.4743 23.6229 37.5838C23.6229 37.5838 23.4806 37.1269 21.9333 35.691C21.7106 35.4832 21.535 35.2869 21.3307 35.1308" fill="#3D4F7F"/>
<path d="M24.6067 31.794C24.6067 31.794 26.1459 30.1572 27.0068 27.4207C27.7736 24.9804 27.8528 22.6124 27.8528 22.6124C29.1498 22.92 31.0599 24.5201 31.0599 24.5201C30.8475 27.5125 29.7157 30.0883 29.7157 30.0883C28.8319 32.4012 26.9391 34.1287 26.9391 34.1287L24.6067 31.794Z" fill="#3D4F7F"/>
<path d="M34.6894 27.2267C39.2498 30.6152 43.6311 29.9299 47.8885 24.4971C43.3235 18.6729 38.6311 18.4147 34.1304 22.1211C33.4899 22.6697 31.7532 24.4971 31.7532 24.4971C31.7532 24.4971 31.7911 26.5277 30.5652 29.6177C30.5652 29.6177 33.0227 28.215 34.7628 26.1971C36.7681 23.875 40.3529 21.2923 43.3246 24.4971C41.3182 26.6608 39.0328 26.1856 37.1423 24.9345C37.1423 24.9345 36.6855 25.0779 35.2484 26.6252C35.0418 26.8468 34.8455 27.0235 34.6894 27.2267" fill="#3D4F7F"/>
<path d="M31.3514 23.9508C31.3514 23.9508 29.7157 22.4127 26.9804 21.5518C24.5389 20.7839 22.1709 20.7058 22.1709 20.7058C22.4774 19.4087 24.0787 17.4976 24.0787 17.4976C27.0711 17.7099 29.648 18.8428 29.648 18.8428C31.9586 19.7267 33.6873 21.6195 33.6873 21.6195L31.3514 23.9508Z" fill="#3D4F7F"/>
<path d="M5.48349 19.4007C6.29043 19.1436 7.15131 19.0035 8.04319 19.0035C8.40132 19.0035 8.75142 19.0231 9.09807 19.0667C10.7039 14.6463 14.2221 11.1362 18.6436 9.53379C18.6034 9.20321 18.5942 8.8646 18.5942 8.52368C18.5942 7.61344 18.7354 6.73763 19.0029 5.91577C12.4463 7.69494 7.27643 12.8511 5.48349 19.4007" fill="#CCB07F"/>
<path d="M18.9592 43.0751C18.7021 42.267 18.5621 41.4073 18.5621 40.5142C18.5621 40.1572 18.5827 39.8072 18.6252 39.4605C14.2048 37.8547 10.6947 34.3365 9.09232 29.9139C8.76174 29.954 8.42313 29.9632 8.08222 29.9632C7.17197 29.9632 6.29502 29.822 5.4743 29.5557C7.25347 36.1122 12.4085 41.281 18.9592 43.0751" fill="#CCB07F"/>
<path d="M42.6336 29.5994C41.8255 29.8553 40.9658 29.9954 40.0728 29.9954C39.7158 29.9954 39.3646 29.9759 39.0191 29.9322C37.4121 34.3526 33.8939 37.8639 29.4735 39.4663C29.5126 39.7969 29.5217 40.1355 29.5217 40.4764C29.5217 41.3866 29.3817 42.2624 29.1143 43.0831C35.6696 41.3051 40.8395 36.149 42.6336 29.5994" fill="#CCB07F"/>
<path d="M29.1579 5.92493C29.415 6.73187 29.555 7.59275 29.555 8.48578C29.555 8.84276 29.5344 9.19286 29.4907 9.53951C33.9111 11.1453 37.4212 14.6624 39.0236 19.085C39.3542 19.0448 39.6928 19.0357 40.0349 19.0357C40.9451 19.0357 41.8209 19.1769 42.6428 19.4432C40.8625 12.8878 35.7075 7.71902 29.1579 5.92493Z" fill="#CCB07F"/>
<path d="M53.4234 32.0213V26.5667H53.7012L61.735 35.1561L61.8486 35.2548C61.8819 34.6659 61.898 34.0622 61.898 33.4745V28.2495L61.8326 26.9421L61.8165 26.8112C62.0461 26.8445 62.2905 26.8606 62.519 26.8606C62.6487 26.8606 62.7968 26.8445 62.9276 26.8112C62.9115 26.9421 62.9115 27.0729 62.8943 27.2038L62.8128 28.8039L62.6647 32.6744L62.6165 36.3315L62.6647 38.1772H62.4203C62.0943 37.7846 61.7671 37.3932 61.4251 37.0179L58.7632 34.0622L54.2074 29.2125L54.1741 30.7472C54.158 31.5633 54.1741 32.3633 54.1741 33.1634V34.4696L54.2235 36.3969L54.305 37.9648C53.9296 37.8994 53.5543 37.8994 53.1789 37.9648C53.2432 37.2463 53.2926 36.5277 53.3086 35.8092L53.4234 32.0213Z" fill="#3D4F7F"/>
<path d="M67.2837 32.2979L67.3331 35.8413L67.3985 37.6056L67.4306 37.9648C67.1861 37.9476 66.9244 37.8833 66.6799 37.8833C66.3861 37.8833 66.1083 37.9476 65.8145 37.9648C65.8305 37.8501 65.8305 37.7192 65.8477 37.6056L65.9132 36.3154L65.9774 32.4953V28.51L65.896 26.7791C66.1737 26.7951 66.4515 26.8433 66.7293 26.8433C66.9738 26.8433 67.2355 26.8123 67.48 26.7951C67.4639 26.942 67.4639 27.089 67.4478 27.2359L67.3824 28.7212L67.3009 31.5633L69.4072 31.6126L74.0778 31.5633V28.1014L73.9952 26.7791C74.273 26.7951 74.5508 26.8433 74.8285 26.8433C75.0891 26.8433 75.3347 26.8123 75.5964 26.7951C75.5632 26.942 75.5632 27.089 75.5471 27.2359L75.399 32.5596L75.4484 36.2339L75.531 37.9648C75.2854 37.9476 75.0409 37.8833 74.7964 37.8833C74.5014 37.8833 74.2248 37.9476 73.9298 37.9648C73.9458 37.8501 73.9458 37.7192 73.9631 37.6056L74.0445 35.924L74.0928 32.2979H67.2837Z" fill="#3D4F7F"/>
<path d="M78.2549 35.8092C78.8919 36.8549 79.6265 37.4747 80.9006 37.4747C82.223 37.4747 83.1699 36.413 83.1699 35.1239C83.1699 34.03 82.4353 33.4745 81.5205 33.0659C80.7537 32.7066 79.9204 32.446 79.219 31.972C78.4821 31.4818 78.0586 30.6163 78.0586 29.7348C78.0586 27.6285 79.7241 26.5989 81.6835 26.5989C82.4675 26.5989 83.4144 26.8434 84.0194 27.3829C83.8231 27.8076 83.7083 28.2644 83.5786 28.7212H83.4144C83.0712 27.8408 82.3538 27.252 81.3908 27.252C80.2624 27.252 79.3327 28.0521 79.3327 29.2125C79.3327 29.8324 79.5611 30.3397 80.0352 30.7311C80.2957 30.9596 80.3612 30.9756 80.6711 31.1225C80.8674 31.2213 81.0797 31.3188 81.2921 31.4003C81.5366 31.4979 81.7822 31.5955 82.0267 31.7102C82.2712 31.825 82.549 31.9226 82.7785 32.0535C83.1367 32.2486 83.5453 32.446 83.807 32.7559C84.2156 33.2621 84.4762 33.8177 84.4762 34.4869C84.4762 36.8216 82.6637 38.1772 80.4427 38.1772C79.6426 38.1772 78.3352 37.8662 77.7808 37.2624C77.9449 36.7895 78.0264 36.2993 78.0919 35.8092H78.2549Z" fill="#3D4F7F"/>
<path d="M55.2829 44.7854C55.1693 44.7647 55.0407 44.7498 54.9191 44.7498C54.7985 44.7498 54.6688 44.7647 54.5483 44.7854C54.1408 43.214 53.6541 41.6632 53.1766 40.1056L53.1261 39.899C53.319 39.9128 53.5118 39.9346 53.7046 39.9346C53.8975 39.9346 54.0972 39.9128 54.2912 39.899C54.577 41.0985 54.9053 42.2854 55.2336 43.4699C55.6399 42.2773 56.1048 41.1054 56.4698 39.899C56.5915 39.9196 56.712 39.9346 56.8337 39.9346C56.9485 39.9346 57.069 39.9196 57.1838 39.899C57.5052 41.1054 57.9701 42.2704 58.3202 43.4699C58.6989 42.2923 59.0777 41.1054 59.3773 39.899C59.4841 39.9128 59.5908 39.9346 59.6987 39.9346C59.8055 39.9346 59.9203 39.9196 60.0201 39.899V39.9552C59.4347 41.5484 58.8769 43.1566 58.3844 44.7854C58.2696 44.7647 58.1422 44.7498 58.0206 44.7498C57.8989 44.7498 57.7692 44.7647 57.6475 44.7854C57.3342 43.6077 56.9267 42.4564 56.5123 41.3131C56.1128 42.4484 55.6904 43.571 55.3047 44.7142L55.2829 44.7854Z" fill="#CCB07F"/>
<path d="M62.5212 44.728L63.0493 43.5067C63.5773 42.306 64.0846 41.0916 64.5346 39.8565C64.6275 39.8703 64.7136 39.8909 64.8066 39.8909C64.8996 39.8909 64.9857 39.8703 65.0775 39.8565L65.128 39.977C65.7214 41.5416 66.3424 43.0992 67.0002 44.6419L67.0357 44.7211V44.7854C66.8349 44.7716 66.6283 44.7498 66.4285 44.7498C66.2288 44.7498 66.0291 44.7647 65.8282 44.7854C65.6778 44.2918 65.5275 43.8074 65.3346 43.3276C65.0706 43.3207 64.8135 43.3069 64.5495 43.3069C64.2556 43.3069 63.971 43.3138 63.6783 43.3207L63.6427 43.4217C63.4854 43.8706 63.3064 44.3136 63.1916 44.7854C63.0848 44.7647 62.9701 44.7498 62.8564 44.7498C62.7485 44.7498 62.628 44.7647 62.5212 44.7854V44.728ZM63.8642 42.8926H65.1705C64.9708 42.3347 64.7561 41.778 64.5346 41.2282C64.3062 41.7562 64.0846 42.2842 63.8849 42.8271L63.8642 42.8926Z" fill="#CCB07F"/>
<path d="M70.0075 39.899C70.2003 39.9128 70.3932 39.9346 70.586 39.9346C70.7789 39.9346 70.9786 39.9128 71.1714 39.899C71.1577 40.3271 71.1209 40.7484 71.1152 41.1777C71.1083 41.4566 71.1083 41.7344 71.1083 42.0133V43.3644C71.1083 43.6639 71.121 43.9647 71.121 44.2631L71.5066 44.2493C71.929 44.2425 72.3434 44.2069 72.7578 44.1713C72.736 44.2711 72.7291 44.379 72.7291 44.4778C72.7291 44.5788 72.736 44.6855 72.7578 44.7854L71.5514 44.7429C71.222 44.736 70.9006 44.7647 70.5792 44.7647C70.3783 44.7647 70.1854 44.7716 69.9857 44.7854C70.0362 44.014 70.05 43.2415 70.05 42.4702C70.05 42.1855 70.0569 41.8985 70.0569 41.6139C70.0569 41.0847 70.0282 40.5636 70.0144 40.0344L70.0075 39.899Z" fill="#CCB07F"/>
<path d="M75.8581 39.899C76.2369 39.9059 76.6157 39.9415 76.9945 39.9415C77.5305 39.9415 78.0735 39.9127 78.6084 39.9059C78.5728 40.078 78.5728 40.256 78.5935 40.435C78.6015 40.4626 78.6015 40.4913 78.6084 40.52C78.0654 40.4775 77.5225 40.4201 76.9796 40.435C76.9727 40.6841 76.9658 40.9275 76.9658 41.1777C76.9658 41.4428 76.9589 41.7057 76.9589 41.9709L78.5797 41.9135C78.5659 42.0282 78.5441 42.135 78.5441 42.2498C78.5441 42.3416 78.5659 42.4277 78.5797 42.5207C78.1596 42.492 77.7372 42.4702 77.309 42.4633C77.1942 42.4633 77.0726 42.4564 76.9589 42.4564C76.9589 42.756 76.9509 43.0636 76.9509 43.3644C76.9509 43.6639 76.9589 43.9647 76.9589 44.2631C77.5087 44.2631 78.0586 44.2275 78.6084 44.1713C78.5728 44.3423 78.5728 44.5214 78.5935 44.6993C78.6015 44.728 78.6015 44.7567 78.6084 44.7854C78.1802 44.7785 77.744 44.7429 77.3159 44.7429C77.037 44.7429 76.7512 44.7647 76.4722 44.7647C76.2576 44.7647 76.051 44.7716 75.8363 44.7854C75.8513 44.6499 75.8513 44.5145 75.8581 44.379C75.8719 43.9348 75.8869 43.4918 75.8937 43.0418C75.8937 42.6848 75.9006 42.321 75.9006 41.9559V41.1203C75.9006 40.7484 75.8719 40.3627 75.8581 39.992L75.8581 39.899Z" fill="#CCB07F"/>
<path d="M83.9596 40.8632C83.8173 40.4913 83.5453 40.256 83.1378 40.256C82.9025 40.256 82.7452 40.2847 82.5662 40.4488C82.4238 40.5774 82.3515 40.7484 82.3515 40.9424C82.3515 41.6988 84.0377 41.863 84.4027 42.6986C84.4877 42.8845 84.5232 43.1348 84.5232 43.3356C84.5232 43.5491 84.4463 43.82 84.3522 44.006C84.1881 44.3492 83.9309 44.5432 83.5946 44.6993C83.2744 44.8497 82.9805 44.8852 82.6316 44.8852C82.2379 44.8852 81.8166 44.7923 81.4814 44.5857C81.5664 44.2849 81.6456 43.9922 81.6881 43.6846H81.8235C81.9303 44.1713 82.3159 44.4491 82.8095 44.4491C83.2514 44.4491 83.6451 44.2137 83.6451 43.7282C83.6451 43.4849 83.5522 43.3425 83.3811 43.1784C83.1309 42.9993 82.86 42.8558 82.5811 42.7284C82.3802 42.6343 82.1954 42.492 82.0095 42.3783C81.6594 42.1637 81.517 41.6988 81.517 41.3062C81.517 40.8138 81.6812 40.4855 82.06 40.1779C82.4089 39.8978 82.7234 39.8278 83.1665 39.8278C83.5453 39.8278 83.9023 39.9059 84.2317 40.1125C84.2523 40.1343 84.2742 40.1412 84.2948 40.163C84.2099 40.3914 84.1376 40.6279 84.0664 40.8632H83.9596Z" fill="#CCB07F"/>
<path d="M57.6199 23.238L57.4627 23.8463C57.0345 24.0667 56.5272 24.1528 56.0485 24.1528C55.6916 24.1528 55.4631 24.1172 55.113 24.046C54.9122 24.0024 54.5058 23.8096 54.3268 23.6948C54.1408 23.5662 53.948 23.3665 53.8125 23.1886C53.498 22.7662 53.3626 22.3025 53.3626 21.7733C53.3626 20.9595 53.5623 20.2949 54.1844 19.7439C54.7343 19.2664 55.4907 19.0873 56.2058 19.0873C56.6764 19.0873 57.248 19.209 57.6624 19.4305C57.5993 19.6739 57.5557 19.9161 57.4983 20.1583H57.3984C57.1344 19.7806 56.6764 19.5304 56.2138 19.5304C55.027 19.5304 54.5414 20.6381 54.5414 21.6746C54.5414 22.1808 54.6482 22.7088 54.9627 23.1232C55.2623 23.5169 55.7558 23.7315 56.2483 23.7315C56.6913 23.7315 57.2067 23.502 57.527 23.2024L57.6199 23.238Z" fill="#CCB07F"/>
<path d="M60.4069 19.209C60.6204 19.209 60.8351 19.1941 61.0428 19.1654C61.1415 19.3732 61.2426 19.5867 61.3424 19.7944C61.4492 20.0228 61.5571 20.2444 61.6638 20.4659C61.7637 20.6737 61.8716 20.8814 61.9703 21.0881C62.007 21.1661 62.0495 21.2671 62.1138 21.3234C62.1138 21.3452 62.2217 21.1879 62.2286 21.181C62.271 21.1099 62.3135 21.0307 62.3491 20.9595C62.4994 20.6806 62.636 20.3948 62.7715 20.117C62.8645 19.923 62.9494 19.7233 63.0355 19.5304C63.0848 19.4087 63.1354 19.2951 63.1927 19.1734C63.2214 19.1803 63.249 19.1803 63.2777 19.1872C63.4717 19.2228 63.6714 19.209 63.8642 19.1734C63.3638 20.1089 62.8289 20.9733 62.3778 21.8881C62.3709 22.159 62.364 22.4379 62.364 22.7088C62.364 23.1599 62.4065 23.6099 62.4352 24.0598C62.2354 24.046 62.0288 24.0242 61.828 24.0242C61.6213 24.0242 61.4205 24.0392 61.2207 24.0598C61.2713 23.5169 61.3 22.974 61.3 22.431C61.3057 22.2956 61.3057 22.1659 61.3057 22.0304C60.7708 21.1099 60.3002 20.1445 59.763 19.1734C59.9776 19.1872 60.1923 19.209 60.4069 19.209" fill="#CCB07F"/>
<path d="M66.6271 19.1734C66.7213 19.1803 66.82 19.209 66.9141 19.209C67.014 19.209 67.1138 19.1872 67.2068 19.1734C67.7279 20.3167 68.2927 21.4312 68.8563 22.5527L69.2775 21.7308C69.7137 20.8883 70.1281 20.0377 70.5206 19.1734C70.5493 19.1803 70.5711 19.1803 70.5998 19.1872C70.7789 19.2159 70.9568 19.209 71.1278 19.1734C71.2507 20.288 71.3861 21.4025 71.5216 22.5159C71.5709 22.9303 71.6363 23.3447 71.6926 23.7591C71.7064 23.8452 71.7431 23.9599 71.7431 24.0598C71.5503 24.046 71.3494 24.0242 71.1565 24.0242C70.9649 24.0242 70.7709 24.046 70.578 24.0598C70.5287 22.959 70.3852 21.8674 70.2784 20.7666C69.7355 21.8594 69.1995 22.9521 68.6933 24.0598C68.5991 24.046 68.5142 24.0391 68.4212 24.0598L67.8714 22.9165C67.5431 22.2244 67.1919 21.538 66.8567 20.8447C66.8062 21.2671 66.7499 21.6883 66.7063 22.1085C66.6845 22.3805 66.657 22.6456 66.6352 22.9165C66.6202 23.153 66.5984 23.3814 66.5847 23.6167C66.5778 23.7671 66.5709 23.9094 66.5559 24.0598C66.4492 24.0391 66.3356 24.0242 66.2208 24.0242C66.114 24.0242 65.9992 24.0391 65.8925 24.0598C65.8925 23.9886 65.9281 23.8452 65.9418 23.7958C66.0199 23.4388 66.0704 23.0738 66.1347 22.7088C66.2139 22.245 66.2701 21.7813 66.3356 21.3164L66.6271 19.1734Z" fill="#CCB07F"/>
<path d="M75.5712 22.2095C75.5069 22.0889 75.4358 21.9592 75.3646 21.8456C75.3428 21.8169 75.3497 21.8089 75.3141 21.802C75.3141 21.802 75.2785 21.802 75.2785 21.8456C75.2785 22.2669 75.2923 22.6962 75.2923 23.1163C75.3003 23.1805 75.3003 23.246 75.3003 23.3091C75.3072 23.5593 75.3359 23.8096 75.3497 24.0598C75.1568 24.046 74.964 24.0242 74.7711 24.0242C74.5783 24.0242 74.3855 24.046 74.1926 24.0598L74.1995 23.9244C74.2075 23.7671 74.2144 23.6098 74.2293 23.4526C74.2649 22.9877 74.2649 22.5159 74.2649 22.0453C74.2649 21.616 74.2569 21.181 74.2569 20.7517C74.2569 20.2237 74.2362 19.7026 74.2075 19.1734L74.7 19.1872C75.042 19.1941 75.3864 19.1654 75.7285 19.1654C76.0636 19.1654 76.5859 19.1528 76.8786 19.3158C77.293 19.5511 77.5076 19.8736 77.5076 20.3592C77.5076 21.0593 77.0577 21.5013 76.3931 21.6447C76.7868 22.33 77.2287 22.9877 77.658 23.6523L77.9151 24.0598C77.7005 24.046 77.4789 24.0242 77.2643 24.0242C77.0496 24.0242 76.8361 24.0392 76.6226 24.0598L75.7927 22.5952L75.5712 22.2095ZM75.3003 20.4234C75.3003 20.6094 75.2923 20.7953 75.2923 20.9801C75.2923 21.1523 75.2923 21.3233 75.2854 21.4955C76.0292 21.5667 76.4011 21.2097 76.4011 20.4739C76.4011 20.3236 76.3931 20.2662 76.3644 20.1169C76.2358 19.5235 75.7859 19.6016 75.3003 19.5729L75.3003 20.4234Z" fill="#CCB07F"/>
<path d="M84.6357 20.2157C84.6288 20.4453 84.6151 20.6806 84.6151 20.917C84.6151 21.181 84.6013 21.445 84.5933 21.7022C84.5795 22.516 84.5864 23.2598 83.8437 23.774C83.4569 24.0529 82.9645 24.1528 82.4927 24.1528C81.6284 24.1528 80.6929 23.8808 80.4289 22.9522C80.3922 22.8236 80.3784 22.6962 80.3634 22.5665C80.3428 22.4092 80.3497 22.2382 80.3497 22.0741C80.3428 21.7802 80.3359 21.4886 80.3359 21.1879C80.3359 20.8952 80.3279 20.5945 80.3279 20.2949C80.3279 20.024 80.321 19.7439 80.321 19.473C80.321 19.3732 80.3072 19.2733 80.3072 19.1723C80.5081 19.1872 80.6998 19.209 80.8995 19.209C81.0935 19.209 81.2863 19.1941 81.478 19.1654C81.4723 19.2802 81.4574 19.4019 81.4436 19.5166C81.4069 20.0802 81.385 20.6301 81.385 21.1879C81.385 21.5805 81.3713 22.167 81.4356 22.5378C81.4998 22.8879 81.5572 23.1094 81.8143 23.3596C82.0428 23.5743 82.3137 23.6673 82.6293 23.6673C83.2928 23.6673 83.6497 23.4239 83.9 22.8029C84.0297 22.4873 84.0297 21.6735 84.0297 21.3234C84.0297 20.6094 84.0228 19.8874 83.9723 19.1723C84.0928 19.1941 84.2145 19.209 84.3362 19.209C84.4578 19.209 84.5795 19.1941 84.6931 19.1723C84.6587 19.5166 84.6507 19.8667 84.6357 20.2157" fill="#CCB07F"/>
<path d="M69.677 11.36L69.7263 14.9034L69.7917 16.6677L69.825 17.0258C69.5794 17.0097 69.3177 16.9455 69.0732 16.9455C68.7793 16.9455 68.5016 17.0098 68.2077 17.0258C68.2249 16.9122 68.2249 16.7813 68.241 16.6677L68.3064 15.3775L68.3718 11.5552V7.57098L68.2892 5.84003C68.567 5.85725 68.8448 5.90546 69.1225 5.90546C69.367 5.90546 69.6287 5.87332 69.8732 5.85724C69.8572 6.00302 69.8572 6.14995 69.8411 6.29802L69.7757 7.78334L69.6942 10.6254L69.677 11.36Z" fill="#3D4F7F"/>
<path d="M65.0947 16.2372C65.291 16.8996 61.7292 17.1406 60.4172 17.1406C56.1484 17.1406 52.7737 14.9528 52.7737 11.2613C52.7737 7.80055 56.1484 5.38318 60.4172 5.38318C61.9381 5.38318 63.5199 5.66096 64.8743 6.18323L64.1868 7.29435C63.249 6.86964 61.875 6.55972 60.4172 6.55972C57.0644 6.55972 54.6895 8.64996 54.6895 11.2613C54.6895 13.8761 57.0644 15.9652 60.4172 15.9652C61.4159 15.9652 62.5213 15.7689 63.3121 15.4923L63.536 15.3006V11.9363L63.4533 10.2053C63.7311 10.2225 64.2706 10.2707 64.5495 10.2707C64.794 10.2707 65.0557 10.2386 65.3002 10.2225C65.2841 10.3683 65.2841 10.5152 65.2681 10.6621L65.2026 12.1498L65.0947 16.2372Z" fill="#3D4F7F"/>
<path d="M84.296 16.2372C84.4923 16.8996 80.9305 17.1406 79.6185 17.1406C75.3497 17.1406 71.975 14.9528 71.975 11.2613C71.975 7.80055 75.3497 5.38318 79.6185 5.38318C81.1383 5.38318 82.72 5.66096 84.0756 6.18323L83.3869 7.29435C82.4503 6.86964 81.0763 6.55972 79.6185 6.55972C76.2656 6.55972 73.8907 8.64996 73.8907 11.2613C73.8907 13.8761 76.2656 15.9652 79.6185 15.9652C80.6183 15.9652 81.7214 15.7689 82.5134 15.4923L82.7361 15.3006V11.9363L82.6546 10.2053C82.9324 10.2225 83.4718 10.2707 83.7508 10.2707C83.9953 10.2707 84.257 10.2386 84.5015 10.2225C84.4854 10.3683 84.4854 10.5152 84.4682 10.6621L84.4027 12.1498L84.296 16.2372Z" fill="#3D4F7F"/>
</g>
<defs>
<clipPath id="clip0_4485_9214">
<rect width="84.8024" height="48" fill="white" transform="translate(0.0596924 0.5)"/>
</clipPath>
</defs>
</svg>
